G04 #@! TF.GenerationSoftware,KiCad,Pcbnew,8.0.4*
G04 #@! TF.CreationDate,2025-09-28T15:06:51-07:00*
G04 #@! TF.ProjectId,GMAX3412_breakout,474d4158-3334-4313-925f-627265616b6f,rev?*
G04 #@! TF.SameCoordinates,Original*
G04 #@! TF.FileFunction,Copper,L4,Bot*
G04 #@! TF.FilePolarity,Positive*
%FSLAX46Y46*%
G04 Gerber Fmt 4.6, Leading zero omitted, Abs format (unit mm)*
G04 Created by KiCad (PCBNEW 8.0.4) date 2025-09-28 15:06:51*
%MOMM*%
%LPD*%
G01*
G04 APERTURE LIST*
G04 #@! TA.AperFunction,SMDPad,CuDef*
%ADD10C,0.600000*%
G04 #@! TD*
G04 #@! TA.AperFunction,SMDPad,CuDef*
%ADD11C,1.600000*%
G04 #@! TD*
G04 #@! TA.AperFunction,ViaPad*
%ADD12C,0.400000*%
G04 #@! TD*
G04 #@! TA.AperFunction,ViaPad*
%ADD13C,0.450000*%
G04 #@! TD*
G04 #@! TA.AperFunction,Conductor*
%ADD14C,0.150000*%
G04 #@! TD*
G04 #@! TA.AperFunction,Conductor*
%ADD15C,0.640000*%
G04 #@! TD*
G04 #@! TA.AperFunction,Conductor*
%ADD16C,0.600000*%
G04 #@! TD*
G04 #@! TA.AperFunction,Conductor*
%ADD17C,0.250000*%
G04 #@! TD*
G04 #@! TA.AperFunction,Conductor*
%ADD18C,0.100000*%
G04 #@! TD*
G04 APERTURE END LIST*
D10*
G04 #@! TO.P,U1,A3,VDDA1*
G04 #@! TO.N,VDDA*
X13500000Y-26500000D03*
G04 #@! TO.P,U1,A4,VDDD1*
G04 #@! TO.N,VDDD*
X14500000Y-26500000D03*
G04 #@! TO.P,U1,A5,VBIASP*
G04 #@! TO.N,Net-(U1-VBIASP)*
X15500000Y-26500000D03*
G04 #@! TO.P,U1,A6,VREF*
G04 #@! TO.N,Net-(U1-VREF)*
X16500000Y-26500000D03*
G04 #@! TO.P,U1,A7,VDDD2*
G04 #@! TO.N,VDDD*
X17500000Y-26500000D03*
G04 #@! TO.P,U1,A8,VDDA2*
G04 #@! TO.N,VDDA*
X18500000Y-26500000D03*
G04 #@! TO.P,U1,A9,VDDD3*
G04 #@! TO.N,VDDD*
X19500000Y-26500000D03*
G04 #@! TO.P,U1,A10,VDDD4*
X20500000Y-26500000D03*
G04 #@! TO.P,U1,A11,VDDA3*
G04 #@! TO.N,VDDA*
X21500000Y-26500000D03*
G04 #@! TO.P,U1,A12,VDDD5*
G04 #@! TO.N,VDDD*
X22500000Y-26500000D03*
G04 #@! TO.P,U1,A13,VDDPIX1*
G04 #@! TO.N,VDDPIX*
X23500000Y-26500000D03*
G04 #@! TO.P,U1,A14,VDDA4*
G04 #@! TO.N,VDDA*
X24500000Y-26500000D03*
G04 #@! TO.P,U1,A15*
G04 #@! TO.N,N/C*
X25500000Y-26500000D03*
G04 #@! TO.P,U1,B3,GNDA1*
G04 #@! TO.N,GND*
X13500000Y-25500000D03*
G04 #@! TO.P,U1,B4,GNDD1*
X14500000Y-25500000D03*
G04 #@! TO.P,U1,B5*
G04 #@! TO.N,N/C*
X15500000Y-25500000D03*
G04 #@! TO.P,U1,B6*
X16500000Y-25500000D03*
G04 #@! TO.P,U1,B7,GNDD2*
G04 #@! TO.N,GND*
X17500000Y-25500000D03*
G04 #@! TO.P,U1,B8,GNDA2*
X18500000Y-25500000D03*
G04 #@! TO.P,U1,B9,VDDD6*
G04 #@! TO.N,VDDD*
X19500000Y-25500000D03*
G04 #@! TO.P,U1,B10,GNDD3*
G04 #@! TO.N,GND*
X20500000Y-25500000D03*
G04 #@! TO.P,U1,B11,GNDA3*
X21500000Y-25500000D03*
G04 #@! TO.P,U1,B12,VDDD7*
G04 #@! TO.N,VDDD*
X22500000Y-25500000D03*
G04 #@! TO.P,U1,B13,GNDPIX1*
G04 #@! TO.N,GND*
X23500000Y-25500000D03*
G04 #@! TO.P,U1,B14,OUT15_P*
G04 #@! TO.N,unconnected-(U1-OUT15_P-PadB14)*
X24500000Y-25500000D03*
G04 #@! TO.P,U1,B15,OUT15_N*
G04 #@! TO.N,unconnected-(U1-OUT15_N-PadB15)*
X25500000Y-25500000D03*
G04 #@! TO.P,U1,C1,GNDA4*
G04 #@! TO.N,GND*
X11500000Y-24500000D03*
G04 #@! TO.P,U1,C2,RES_EXT_NODE_P*
G04 #@! TO.N,Net-(U1-RES_EXT_NODE_P)*
X12500000Y-24500000D03*
G04 #@! TO.P,U1,C3,VBGR*
G04 #@! TO.N,Net-(U1-VBGR)*
X13500000Y-24500000D03*
G04 #@! TO.P,U1,C4*
G04 #@! TO.N,N/C*
X14500000Y-24500000D03*
G04 #@! TO.P,U1,C5*
X15500000Y-24500000D03*
G04 #@! TO.P,U1,C6*
X16500000Y-24500000D03*
G04 #@! TO.P,U1,C7,VDDD8*
G04 #@! TO.N,VDDD*
X17500000Y-24500000D03*
G04 #@! TO.P,U1,C8*
G04 #@! TO.N,N/C*
X18500000Y-24500000D03*
G04 #@! TO.P,U1,C9,GNDD4*
G04 #@! TO.N,GND*
X19500000Y-24500000D03*
G04 #@! TO.P,U1,C10,VDDD9*
G04 #@! TO.N,VDDD*
X20500000Y-24500000D03*
G04 #@! TO.P,U1,C11*
G04 #@! TO.N,N/C*
X21500000Y-24500000D03*
G04 #@! TO.P,U1,C12,GNDD5*
G04 #@! TO.N,GND*
X22500000Y-24500000D03*
G04 #@! TO.P,U1,C13*
G04 #@! TO.N,N/C*
X23500000Y-24500000D03*
G04 #@! TO.P,U1,C14,OUT9_P*
G04 #@! TO.N,CAM_D3_P*
X24500000Y-24500000D03*
G04 #@! TO.P,U1,C15,OUT9_N*
G04 #@! TO.N,CAM_D3_N*
X25500000Y-24500000D03*
G04 #@! TO.P,U1,C16,OUT13_P*
G04 #@! TO.N,unconnected-(U1-OUT13_P-PadC16)*
X26500000Y-24500000D03*
G04 #@! TO.P,U1,C17,OUT13_N*
G04 #@! TO.N,unconnected-(U1-OUT13_N-PadC17)*
X27500000Y-24500000D03*
G04 #@! TO.P,U1,D1,VDDA5*
G04 #@! TO.N,VDDA*
X11500000Y-23500000D03*
G04 #@! TO.P,U1,D2,GNDA5*
G04 #@! TO.N,GND*
X12500000Y-23500000D03*
G04 #@! TO.P,U1,D3,TANA*
G04 #@! TO.N,unconnected-(U1-TANA-PadD3)*
X13500000Y-23500000D03*
G04 #@! TO.P,U1,D4*
G04 #@! TO.N,N/C*
X14500000Y-23500000D03*
G04 #@! TO.P,U1,D5*
X15500000Y-23500000D03*
G04 #@! TO.P,U1,D6*
X16500000Y-23500000D03*
G04 #@! TO.P,U1,D7,GNDD6*
G04 #@! TO.N,GND*
X17500000Y-23500000D03*
G04 #@! TO.P,U1,D8*
G04 #@! TO.N,N/C*
X18500000Y-23500000D03*
G04 #@! TO.P,U1,D9,GNDD7*
G04 #@! TO.N,GND*
X19500000Y-23500000D03*
G04 #@! TO.P,U1,D10,GNDD8*
X20500000Y-23500000D03*
G04 #@! TO.P,U1,D11*
G04 #@! TO.N,N/C*
X21500000Y-23500000D03*
G04 #@! TO.P,U1,D12,GNDD9*
G04 #@! TO.N,GND*
X22500000Y-23500000D03*
G04 #@! TO.P,U1,D13*
G04 #@! TO.N,N/C*
X23500000Y-23500000D03*
G04 #@! TO.P,U1,D14,OUT7_P*
G04 #@! TO.N,CAM_D2_P*
X24500000Y-23500000D03*
G04 #@! TO.P,U1,D15,OUT7_N*
G04 #@! TO.N,CAM_D2_N*
X25500000Y-23500000D03*
G04 #@! TO.P,U1,D16,OUT11_P*
G04 #@! TO.N,unconnected-(U1-OUT11_P-PadD16)*
X26500000Y-23500000D03*
G04 #@! TO.P,U1,D17,OUT11_N*
G04 #@! TO.N,unconnected-(U1-OUT11_N-PadD17)*
X27500000Y-23500000D03*
G04 #@! TO.P,U1,E1,VCPNO*
G04 #@! TO.N,Net-(U1-VCPNO)*
X11500000Y-22500000D03*
G04 #@! TO.P,U1,E2,GNDA6*
G04 #@! TO.N,GND*
X12500000Y-22500000D03*
G04 #@! TO.P,U1,E3,VDDA6*
G04 #@! TO.N,VDDA*
X13500000Y-22500000D03*
G04 #@! TO.P,U1,E4,GNDA7*
G04 #@! TO.N,GND*
X14500000Y-22500000D03*
G04 #@! TO.P,U1,E14,OUT1_CLKP*
G04 #@! TO.N,CAM_CLK_P*
X24500000Y-22500000D03*
G04 #@! TO.P,U1,E15,OUT1_CLKN*
G04 #@! TO.N,CAM_CLK_N*
X25500000Y-22500000D03*
G04 #@! TO.P,U1,E16,GNDD10*
G04 #@! TO.N,GND*
X26500000Y-22500000D03*
G04 #@! TO.P,U1,E17,VDDD10*
G04 #@! TO.N,VDDD*
X27500000Y-22500000D03*
G04 #@! TO.P,U1,F1,VCPNI*
G04 #@! TO.N,Net-(U1-VCPNI)*
X11500000Y-21500000D03*
G04 #@! TO.P,U1,F2,VTX2H*
G04 #@! TO.N,Net-(U1-VTX2H)*
X12500000Y-21500000D03*
G04 #@! TO.P,U1,F3,VTX1H*
G04 #@! TO.N,Net-(U1-VTX1H)*
X13500000Y-21500000D03*
G04 #@! TO.P,U1,F4,VGRSTH*
G04 #@! TO.N,Net-(U1-VGRSTH)*
X14500000Y-21500000D03*
G04 #@! TO.P,U1,F14,OUT5_P*
G04 #@! TO.N,CAM_D1_P*
X24500000Y-21500000D03*
G04 #@! TO.P,U1,F15,OUT5_N*
G04 #@! TO.N,CAM_D1_N*
X25500000Y-21500000D03*
G04 #@! TO.P,U1,F16,GNDD11*
G04 #@! TO.N,GND*
X26500000Y-21500000D03*
G04 #@! TO.P,U1,F17,VDDD11*
G04 #@! TO.N,VDDD*
X27500000Y-21500000D03*
G04 #@! TO.P,U1,G1,VDDA7*
G04 #@! TO.N,VDDA*
X11500000Y-20500000D03*
G04 #@! TO.P,U1,G2,VTX1L*
G04 #@! TO.N,Net-(U1-VTX1L)*
X12500000Y-20500000D03*
G04 #@! TO.P,U1,G3,VTX2L*
G04 #@! TO.N,Net-(U1-VTX2L)*
X13500000Y-20500000D03*
G04 #@! TO.P,U1,G4,VGRSTL*
G04 #@! TO.N,Net-(U1-VGRSTL)*
X14500000Y-20500000D03*
G04 #@! TO.P,U1,G14,OUT3_P*
G04 #@! TO.N,CAM_D0_P*
X24500000Y-20500000D03*
G04 #@! TO.P,U1,G15,OUT3_N*
G04 #@! TO.N,CAM_D0_N*
X25500000Y-20500000D03*
G04 #@! TO.P,U1,G16,OUT1_P*
G04 #@! TO.N,unconnected-(U1-OUT1_P-PadG16)*
X26500000Y-20500000D03*
G04 #@! TO.P,U1,G17,OUT1_N*
G04 #@! TO.N,unconnected-(U1-OUT1_N-PadG17)*
X27500000Y-20500000D03*
G04 #@! TO.P,U1,H1,VCPPI*
G04 #@! TO.N,Net-(U1-VCPPI)*
X11500000Y-19500000D03*
G04 #@! TO.P,U1,H2*
G04 #@! TO.N,N/C*
X12500000Y-19500000D03*
G04 #@! TO.P,U1,H3*
X13500000Y-19500000D03*
G04 #@! TO.P,U1,H4,VGRSTL2*
G04 #@! TO.N,Net-(U1-VGRSTL2)*
X14500000Y-19500000D03*
G04 #@! TO.P,U1,H14,OUT0_P*
G04 #@! TO.N,unconnected-(U1-OUT0_P-PadH14)*
X24500000Y-19500000D03*
G04 #@! TO.P,U1,H15,OUT0_N*
G04 #@! TO.N,unconnected-(U1-OUT0_N-PadH15)*
X25500000Y-19500000D03*
G04 #@! TO.P,U1,H16,GNDD12*
G04 #@! TO.N,GND*
X26500000Y-19500000D03*
G04 #@! TO.P,U1,H17,VDDD12*
G04 #@! TO.N,VDDD*
X27500000Y-19500000D03*
G04 #@! TO.P,U1,J1,VCPPO*
G04 #@! TO.N,Net-(U1-VCPPO)*
X11500000Y-18500000D03*
G04 #@! TO.P,U1,J2,GNDA8*
G04 #@! TO.N,GND*
X12500000Y-18500000D03*
G04 #@! TO.P,U1,J3,VDDA8*
G04 #@! TO.N,VDDA*
X13500000Y-18500000D03*
G04 #@! TO.P,U1,J4,GNDA9*
G04 #@! TO.N,GND*
X14500000Y-18500000D03*
G04 #@! TO.P,U1,J14,OUT2_P*
G04 #@! TO.N,unconnected-(U1-OUT2_P-PadJ14)*
X24500000Y-18500000D03*
G04 #@! TO.P,U1,J15,OUT2_N*
G04 #@! TO.N,unconnected-(U1-OUT2_N-PadJ15)*
X25500000Y-18500000D03*
G04 #@! TO.P,U1,J16,GNDD13*
G04 #@! TO.N,GND*
X26500000Y-18500000D03*
G04 #@! TO.P,U1,J17,VDDD13*
G04 #@! TO.N,VDDD*
X27500000Y-18500000D03*
G04 #@! TO.P,U1,K1,GNDA10*
G04 #@! TO.N,GND*
X11500000Y-17500000D03*
G04 #@! TO.P,U1,K2*
G04 #@! TO.N,N/C*
X12500000Y-17500000D03*
G04 #@! TO.P,U1,K3,VDDA9*
G04 #@! TO.N,VDDA*
X13500000Y-17500000D03*
G04 #@! TO.P,U1,K4,GNDA11*
G04 #@! TO.N,GND*
X14500000Y-17500000D03*
G04 #@! TO.P,U1,K14,OUT4_P*
G04 #@! TO.N,unconnected-(U1-OUT4_P-PadK14)*
X24500000Y-17500000D03*
G04 #@! TO.P,U1,K15,OUT4_N*
G04 #@! TO.N,unconnected-(U1-OUT4_N-PadK15)*
X25500000Y-17500000D03*
G04 #@! TO.P,U1,K16,OUT6_P*
G04 #@! TO.N,unconnected-(U1-OUT6_P-PadK16)*
X26500000Y-17500000D03*
G04 #@! TO.P,U1,K17,OUT6_N*
G04 #@! TO.N,unconnected-(U1-OUT6_N-PadK17)*
X27500000Y-17500000D03*
G04 #@! TO.P,U1,L1,SYS_RST_N*
G04 #@! TO.N,Net-(U1-SYS_RST_N)*
X11500000Y-16500000D03*
G04 #@! TO.P,U1,L2,TEXP2*
G04 #@! TO.N,TEXP2*
X12500000Y-16500000D03*
G04 #@! TO.P,U1,L3,TEXP1*
G04 #@! TO.N,TEXP1*
X13500000Y-16500000D03*
G04 #@! TO.P,U1,L4*
G04 #@! TO.N,N/C*
X14500000Y-16500000D03*
G04 #@! TO.P,U1,L14,OUT8_P*
G04 #@! TO.N,unconnected-(U1-OUT8_P-PadL14)*
X24500000Y-16500000D03*
G04 #@! TO.P,U1,L15,OUT8_N*
G04 #@! TO.N,unconnected-(U1-OUT8_N-PadL15)*
X25500000Y-16500000D03*
G04 #@! TO.P,U1,L16,OUT0_CLKP*
G04 #@! TO.N,unconnected-(U1-OUT0_CLKP-PadL16)*
X26500000Y-16500000D03*
G04 #@! TO.P,U1,L17,OUT0_CLKN*
G04 #@! TO.N,unconnected-(U1-OUT0_CLKN-PadL17)*
X27500000Y-16500000D03*
G04 #@! TO.P,U1,M1,VDDIO*
G04 #@! TO.N,VDDIO*
X11500000Y-15500000D03*
G04 #@! TO.P,U1,M2,XCE_SLAMODE*
G04 #@! TO.N,GND*
X12500000Y-15500000D03*
G04 #@! TO.P,U1,M3,SDO_TDIG*
G04 #@! TO.N,Net-(U1-SDO_TDIG)*
X13500000Y-15500000D03*
G04 #@! TO.P,U1,M4,SCK*
G04 #@! TO.N,unconnected-(U1-SCK-PadM4)*
X14500000Y-15500000D03*
G04 #@! TO.P,U1,M5*
G04 #@! TO.N,N/C*
X15500000Y-15500000D03*
G04 #@! TO.P,U1,M6*
X16500000Y-15500000D03*
G04 #@! TO.P,U1,M7,GNDD14*
G04 #@! TO.N,GND*
X17500000Y-15500000D03*
G04 #@! TO.P,U1,M8*
G04 #@! TO.N,N/C*
X18500000Y-15500000D03*
G04 #@! TO.P,U1,M9,GNDD15*
G04 #@! TO.N,GND*
X19500000Y-15500000D03*
G04 #@! TO.P,U1,M10,GNDD16*
X20500000Y-15500000D03*
G04 #@! TO.P,U1,M11*
G04 #@! TO.N,N/C*
X21500000Y-15500000D03*
G04 #@! TO.P,U1,M12,GNDD17*
G04 #@! TO.N,GND*
X22500000Y-15500000D03*
G04 #@! TO.P,U1,M13*
G04 #@! TO.N,N/C*
X23500000Y-15500000D03*
G04 #@! TO.P,U1,M14,OUT10_P*
G04 #@! TO.N,unconnected-(U1-OUT10_P-PadM14)*
X24500000Y-15500000D03*
G04 #@! TO.P,U1,M15,OUT10_N*
G04 #@! TO.N,unconnected-(U1-OUT10_N-PadM15)*
X25500000Y-15500000D03*
G04 #@! TO.P,U1,M16,OUT12_P*
G04 #@! TO.N,unconnected-(U1-OUT12_P-PadM16)*
X26500000Y-15500000D03*
G04 #@! TO.P,U1,M17,OUT12_N*
G04 #@! TO.N,unconnected-(U1-OUT12_N-PadM17)*
X27500000Y-15500000D03*
G04 #@! TO.P,U1,N1,CLK_REF*
G04 #@! TO.N,CLOCK*
X11500000Y-14500000D03*
G04 #@! TO.P,U1,N2,SDI*
G04 #@! TO.N,unconnected-(U1-SDI-PadN2)*
X12500000Y-14500000D03*
G04 #@! TO.P,U1,N3,SCL*
G04 #@! TO.N,SCL_3V3*
X13500000Y-14500000D03*
G04 #@! TO.P,U1,N4,SDA*
G04 #@! TO.N,SDA_3V3*
X14500000Y-14500000D03*
G04 #@! TO.P,U1,N5,GNDD18*
G04 #@! TO.N,GND*
X15500000Y-14500000D03*
G04 #@! TO.P,U1,N6*
G04 #@! TO.N,N/C*
X16500000Y-14500000D03*
G04 #@! TO.P,U1,N7,VDDD14*
G04 #@! TO.N,VDDD*
X17500000Y-14500000D03*
G04 #@! TO.P,U1,N8*
G04 #@! TO.N,N/C*
X18500000Y-14500000D03*
G04 #@! TO.P,U1,N9,GNDD19*
G04 #@! TO.N,GND*
X19500000Y-14500000D03*
G04 #@! TO.P,U1,N10,VDDD15*
G04 #@! TO.N,VDDD*
X20500000Y-14500000D03*
G04 #@! TO.P,U1,N11*
G04 #@! TO.N,N/C*
X21500000Y-14500000D03*
G04 #@! TO.P,U1,N12,GNDD20*
G04 #@! TO.N,GND*
X22500000Y-14500000D03*
G04 #@! TO.P,U1,N13*
G04 #@! TO.N,N/C*
X23500000Y-14500000D03*
G04 #@! TO.P,U1,N14,GNDA12*
G04 #@! TO.N,GND*
X24500000Y-14500000D03*
G04 #@! TO.P,U1,N15,OUT14_P*
G04 #@! TO.N,unconnected-(U1-OUT14_P-PadN15)*
X25500000Y-14500000D03*
G04 #@! TO.P,U1,N16,OUT14_N*
G04 #@! TO.N,unconnected-(U1-OUT14_N-PadN16)*
X26500000Y-14500000D03*
G04 #@! TO.P,U1,N17*
G04 #@! TO.N,N/C*
X27500000Y-14500000D03*
G04 #@! TO.P,U1,P3,CCI_EN*
G04 #@! TO.N,VDDIO*
X13500000Y-13500000D03*
G04 #@! TO.P,U1,P4,GNDA13*
G04 #@! TO.N,GND*
X14500000Y-13500000D03*
G04 #@! TO.P,U1,P5,VDDD16*
G04 #@! TO.N,VDDD*
X15500000Y-13500000D03*
G04 #@! TO.P,U1,P6,VRS*
G04 #@! TO.N,Net-(U1-VRS)*
X16500000Y-13500000D03*
G04 #@! TO.P,U1,P7,GNDD21*
G04 #@! TO.N,GND*
X17500000Y-13500000D03*
G04 #@! TO.P,U1,P8,GNDA14*
X18500000Y-13500000D03*
G04 #@! TO.P,U1,P9,VDDD17*
G04 #@! TO.N,VDDD*
X19500000Y-13500000D03*
G04 #@! TO.P,U1,P10,GNDD22*
G04 #@! TO.N,GND*
X20500000Y-13500000D03*
G04 #@! TO.P,U1,P11,GNDA15*
X21500000Y-13500000D03*
G04 #@! TO.P,U1,P12,VDDD18*
G04 #@! TO.N,VDDD*
X22500000Y-13500000D03*
G04 #@! TO.P,U1,P13,GNDPIX2*
G04 #@! TO.N,GND*
X23500000Y-13500000D03*
G04 #@! TO.P,U1,P14,GNDA16*
X24500000Y-13500000D03*
G04 #@! TO.P,U1,P15,GNDD23*
X25500000Y-13500000D03*
G04 #@! TA.AperFunction,SMDPad,CuDef*
G04 #@! TO.P,U1,PAD1*
G04 #@! TO.N,N/C*
G36*
X11200000Y-26000000D02*
G01*
X11220058Y-25821983D01*
X11279225Y-25652893D01*
X11374535Y-25501208D01*
X11501208Y-25374535D01*
X11652893Y-25279225D01*
X11821983Y-25220058D01*
X12000000Y-25200000D01*
X12178017Y-25220058D01*
X12347107Y-25279225D01*
X12498792Y-25374535D01*
X12625465Y-25501208D01*
X12720775Y-25652893D01*
X12779942Y-25821983D01*
X12800000Y-26000000D01*
X12779942Y-26178017D01*
X12720775Y-26347107D01*
X12625465Y-26498792D01*
X12498792Y-26625465D01*
X12347107Y-26720775D01*
X12178017Y-26779942D01*
X12000000Y-26800000D01*
X11200000Y-26800000D01*
X11200000Y-26000000D01*
G37*
G04 #@! TD.AperFunction*
D11*
G04 #@! TO.P,U1,PAD2*
X27000000Y-26000000D03*
G04 #@! TO.P,U1,PAD3*
X27000000Y-13000000D03*
G04 #@! TO.P,U1,PAD4*
X12000000Y-13000000D03*
D10*
G04 #@! TO.P,U1,R3,GNDD24*
G04 #@! TO.N,GND*
X13500000Y-12500000D03*
G04 #@! TO.P,U1,R4,VDDA10*
G04 #@! TO.N,VDDA*
X14500000Y-12500000D03*
G04 #@! TO.P,U1,R5,VDDA11*
X15500000Y-12500000D03*
G04 #@! TO.P,U1,R6,VRF*
G04 #@! TO.N,Net-(U1-VRF)*
X16500000Y-12500000D03*
G04 #@! TO.P,U1,R7,VDDD19*
G04 #@! TO.N,VDDD*
X17500000Y-12500000D03*
G04 #@! TO.P,U1,R8,VDDA12*
G04 #@! TO.N,VDDA*
X18500000Y-12500000D03*
G04 #@! TO.P,U1,R9,VDDD20*
G04 #@! TO.N,VDDD*
X19500000Y-12500000D03*
G04 #@! TO.P,U1,R10,VDDD21*
X20500000Y-12500000D03*
G04 #@! TO.P,U1,R11,VDDA13*
G04 #@! TO.N,VDDA*
X21500000Y-12500000D03*
G04 #@! TO.P,U1,R12,VDDD22*
G04 #@! TO.N,VDDD*
X22500000Y-12500000D03*
G04 #@! TO.P,U1,R13,VDDPIX2*
G04 #@! TO.N,VDDPIX*
X23500000Y-12500000D03*
G04 #@! TO.P,U1,R14,VDDA14*
G04 #@! TO.N,VDDA*
X24500000Y-12500000D03*
G04 #@! TO.P,U1,R15,VDDD23*
G04 #@! TO.N,VDDD*
X25500000Y-12500000D03*
G04 #@! TD*
D12*
G04 #@! TO.N,VDDIO*
X11520000Y-15500000D03*
X13500000Y-13500000D03*
X3400000Y-26700000D03*
X4280000Y-29580000D03*
G04 #@! TO.N,GND*
X18710000Y-3900000D03*
X30750000Y-7350000D03*
X19500000Y-23500000D03*
X21300000Y-35400000D03*
D13*
X35550000Y-20000000D03*
D12*
X22500000Y-15500000D03*
X23125000Y-33300000D03*
X30000000Y-7350000D03*
X10520000Y-19500000D03*
X26000000Y-16000000D03*
X20500000Y-23500000D03*
D13*
X35550000Y-27500000D03*
D12*
X7050000Y-2750000D03*
X17400000Y-31700000D03*
X2100000Y-24100000D03*
X4700000Y-28000000D03*
X6800000Y-8550000D03*
X10520000Y-18500000D03*
X29250000Y-7350000D03*
X3200000Y-29800000D03*
X37100000Y-8300000D03*
X3600000Y-21100000D03*
X20050000Y-3450000D03*
X19500000Y-15500000D03*
X1000000Y-27800000D03*
X24000000Y-22000000D03*
X20800000Y-8600000D03*
X16200000Y-30800000D03*
X13500000Y-12500000D03*
X31100000Y-38200000D03*
X30000000Y-3650000D03*
X26500000Y-19500000D03*
X21500000Y-13500000D03*
X2100000Y-21700000D03*
D13*
X33300000Y-29000000D03*
D12*
X8000000Y-5300000D03*
X28750000Y-13550000D03*
X20800000Y-9300000D03*
X20050000Y-9300000D03*
X22500000Y-24500000D03*
D13*
X26800000Y-33200000D03*
D12*
X21000000Y-6700000D03*
X8000000Y-4400000D03*
X27900000Y-6500000D03*
X31100000Y-37000000D03*
X12500000Y-18500000D03*
X11500000Y-24500000D03*
X17500000Y-25500000D03*
X17500000Y-37200000D03*
X6400000Y-26700000D03*
X13750000Y-9250000D03*
X14520000Y-25500000D03*
X9100000Y-26100000D03*
X14500000Y-18500000D03*
X12500000Y-15500000D03*
X20500000Y-25500000D03*
X30000000Y-10460000D03*
X26850000Y-3950000D03*
D13*
X31190000Y-28450000D03*
D12*
X30750000Y-6650000D03*
X11500000Y-17500000D03*
X12000000Y-14950000D03*
X27900000Y-5950000D03*
X13000000Y-8550000D03*
X37100000Y-16000000D03*
X16500000Y-11520000D03*
X9775000Y-12475000D03*
X13900000Y-35700000D03*
X10520000Y-22500000D03*
X36000000Y-8300000D03*
X20800000Y-2750000D03*
X9420000Y-21500000D03*
X16800000Y-35600000D03*
X12500000Y-22500000D03*
X8550000Y-11830000D03*
X6500000Y-37000000D03*
X24000000Y-20000000D03*
X9800000Y-33700000D03*
X11300000Y-9900000D03*
X3600000Y-24700000D03*
D13*
X35550000Y-24500000D03*
D12*
X6300000Y-3450000D03*
X23280000Y-30600000D03*
X15450000Y-22430000D03*
X13000000Y-2750000D03*
X20050000Y-8600000D03*
X26000000Y-15000000D03*
X21000000Y-7550000D03*
X8700000Y-13925000D03*
X7050000Y-3450000D03*
X27000000Y-16000000D03*
X11900000Y-11650000D03*
D13*
X35000000Y-29000000D03*
D12*
X4700000Y-27400000D03*
X20500000Y-13500000D03*
X3600000Y-21700000D03*
X13900000Y-32120000D03*
X27600000Y-3950000D03*
X15480000Y-20500000D03*
X2100000Y-24700000D03*
X20050000Y-2750000D03*
D13*
X34100000Y-29000000D03*
D12*
X14600000Y-34600000D03*
D13*
X35550000Y-23000000D03*
D12*
X12900000Y-35700000D03*
X13750000Y-8550000D03*
X12500000Y-23500000D03*
X9700000Y-14500000D03*
X22500000Y-23500000D03*
X23500000Y-25520000D03*
X19000000Y-35400000D03*
X21300000Y-31600000D03*
X14500000Y-17500000D03*
X17500000Y-15500000D03*
X27000000Y-17000000D03*
X14000000Y-4400000D03*
X11100000Y-38200000D03*
D13*
X26800000Y-34200000D03*
D12*
X10520000Y-20500000D03*
X6800000Y-9250000D03*
X36000000Y-9600000D03*
X20800000Y-3450000D03*
X33750000Y-11500000D03*
X21500000Y-25520000D03*
X14500000Y-13500000D03*
X30000000Y-6650000D03*
X20500000Y-15500000D03*
X13000000Y-9250000D03*
X14000000Y-5300000D03*
X25500000Y-38200000D03*
X21300000Y-36800000D03*
X3600000Y-24100000D03*
X23500000Y-13500000D03*
X18500000Y-13480000D03*
X37100000Y-9600000D03*
X36000000Y-14600000D03*
X8500000Y-28800000D03*
X2100000Y-21100000D03*
X26850000Y-4650000D03*
X24500000Y-13480000D03*
X18300000Y-33300000D03*
X3320000Y-30350000D03*
X25500000Y-13500000D03*
X6400000Y-25700000D03*
X17400000Y-30800000D03*
X37100000Y-14600000D03*
X13500000Y-25500000D03*
X12250000Y-3450000D03*
X26250000Y-21500000D03*
X19500000Y-24500000D03*
X19500000Y-14500000D03*
X17500000Y-23500000D03*
X9050000Y-9900000D03*
X29250000Y-6650000D03*
X24000000Y-24000000D03*
X13000000Y-3450000D03*
X36000000Y-16000000D03*
X1420000Y-30350000D03*
X7500000Y-16600000D03*
X32600000Y-11500000D03*
X23100000Y-37480000D03*
X24000000Y-21000000D03*
X10150000Y-9900000D03*
X12250000Y-2750000D03*
X15500000Y-11520000D03*
X14500000Y-22500000D03*
X26500000Y-18500000D03*
X16800000Y-34600000D03*
X28800000Y-2300000D03*
X1000000Y-28500000D03*
X24500000Y-14500000D03*
X17500000Y-13500000D03*
X26000000Y-17000000D03*
X26900000Y-5950000D03*
X25500000Y-37000000D03*
X8200000Y-29700000D03*
D13*
X35550000Y-26000000D03*
D12*
X7550000Y-8550000D03*
X12900000Y-35100000D03*
X18500000Y-25500000D03*
X15480000Y-19500000D03*
X26900000Y-6500000D03*
X18900000Y-31800000D03*
X3320000Y-31350000D03*
X27600000Y-4650000D03*
D13*
X36800000Y-21500000D03*
D12*
X6500000Y-38200000D03*
X21300000Y-33500000D03*
X6300000Y-2750000D03*
X4900000Y-26700000D03*
D13*
X35550000Y-21500000D03*
D12*
X15500000Y-14500000D03*
D13*
X36800000Y-24500000D03*
D12*
X24000000Y-23000000D03*
X26250000Y-22500000D03*
X27000000Y-15000000D03*
X19000000Y-36800000D03*
X4900000Y-25100000D03*
G04 #@! TO.N,Net-(U1-VBGR)*
X13500000Y-24500000D03*
G04 #@! TO.N,Net-(U1-VRS)*
X16500000Y-13500000D03*
D13*
G04 #@! TO.N,Net-(U1-VRF)*
X16500000Y-12480000D03*
G04 #@! TO.N,Net-(U1-VREF)*
X16300000Y-26300000D03*
D12*
G04 #@! TO.N,Net-(U1-VBIASP)*
X15500000Y-26500000D03*
G04 #@! TO.N,VDDA*
X18500000Y-26500000D03*
X15350000Y-8550000D03*
X15350000Y-9200000D03*
X14500000Y-12500000D03*
X11480000Y-20500000D03*
X24500000Y-12520000D03*
X14650000Y-8550000D03*
X13520000Y-18500000D03*
X24500000Y-26500000D03*
X14650000Y-9200000D03*
X21500000Y-26500000D03*
X15500000Y-12480000D03*
X18500000Y-12520000D03*
X11520000Y-23500000D03*
X15500000Y-27480000D03*
X13480000Y-22500000D03*
X13500000Y-26500000D03*
X21500000Y-12520000D03*
X13520000Y-17500000D03*
G04 #@! TO.N,Net-(U1-VCPNO)*
X11480000Y-22500000D03*
G04 #@! TO.N,Net-(U1-VCPNI)*
X10380000Y-21500000D03*
G04 #@! TO.N,Net-(U1-VTX2L)*
X13500000Y-20480000D03*
G04 #@! TO.N,Net-(U1-VTX2H)*
X12500000Y-21500000D03*
G04 #@! TO.N,Net-(U1-VGRSTL)*
X14500000Y-20500000D03*
G04 #@! TO.N,Net-(U1-VGRSTH)*
X15450000Y-21500000D03*
G04 #@! TO.N,Net-(U1-VTX1H)*
X13520000Y-21500000D03*
G04 #@! TO.N,Net-(U1-VTX1L)*
X12500000Y-20500000D03*
D13*
G04 #@! TO.N,Net-(U1-VCPPO)*
X11500000Y-18500000D03*
G04 #@! TO.N,Net-(U1-VCPPI)*
X11500000Y-19500000D03*
D12*
G04 #@! TO.N,Net-(U1-VGRSTL2)*
X14500000Y-19500000D03*
D13*
G04 #@! TO.N,Net-(U1-SYS_RST_N)*
X9000000Y-17600000D03*
G04 #@! TO.N,Net-(U5-SS_CTRL)*
X29100000Y-5100000D03*
D12*
X31000000Y-5787500D03*
D13*
G04 #@! TO.N,SCL_3V3*
X19200000Y-36100000D03*
D12*
X5900000Y-26200000D03*
D13*
G04 #@! TO.N,+3V3*
X36300000Y-30500000D03*
X23100000Y-36520000D03*
X27800000Y-33200000D03*
X37300000Y-30500000D03*
X30810000Y-31900000D03*
X27790000Y-31900000D03*
X27800000Y-34200000D03*
G04 #@! TO.N,SDA_3V3*
X16900000Y-36900000D03*
D12*
X5400000Y-25700000D03*
D13*
G04 #@! TO.N,CAM_EN*
X13050000Y-4862500D03*
D12*
X30750000Y-4900000D03*
D13*
X20050000Y-7137500D03*
X34950000Y-28000000D03*
X7050000Y-4850000D03*
D12*
G04 #@! TO.N,CLOCK*
X11500000Y-14510000D03*
G04 #@! TO.N,Net-(U1-RES_EXT_NODE_P)*
X12500000Y-24500000D03*
D13*
G04 #@! TO.N,Net-(U1-SDO_TDIG)*
X18100000Y-17500000D03*
D12*
G04 #@! TO.N,CAM_D1_N*
X25500000Y-21500000D03*
G04 #@! TO.N,VDDD*
X27500000Y-22500000D03*
X22500000Y-13500000D03*
X27500000Y-21500000D03*
X19500000Y-26500000D03*
X22500000Y-12500000D03*
X22500000Y-9200000D03*
X21800000Y-8600000D03*
X22500000Y-26500000D03*
D13*
X18200000Y-5900000D03*
D12*
X27500000Y-19500000D03*
X22500000Y-25500000D03*
X20500000Y-12500000D03*
X15500000Y-13500000D03*
X14500000Y-26500000D03*
X25500000Y-12520000D03*
X17500000Y-12520000D03*
X21800000Y-9200000D03*
X22500000Y-22000000D03*
X27500000Y-18500000D03*
X17500000Y-24423000D03*
X17500000Y-26500000D03*
X17500000Y-14500000D03*
X19500000Y-25500000D03*
X20500000Y-24500000D03*
X20500000Y-14500000D03*
X19500000Y-12500000D03*
X19500000Y-13500000D03*
X22500000Y-8600000D03*
X20500000Y-26500000D03*
G04 #@! TO.N,CAM_D0_P*
X24500000Y-20500000D03*
G04 #@! TO.N,CAM_D2_N*
X25500000Y-23500000D03*
G04 #@! TO.N,CAM_D1_P*
X24500000Y-21500000D03*
G04 #@! TO.N,VDDPIX*
X27000000Y-7850000D03*
X29000000Y-9470000D03*
X27850000Y-7850000D03*
X23500000Y-26500000D03*
X27000000Y-8400000D03*
X27850000Y-8450000D03*
X23500000Y-12520000D03*
G04 #@! TO.N,CAM_D0_N*
X25500000Y-20500000D03*
G04 #@! TO.N,CAM_D2_P*
X24500000Y-23500000D03*
G04 #@! TO.N,TEXP1*
X8500000Y-26100000D03*
D13*
X16800000Y-31300000D03*
D12*
G04 #@! TO.N,CAM_D3_N*
X25500000Y-24500000D03*
G04 #@! TO.N,CAM_CLK_P*
X24500000Y-22500000D03*
D13*
G04 #@! TO.N,TEXP2*
X16800000Y-32200000D03*
D12*
X8400000Y-28000000D03*
G04 #@! TO.N,CAM_D3_P*
X24500000Y-24500000D03*
G04 #@! TO.N,CAM_CLK_N*
X25500000Y-22500000D03*
G04 #@! TO.N,CLOCK2*
X14600000Y-35549999D03*
D13*
X10400000Y-14500000D03*
G04 #@! TD*
D14*
G04 #@! TO.N,VDDIO*
X3400000Y-27900000D02*
X4280000Y-28780000D01*
X3400000Y-26700000D02*
X3400000Y-27900000D01*
X4280000Y-28780000D02*
X4280000Y-29580000D01*
D15*
G04 #@! TO.N,Net-(U1-VCPNI)*
X11500000Y-21500000D02*
X10380000Y-21500000D01*
G04 #@! TO.N,Net-(U1-VGRSTH)*
X14500000Y-21500000D02*
X15420000Y-21500000D01*
D14*
G04 #@! TO.N,Net-(U1-SYS_RST_N)*
X11500000Y-16500000D02*
X10100000Y-16500000D01*
X10100000Y-16500000D02*
X9000000Y-17600000D01*
G04 #@! TO.N,Net-(U5-SS_CTRL)*
X31000000Y-5787500D02*
X29787500Y-5787500D01*
X29787500Y-5787500D02*
X29100000Y-5100000D01*
G04 #@! TO.N,SCL_3V3*
X6950000Y-11000000D02*
X5900000Y-12050000D01*
X5900000Y-12050000D02*
X5900000Y-33200000D01*
X14000000Y-14000000D02*
X14000000Y-11600000D01*
X5900000Y-33200000D02*
X9000000Y-36300000D01*
X19000000Y-36300000D02*
X19200000Y-36100000D01*
X14000000Y-11600000D02*
X13400000Y-11000000D01*
X13400000Y-11000000D02*
X6950000Y-11000000D01*
X9000000Y-36300000D02*
X19000000Y-36300000D01*
X13500000Y-14500000D02*
X14000000Y-14000000D01*
D16*
G04 #@! TO.N,+3V3*
X27790000Y-31900000D02*
X27790000Y-35010000D01*
X27200000Y-35600000D02*
X23600000Y-35600000D01*
X37300000Y-30500000D02*
X36300000Y-30500000D01*
X27790000Y-35010000D02*
X27200000Y-35600000D01*
X30810000Y-31900000D02*
X34900000Y-31900000D01*
X23600000Y-35600000D02*
X23100000Y-36100000D01*
X34900000Y-31900000D02*
X36300000Y-30500000D01*
X30810000Y-31900000D02*
X27790000Y-31900000D01*
X23100000Y-36100000D02*
X23100000Y-36520000D01*
D14*
G04 #@! TO.N,SDA_3V3*
X14500000Y-14500000D02*
X15000000Y-14000000D01*
X15000000Y-11600000D02*
X13950000Y-10550000D01*
X5400000Y-33400000D02*
X8900000Y-36900000D01*
X6750000Y-10550000D02*
X5400000Y-11900000D01*
X13950000Y-10550000D02*
X6750000Y-10550000D01*
X8900000Y-36900000D02*
X16900000Y-36900000D01*
X15000000Y-14000000D02*
X15000000Y-11600000D01*
X5400000Y-11900000D02*
X5400000Y-33400000D01*
G04 #@! TO.N,CAM_EN*
X7050000Y-4850000D02*
X7062500Y-4862500D01*
X38000000Y-27100000D02*
X37100000Y-28000000D01*
X30450000Y-4600000D02*
X28600000Y-4600000D01*
X38000000Y-8200000D02*
X38000000Y-27100000D01*
X21225001Y-5300000D02*
X20050000Y-6475001D01*
X28600000Y-4600000D02*
X27900000Y-5300000D01*
X7062500Y-4862500D02*
X13050000Y-4862500D01*
X20050000Y-6475001D02*
X20050000Y-7137500D01*
X34700000Y-4900000D02*
X38000000Y-8200000D01*
X27900000Y-5300000D02*
X21225001Y-5300000D01*
D17*
X13037500Y-4850000D02*
X13050000Y-4862500D01*
D14*
X30750000Y-4900000D02*
X30450000Y-4600000D01*
X30750000Y-4900000D02*
X34700000Y-4900000D01*
X18437499Y-4862500D02*
X20050000Y-6475001D01*
X13050000Y-4862500D02*
X18437499Y-4862500D01*
X37100000Y-28000000D02*
X34950000Y-28000000D01*
G04 #@! TO.N,Net-(U1-SDO_TDIG)*
X13500000Y-15500000D02*
X14000000Y-16000000D01*
X14000000Y-16000000D02*
X16600000Y-16000000D01*
X16600000Y-16000000D02*
X18100000Y-17500000D01*
G04 #@! TO.N,VDDD*
X18200000Y-7600000D02*
X18200000Y-5900000D01*
X18700000Y-8100000D02*
X18200000Y-7600000D01*
X21800000Y-8600000D02*
X21300000Y-8100000D01*
X21300000Y-8100000D02*
X18700000Y-8100000D01*
G04 #@! TO.N,TEXP1*
X13000000Y-17800000D02*
X12800000Y-18000000D01*
X13000000Y-17000000D02*
X13000000Y-17800000D01*
X10300000Y-18000000D02*
X8500000Y-19800000D01*
X8500000Y-27150000D02*
X12650000Y-31300000D01*
X8500000Y-19800000D02*
X8500000Y-27150000D01*
X12650000Y-31300000D02*
X16800000Y-31300000D01*
X12800000Y-18000000D02*
X10300000Y-18000000D01*
X13500000Y-16500000D02*
X13000000Y-17000000D01*
G04 #@! TO.N,TEXP2*
X16400000Y-32600000D02*
X16800000Y-32200000D01*
X7900000Y-19800000D02*
X7900000Y-27500000D01*
X10700000Y-17000000D02*
X7900000Y-19800000D01*
X12500000Y-16500000D02*
X12000000Y-17000000D01*
X12000000Y-17000000D02*
X10700000Y-17000000D01*
X8100000Y-27700000D02*
X8400000Y-28000000D01*
X7900000Y-27500000D02*
X8100000Y-27700000D01*
X8400000Y-28000000D02*
X13000000Y-32600000D01*
X13000000Y-32600000D02*
X16400000Y-32600000D01*
D18*
X13000000Y-32600000D02*
X8100000Y-27700000D01*
D14*
G04 #@! TO.N,CLOCK2*
X10400000Y-14600000D02*
X10400000Y-14500000D01*
X14600000Y-35549999D02*
X13550001Y-34500000D01*
X13550001Y-34500000D02*
X11900000Y-34500000D01*
X11900000Y-34500000D02*
X6900000Y-29500000D01*
X6900000Y-18100000D02*
X10400000Y-14600000D01*
X6900000Y-29500000D02*
X6900000Y-18100000D01*
G04 #@! TD*
G04 #@! TA.AperFunction,Conductor*
G04 #@! TO.N,GND*
G36*
X12546123Y-31555171D02*
G01*
X12595200Y-31575500D01*
X16443100Y-31575500D01*
X16495426Y-31597174D01*
X16546780Y-31648528D01*
X16616527Y-31684066D01*
X16653310Y-31727133D01*
X16648866Y-31783595D01*
X16616527Y-31815934D01*
X16546780Y-31851471D01*
X16451471Y-31946780D01*
X16390281Y-32066873D01*
X16390280Y-32066873D01*
X16369196Y-32200000D01*
X16369196Y-32205823D01*
X16367129Y-32205823D01*
X16355702Y-32253395D01*
X16348169Y-32262214D01*
X16307558Y-32302826D01*
X16255236Y-32324500D01*
X13144768Y-32324500D01*
X13092442Y-32302826D01*
X12465481Y-31675865D01*
X12443807Y-31623539D01*
X12465481Y-31571213D01*
X12517807Y-31549539D01*
X12546123Y-31555171D01*
G37*
G04 #@! TD.AperFunction*
G04 #@! TA.AperFunction,Conductor*
G36*
X15030740Y-24720793D02*
G01*
X15067312Y-24757365D01*
X15074623Y-24773373D01*
X15132932Y-24840666D01*
X15168868Y-24882139D01*
X15168869Y-24882140D01*
X15168872Y-24882143D01*
X15251627Y-24935326D01*
X15255394Y-24937747D01*
X15287695Y-24984270D01*
X15277639Y-25040008D01*
X15255394Y-25062253D01*
X15168872Y-25117857D01*
X15168868Y-25117860D01*
X15074623Y-25226626D01*
X15014834Y-25357545D01*
X14994353Y-25500000D01*
X15014834Y-25642454D01*
X15014834Y-25642455D01*
X15014835Y-25642457D01*
X15049687Y-25718772D01*
X15074623Y-25773373D01*
X15168868Y-25882139D01*
X15168869Y-25882140D01*
X15168872Y-25882143D01*
X15244556Y-25930782D01*
X15255394Y-25937747D01*
X15287695Y-25984270D01*
X15277639Y-26040008D01*
X15255394Y-26062253D01*
X15168872Y-26117857D01*
X15168868Y-26117860D01*
X15074622Y-26226627D01*
X15067312Y-26242635D01*
X15025859Y-26281228D01*
X14969258Y-26279205D01*
X14932688Y-26242635D01*
X14925377Y-26226627D01*
X14831131Y-26117860D01*
X14831129Y-26117859D01*
X14831128Y-26117857D01*
X14763968Y-26074696D01*
X14710054Y-26040047D01*
X14710050Y-26040046D01*
X14571964Y-25999500D01*
X14571961Y-25999500D01*
X14428039Y-25999500D01*
X14428036Y-25999500D01*
X14289949Y-26040046D01*
X14289945Y-26040047D01*
X14168875Y-26117855D01*
X14168868Y-26117860D01*
X14074622Y-26226627D01*
X14067312Y-26242635D01*
X14025859Y-26281228D01*
X13969258Y-26279205D01*
X13932688Y-26242635D01*
X13925377Y-26226627D01*
X13831131Y-26117860D01*
X13831129Y-26117859D01*
X13831128Y-26117857D01*
X13763968Y-26074696D01*
X13710054Y-26040047D01*
X13710050Y-26040046D01*
X13571964Y-25999500D01*
X13571961Y-25999500D01*
X13428039Y-25999500D01*
X13428036Y-25999500D01*
X13289949Y-26040046D01*
X13289945Y-26040047D01*
X13168875Y-26117855D01*
X13168867Y-26117861D01*
X13125229Y-26168223D01*
X13074583Y-26193574D01*
X13020844Y-26175688D01*
X12995493Y-26125042D01*
X12995595Y-26113209D01*
X13000499Y-26058051D01*
X13000499Y-26058048D01*
X13000500Y-26058037D01*
X13000499Y-25941964D01*
X13000498Y-25941962D01*
X13000498Y-25941946D01*
X12989887Y-25822588D01*
X12989885Y-25822577D01*
X12971225Y-25757366D01*
X12933909Y-25626951D01*
X12839698Y-25446593D01*
X12835514Y-25441462D01*
X12711109Y-25288891D01*
X12711108Y-25288890D01*
X12553409Y-25160303D01*
X12550249Y-25158652D01*
X12514713Y-25140090D01*
X12478370Y-25096653D01*
X12483385Y-25040238D01*
X12526823Y-25003894D01*
X12548976Y-25000500D01*
X12571963Y-25000500D01*
X12571964Y-25000499D01*
X12710053Y-24959953D01*
X12831128Y-24882143D01*
X12925377Y-24773373D01*
X12932687Y-24757365D01*
X12974139Y-24718772D01*
X13030740Y-24720793D01*
X13067312Y-24757365D01*
X13074623Y-24773373D01*
X13132932Y-24840666D01*
X13168868Y-24882139D01*
X13168869Y-24882140D01*
X13168872Y-24882143D01*
X13289947Y-24959953D01*
X13396403Y-24991211D01*
X13428035Y-25000499D01*
X13428037Y-25000500D01*
X13428039Y-25000500D01*
X13571963Y-25000500D01*
X13571964Y-25000499D01*
X13710053Y-24959953D01*
X13831128Y-24882143D01*
X13925377Y-24773373D01*
X13932687Y-24757365D01*
X13974139Y-24718772D01*
X14030740Y-24720793D01*
X14067312Y-24757365D01*
X14074623Y-24773373D01*
X14132932Y-24840666D01*
X14168868Y-24882139D01*
X14168869Y-24882140D01*
X14168872Y-24882143D01*
X14289947Y-24959953D01*
X14396403Y-24991211D01*
X14428035Y-25000499D01*
X14428037Y-25000500D01*
X14428039Y-25000500D01*
X14571963Y-25000500D01*
X14571964Y-25000499D01*
X14710053Y-24959953D01*
X14831128Y-24882143D01*
X14925377Y-24773373D01*
X14932687Y-24757365D01*
X14974139Y-24718772D01*
X15030740Y-24720793D01*
G37*
G04 #@! TD.AperFunction*
G04 #@! TA.AperFunction,Conductor*
G36*
X25030740Y-12720793D02*
G01*
X25067312Y-12757365D01*
X25074623Y-12773373D01*
X25132932Y-12840666D01*
X25168868Y-12882139D01*
X25168869Y-12882140D01*
X25168872Y-12882143D01*
X25289947Y-12959953D01*
X25372764Y-12984270D01*
X25428035Y-13000499D01*
X25428037Y-13000500D01*
X25428039Y-13000500D01*
X25571963Y-13000500D01*
X25571964Y-13000499D01*
X25710053Y-12959953D01*
X25831128Y-12882143D01*
X25876350Y-12829952D01*
X25926996Y-12804601D01*
X25980735Y-12822486D01*
X26006087Y-12873132D01*
X26005920Y-12885663D01*
X25994659Y-13000000D01*
X25998599Y-13040008D01*
X26013976Y-13196133D01*
X26071187Y-13384731D01*
X26138990Y-13511579D01*
X26164090Y-13558538D01*
X26289117Y-13710883D01*
X26441462Y-13835910D01*
X26472957Y-13852744D01*
X26486976Y-13860238D01*
X26522907Y-13904019D01*
X26517355Y-13960383D01*
X26473574Y-13996314D01*
X26452093Y-13999500D01*
X26428036Y-13999500D01*
X26289949Y-14040046D01*
X26289945Y-14040047D01*
X26168875Y-14117855D01*
X26168868Y-14117860D01*
X26074622Y-14226627D01*
X26067312Y-14242635D01*
X26025859Y-14281228D01*
X25969258Y-14279205D01*
X25932688Y-14242635D01*
X25925377Y-14226627D01*
X25831131Y-14117860D01*
X25831129Y-14117859D01*
X25831128Y-14117857D01*
X25755410Y-14069196D01*
X25710054Y-14040047D01*
X25710050Y-14040046D01*
X25571964Y-13999500D01*
X25571961Y-13999500D01*
X25428039Y-13999500D01*
X25428036Y-13999500D01*
X25289949Y-14040046D01*
X25289945Y-14040047D01*
X25168875Y-14117855D01*
X25168868Y-14117860D01*
X25074623Y-14226626D01*
X25014834Y-14357545D01*
X24994353Y-14500000D01*
X25014834Y-14642454D01*
X25074623Y-14773373D01*
X25168868Y-14882139D01*
X25168869Y-14882140D01*
X25168872Y-14882143D01*
X25253822Y-14936737D01*
X25255394Y-14937747D01*
X25287695Y-14984270D01*
X25277639Y-15040008D01*
X25255394Y-15062253D01*
X25168872Y-15117857D01*
X25168868Y-15117860D01*
X25074622Y-15226627D01*
X25067312Y-15242635D01*
X25025859Y-15281228D01*
X24969258Y-15279205D01*
X24932688Y-15242635D01*
X24925377Y-15226627D01*
X24831131Y-15117860D01*
X24831129Y-15117859D01*
X24831128Y-15117857D01*
X24774182Y-15081260D01*
X24710054Y-15040047D01*
X24710050Y-15040046D01*
X24571964Y-14999500D01*
X24571961Y-14999500D01*
X24428039Y-14999500D01*
X24428036Y-14999500D01*
X24289949Y-15040046D01*
X24289945Y-15040047D01*
X24168875Y-15117855D01*
X24168868Y-15117860D01*
X24074622Y-15226627D01*
X24067312Y-15242635D01*
X24025859Y-15281228D01*
X23969258Y-15279205D01*
X23932688Y-15242635D01*
X23925377Y-15226627D01*
X23831131Y-15117860D01*
X23831129Y-15117859D01*
X23831128Y-15117857D01*
X23744605Y-15062252D01*
X23712304Y-15015730D01*
X23722360Y-14959993D01*
X23744606Y-14937747D01*
X23746178Y-14936737D01*
X23831128Y-14882143D01*
X23925377Y-14773373D01*
X23985165Y-14642457D01*
X24005647Y-14500000D01*
X23985165Y-14357543D01*
X23925377Y-14226627D01*
X23864229Y-14156058D01*
X23831131Y-14117860D01*
X23831129Y-14117859D01*
X23831128Y-14117857D01*
X23755410Y-14069196D01*
X23710054Y-14040047D01*
X23710050Y-14040046D01*
X23571964Y-13999500D01*
X23571961Y-13999500D01*
X23428039Y-13999500D01*
X23428036Y-13999500D01*
X23289949Y-14040046D01*
X23289945Y-14040047D01*
X23168875Y-14117855D01*
X23168868Y-14117860D01*
X23074623Y-14226626D01*
X23014834Y-14357545D01*
X22994353Y-14500000D01*
X23014834Y-14642454D01*
X23074623Y-14773373D01*
X23168868Y-14882139D01*
X23168869Y-14882140D01*
X23168872Y-14882143D01*
X23253822Y-14936737D01*
X23255394Y-14937747D01*
X23287695Y-14984270D01*
X23277639Y-15040008D01*
X23255394Y-15062253D01*
X23168872Y-15117857D01*
X23168868Y-15117860D01*
X23074623Y-15226626D01*
X23014834Y-15357545D01*
X22994353Y-15500000D01*
X23014834Y-15642454D01*
X23074623Y-15773373D01*
X23168868Y-15882139D01*
X23168869Y-15882140D01*
X23168872Y-15882143D01*
X23289947Y-15959953D01*
X23372764Y-15984270D01*
X23428035Y-16000499D01*
X23428037Y-16000500D01*
X23428039Y-16000500D01*
X23571963Y-16000500D01*
X23571964Y-16000499D01*
X23710053Y-15959953D01*
X23831128Y-15882143D01*
X23925377Y-15773373D01*
X23932687Y-15757365D01*
X23974139Y-15718772D01*
X24030740Y-15720793D01*
X24067312Y-15757365D01*
X24074623Y-15773373D01*
X24104891Y-15808304D01*
X24168868Y-15882139D01*
X24168869Y-15882140D01*
X24168872Y-15882143D01*
X24255394Y-15937747D01*
X24287695Y-15984270D01*
X24277639Y-16040008D01*
X24255394Y-16062253D01*
X24168872Y-16117857D01*
X24168868Y-16117860D01*
X24074623Y-16226626D01*
X24014834Y-16357545D01*
X23994353Y-16500000D01*
X24014834Y-16642454D01*
X24074623Y-16773373D01*
X24168868Y-16882139D01*
X24168869Y-16882140D01*
X24168872Y-16882143D01*
X24255394Y-16937747D01*
X24287695Y-16984270D01*
X24277639Y-17040008D01*
X24255394Y-17062253D01*
X24168872Y-17117857D01*
X24168868Y-17117860D01*
X24074623Y-17226626D01*
X24014834Y-17357545D01*
X23994353Y-17500000D01*
X24014834Y-17642454D01*
X24014834Y-17642455D01*
X24014835Y-17642457D01*
X24038761Y-17694847D01*
X24074623Y-17773373D01*
X24168868Y-17882139D01*
X24168869Y-17882140D01*
X24168872Y-17882143D01*
X24255394Y-17937747D01*
X24287695Y-17984270D01*
X24277639Y-18040008D01*
X24255394Y-18062252D01*
X24168875Y-18117855D01*
X24168872Y-18117857D01*
X24168868Y-18117860D01*
X24074623Y-18226626D01*
X24014834Y-18357545D01*
X23994353Y-18500000D01*
X24014834Y-18642454D01*
X24074623Y-18773373D01*
X24168868Y-18882139D01*
X24168869Y-18882140D01*
X24168872Y-18882143D01*
X24255394Y-18937747D01*
X24287695Y-18984270D01*
X24277639Y-19040008D01*
X24255394Y-19062253D01*
X24168872Y-19117857D01*
X24168868Y-19117860D01*
X24074623Y-19226626D01*
X24014834Y-19357545D01*
X23994353Y-19500000D01*
X24014834Y-19642454D01*
X24014834Y-19642455D01*
X24014835Y-19642457D01*
X24015514Y-19643943D01*
X24074623Y-19773373D01*
X24168868Y-19882139D01*
X24168869Y-19882140D01*
X24168872Y-19882143D01*
X24218622Y-19914115D01*
X24255394Y-19937747D01*
X24287695Y-19984270D01*
X24277639Y-20040008D01*
X24255394Y-20062253D01*
X24168872Y-20117857D01*
X24168868Y-20117860D01*
X24074623Y-20226626D01*
X24014834Y-20357545D01*
X23994353Y-20500000D01*
X24014834Y-20642454D01*
X24074623Y-20773373D01*
X24168868Y-20882139D01*
X24168869Y-20882140D01*
X24168872Y-20882143D01*
X24255394Y-20937747D01*
X24287695Y-20984270D01*
X24277639Y-21040008D01*
X24255394Y-21062252D01*
X24168875Y-21117855D01*
X24168872Y-21117857D01*
X24168868Y-21117860D01*
X24074623Y-21226626D01*
X24014834Y-21357545D01*
X23994353Y-21500000D01*
X24014834Y-21642454D01*
X24074623Y-21773373D01*
X24168868Y-21882139D01*
X24168869Y-21882140D01*
X24168872Y-21882143D01*
X24255394Y-21937747D01*
X24287695Y-21984270D01*
X24277639Y-22040008D01*
X24255394Y-22062253D01*
X24168872Y-22117857D01*
X24168868Y-22117860D01*
X24074623Y-22226626D01*
X24014834Y-22357545D01*
X23994353Y-22500000D01*
X24014834Y-22642454D01*
X24074623Y-22773373D01*
X24168868Y-22882139D01*
X24168869Y-22882140D01*
X24168872Y-22882143D01*
X24255394Y-22937747D01*
X24287695Y-22984270D01*
X24277639Y-23040008D01*
X24255394Y-23062253D01*
X24168872Y-23117857D01*
X24168868Y-23117860D01*
X24074622Y-23226627D01*
X24067312Y-23242635D01*
X24025859Y-23281228D01*
X23969258Y-23279205D01*
X23932688Y-23242635D01*
X23925377Y-23226627D01*
X23831131Y-23117860D01*
X23831129Y-23117859D01*
X23831128Y-23117857D01*
X23774182Y-23081260D01*
X23710054Y-23040047D01*
X23710050Y-23040046D01*
X23571964Y-22999500D01*
X23571961Y-22999500D01*
X23428039Y-22999500D01*
X23428036Y-22999500D01*
X23289949Y-23040046D01*
X23289945Y-23040047D01*
X23168875Y-23117855D01*
X23168868Y-23117860D01*
X23074623Y-23226626D01*
X23014834Y-23357545D01*
X22994353Y-23500000D01*
X23014834Y-23642454D01*
X23074623Y-23773373D01*
X23168868Y-23882139D01*
X23168869Y-23882140D01*
X23168872Y-23882143D01*
X23255394Y-23937747D01*
X23287695Y-23984270D01*
X23277639Y-24040008D01*
X23255394Y-24062253D01*
X23168872Y-24117857D01*
X23168868Y-24117860D01*
X23074623Y-24226626D01*
X23014834Y-24357545D01*
X22994353Y-24500000D01*
X23014834Y-24642454D01*
X23074623Y-24773373D01*
X23168868Y-24882139D01*
X23168869Y-24882140D01*
X23168872Y-24882143D01*
X23289947Y-24959953D01*
X23396403Y-24991211D01*
X23428035Y-25000499D01*
X23428037Y-25000500D01*
X23428039Y-25000500D01*
X23571963Y-25000500D01*
X23571964Y-25000499D01*
X23710053Y-24959953D01*
X23831128Y-24882143D01*
X23925377Y-24773373D01*
X23932687Y-24757365D01*
X23974139Y-24718772D01*
X24030740Y-24720793D01*
X24067312Y-24757365D01*
X24074623Y-24773373D01*
X24132932Y-24840666D01*
X24168868Y-24882139D01*
X24168869Y-24882140D01*
X24168872Y-24882143D01*
X24251627Y-24935326D01*
X24255394Y-24937747D01*
X24287695Y-24984270D01*
X24277639Y-25040008D01*
X24255394Y-25062253D01*
X24168872Y-25117857D01*
X24168868Y-25117860D01*
X24074623Y-25226626D01*
X24014834Y-25357545D01*
X23994353Y-25500000D01*
X24014834Y-25642454D01*
X24014834Y-25642455D01*
X24014835Y-25642457D01*
X24049687Y-25718772D01*
X24074623Y-25773373D01*
X24168868Y-25882139D01*
X24168869Y-25882140D01*
X24168872Y-25882143D01*
X24244556Y-25930782D01*
X24255394Y-25937747D01*
X24287695Y-25984270D01*
X24277639Y-26040008D01*
X24255394Y-26062253D01*
X24168872Y-26117857D01*
X24168868Y-26117860D01*
X24074622Y-26226627D01*
X24067312Y-26242635D01*
X24025859Y-26281228D01*
X23969258Y-26279205D01*
X23932688Y-26242635D01*
X23925377Y-26226627D01*
X23831131Y-26117860D01*
X23831129Y-26117859D01*
X23831128Y-26117857D01*
X23763968Y-26074696D01*
X23710054Y-26040047D01*
X23710050Y-26040046D01*
X23571964Y-25999500D01*
X23571961Y-25999500D01*
X23428039Y-25999500D01*
X23428036Y-25999500D01*
X23289949Y-26040046D01*
X23289945Y-26040047D01*
X23168875Y-26117855D01*
X23168868Y-26117860D01*
X23074622Y-26226627D01*
X23067312Y-26242635D01*
X23025859Y-26281228D01*
X22969258Y-26279205D01*
X22932688Y-26242635D01*
X22925377Y-26226627D01*
X22831131Y-26117860D01*
X22831129Y-26117859D01*
X22831128Y-26117857D01*
X22744605Y-26062252D01*
X22712304Y-26015730D01*
X22722360Y-25959993D01*
X22744606Y-25937747D01*
X22755444Y-25930782D01*
X22831128Y-25882143D01*
X22925377Y-25773373D01*
X22985165Y-25642457D01*
X23005647Y-25500000D01*
X22985165Y-25357543D01*
X22925377Y-25226627D01*
X22871188Y-25164089D01*
X22831131Y-25117860D01*
X22831129Y-25117859D01*
X22831128Y-25117857D01*
X22763663Y-25074500D01*
X22710054Y-25040047D01*
X22710050Y-25040046D01*
X22571964Y-24999500D01*
X22571961Y-24999500D01*
X22428039Y-24999500D01*
X22428036Y-24999500D01*
X22289949Y-25040046D01*
X22289945Y-25040047D01*
X22168875Y-25117855D01*
X22168868Y-25117860D01*
X22074623Y-25226626D01*
X22014834Y-25357545D01*
X21994353Y-25500000D01*
X22014834Y-25642454D01*
X22014834Y-25642455D01*
X22014835Y-25642457D01*
X22049687Y-25718772D01*
X22074623Y-25773373D01*
X22168868Y-25882139D01*
X22168869Y-25882140D01*
X22168872Y-25882143D01*
X22244556Y-25930782D01*
X22255394Y-25937747D01*
X22287695Y-25984270D01*
X22277639Y-26040008D01*
X22255394Y-26062253D01*
X22168872Y-26117857D01*
X22168868Y-26117860D01*
X22074622Y-26226627D01*
X22067312Y-26242635D01*
X22025859Y-26281228D01*
X21969258Y-26279205D01*
X21932688Y-26242635D01*
X21925377Y-26226627D01*
X21831131Y-26117860D01*
X21831129Y-26117859D01*
X21831128Y-26117857D01*
X21763968Y-26074696D01*
X21710054Y-26040047D01*
X21710050Y-26040046D01*
X21571964Y-25999500D01*
X21571961Y-25999500D01*
X21428039Y-25999500D01*
X21428036Y-25999500D01*
X21289949Y-26040046D01*
X21289945Y-26040047D01*
X21168875Y-26117855D01*
X21168868Y-26117860D01*
X21074622Y-26226627D01*
X21067312Y-26242635D01*
X21025859Y-26281228D01*
X20969258Y-26279205D01*
X20932688Y-26242635D01*
X20925377Y-26226627D01*
X20831131Y-26117860D01*
X20831129Y-26117859D01*
X20831128Y-26117857D01*
X20763968Y-26074696D01*
X20710054Y-26040047D01*
X20710050Y-26040046D01*
X20571964Y-25999500D01*
X20571961Y-25999500D01*
X20428039Y-25999500D01*
X20428036Y-25999500D01*
X20289949Y-26040046D01*
X20289945Y-26040047D01*
X20168875Y-26117855D01*
X20168868Y-26117860D01*
X20074622Y-26226627D01*
X20067312Y-26242635D01*
X20025859Y-26281228D01*
X19969258Y-26279205D01*
X19932688Y-26242635D01*
X19925377Y-26226627D01*
X19831131Y-26117860D01*
X19831129Y-26117859D01*
X19831128Y-26117857D01*
X19744605Y-26062252D01*
X19712304Y-26015730D01*
X19722360Y-25959993D01*
X19744606Y-25937747D01*
X19755444Y-25930782D01*
X19831128Y-25882143D01*
X19925377Y-25773373D01*
X19985165Y-25642457D01*
X20005647Y-25500000D01*
X19985165Y-25357543D01*
X19925377Y-25226627D01*
X19871188Y-25164089D01*
X19831131Y-25117860D01*
X19831129Y-25117859D01*
X19831128Y-25117857D01*
X19763663Y-25074500D01*
X19710054Y-25040047D01*
X19710050Y-25040046D01*
X19571964Y-24999500D01*
X19571961Y-24999500D01*
X19428039Y-24999500D01*
X19428036Y-24999500D01*
X19289949Y-25040046D01*
X19289945Y-25040047D01*
X19168875Y-25117855D01*
X19168868Y-25117860D01*
X19074623Y-25226626D01*
X19014834Y-25357545D01*
X18994353Y-25500000D01*
X19014834Y-25642454D01*
X19014834Y-25642455D01*
X19014835Y-25642457D01*
X19049687Y-25718772D01*
X19074623Y-25773373D01*
X19168868Y-25882139D01*
X19168869Y-25882140D01*
X19168872Y-25882143D01*
X19244556Y-25930782D01*
X19255394Y-25937747D01*
X19287695Y-25984270D01*
X19277639Y-26040008D01*
X19255394Y-26062253D01*
X19168872Y-26117857D01*
X19168868Y-26117860D01*
X19074622Y-26226627D01*
X19067312Y-26242635D01*
X19025859Y-26281228D01*
X18969258Y-26279205D01*
X18932688Y-26242635D01*
X18925377Y-26226627D01*
X18831131Y-26117860D01*
X18831129Y-26117859D01*
X18831128Y-26117857D01*
X18763968Y-26074696D01*
X18710054Y-26040047D01*
X18710050Y-26040046D01*
X18571964Y-25999500D01*
X18571961Y-25999500D01*
X18428039Y-25999500D01*
X18428036Y-25999500D01*
X18289949Y-26040046D01*
X18289945Y-26040047D01*
X18168875Y-26117855D01*
X18168868Y-26117860D01*
X18074622Y-26226627D01*
X18067312Y-26242635D01*
X18025859Y-26281228D01*
X17969258Y-26279205D01*
X17932688Y-26242635D01*
X17925377Y-26226627D01*
X17831131Y-26117860D01*
X17831129Y-26117859D01*
X17831128Y-26117857D01*
X17763968Y-26074696D01*
X17710054Y-26040047D01*
X17710050Y-26040046D01*
X17571964Y-25999500D01*
X17571961Y-25999500D01*
X17428039Y-25999500D01*
X17428036Y-25999500D01*
X17289949Y-26040046D01*
X17289945Y-26040047D01*
X17168875Y-26117855D01*
X17168868Y-26117860D01*
X17074622Y-26226627D01*
X17067312Y-26242635D01*
X17025859Y-26281228D01*
X16969258Y-26279205D01*
X16932688Y-26242635D01*
X16925377Y-26226627D01*
X16831131Y-26117860D01*
X16831129Y-26117859D01*
X16831128Y-26117857D01*
X16744605Y-26062252D01*
X16712304Y-26015730D01*
X16722360Y-25959993D01*
X16744606Y-25937747D01*
X16755444Y-25930782D01*
X16831128Y-25882143D01*
X16925377Y-25773373D01*
X16985165Y-25642457D01*
X17005647Y-25500000D01*
X16985165Y-25357543D01*
X16925377Y-25226627D01*
X16871188Y-25164089D01*
X16831131Y-25117860D01*
X16831129Y-25117859D01*
X16831128Y-25117857D01*
X16744605Y-25062252D01*
X16712304Y-25015730D01*
X16722360Y-24959993D01*
X16744606Y-24937747D01*
X16748373Y-24935326D01*
X16831128Y-24882143D01*
X16925377Y-24773373D01*
X16932687Y-24757365D01*
X16974139Y-24718772D01*
X17030740Y-24720793D01*
X17067312Y-24757365D01*
X17074623Y-24773373D01*
X17132932Y-24840666D01*
X17168868Y-24882139D01*
X17168869Y-24882140D01*
X17168872Y-24882143D01*
X17289947Y-24959953D01*
X17396403Y-24991211D01*
X17428035Y-25000499D01*
X17428037Y-25000500D01*
X17428039Y-25000500D01*
X17571963Y-25000500D01*
X17571964Y-25000499D01*
X17710053Y-24959953D01*
X17831128Y-24882143D01*
X17925377Y-24773373D01*
X17932687Y-24757365D01*
X17974139Y-24718772D01*
X18030740Y-24720793D01*
X18067312Y-24757365D01*
X18074623Y-24773373D01*
X18132932Y-24840666D01*
X18168868Y-24882139D01*
X18168869Y-24882140D01*
X18168872Y-24882143D01*
X18289947Y-24959953D01*
X18396403Y-24991211D01*
X18428035Y-25000499D01*
X18428037Y-25000500D01*
X18428039Y-25000500D01*
X18571963Y-25000500D01*
X18571964Y-25000499D01*
X18710053Y-24959953D01*
X18831128Y-24882143D01*
X18925377Y-24773373D01*
X18985165Y-24642457D01*
X19005647Y-24500000D01*
X19994353Y-24500000D01*
X20014834Y-24642454D01*
X20074623Y-24773373D01*
X20168868Y-24882139D01*
X20168869Y-24882140D01*
X20168872Y-24882143D01*
X20289947Y-24959953D01*
X20396403Y-24991211D01*
X20428035Y-25000499D01*
X20428037Y-25000500D01*
X20428039Y-25000500D01*
X20571963Y-25000500D01*
X20571964Y-25000499D01*
X20710053Y-24959953D01*
X20831128Y-24882143D01*
X20925377Y-24773373D01*
X20932687Y-24757365D01*
X20974139Y-24718772D01*
X21030740Y-24720793D01*
X21067312Y-24757365D01*
X21074623Y-24773373D01*
X21132932Y-24840666D01*
X21168868Y-24882139D01*
X21168869Y-24882140D01*
X21168872Y-24882143D01*
X21289947Y-24959953D01*
X21396403Y-24991211D01*
X21428035Y-25000499D01*
X21428037Y-25000500D01*
X21428039Y-25000500D01*
X21571963Y-25000500D01*
X21571964Y-25000499D01*
X21710053Y-24959953D01*
X21831128Y-24882143D01*
X21925377Y-24773373D01*
X21985165Y-24642457D01*
X22005647Y-24500000D01*
X21985165Y-24357543D01*
X21925377Y-24226627D01*
X21831128Y-24117857D01*
X21744605Y-24062252D01*
X21712304Y-24015730D01*
X21722360Y-23959993D01*
X21744606Y-23937747D01*
X21831128Y-23882143D01*
X21925377Y-23773373D01*
X21985165Y-23642457D01*
X22005647Y-23500000D01*
X21985165Y-23357543D01*
X21925377Y-23226627D01*
X21831128Y-23117857D01*
X21774182Y-23081260D01*
X21710054Y-23040047D01*
X21710050Y-23040046D01*
X21571964Y-22999500D01*
X21571961Y-22999500D01*
X21428039Y-22999500D01*
X21428036Y-22999500D01*
X21289949Y-23040046D01*
X21289945Y-23040047D01*
X21168875Y-23117855D01*
X21168868Y-23117860D01*
X21074623Y-23226626D01*
X21014834Y-23357545D01*
X20994353Y-23500000D01*
X21014834Y-23642454D01*
X21074623Y-23773373D01*
X21168868Y-23882139D01*
X21168869Y-23882140D01*
X21168872Y-23882143D01*
X21255394Y-23937747D01*
X21287695Y-23984270D01*
X21277639Y-24040008D01*
X21255394Y-24062253D01*
X21168872Y-24117857D01*
X21168868Y-24117860D01*
X21074622Y-24226627D01*
X21067312Y-24242635D01*
X21025859Y-24281228D01*
X20969258Y-24279205D01*
X20932688Y-24242635D01*
X20925377Y-24226627D01*
X20831131Y-24117860D01*
X20831129Y-24117859D01*
X20831128Y-24117857D01*
X20774182Y-24081260D01*
X20710054Y-24040047D01*
X20710050Y-24040046D01*
X20571964Y-23999500D01*
X20571961Y-23999500D01*
X20428039Y-23999500D01*
X20428036Y-23999500D01*
X20289949Y-24040046D01*
X20289945Y-24040047D01*
X20168875Y-24117855D01*
X20168868Y-24117860D01*
X20074623Y-24226626D01*
X20014834Y-24357545D01*
X19994353Y-24500000D01*
X19005647Y-24500000D01*
X18985165Y-24357543D01*
X18925377Y-24226627D01*
X18831128Y-24117857D01*
X18744605Y-24062252D01*
X18712304Y-24015730D01*
X18722360Y-23959993D01*
X18744606Y-23937747D01*
X18831128Y-23882143D01*
X18925377Y-23773373D01*
X18985165Y-23642457D01*
X19005647Y-23500000D01*
X18985165Y-23357543D01*
X18925377Y-23226627D01*
X18831128Y-23117857D01*
X18774182Y-23081260D01*
X18710054Y-23040047D01*
X18710050Y-23040046D01*
X18571964Y-22999500D01*
X18571961Y-22999500D01*
X18428039Y-22999500D01*
X18428036Y-22999500D01*
X18289949Y-23040046D01*
X18289945Y-23040047D01*
X18168875Y-23117855D01*
X18168868Y-23117860D01*
X18074623Y-23226626D01*
X18014834Y-23357545D01*
X17994353Y-23500000D01*
X18014834Y-23642454D01*
X18074623Y-23773373D01*
X18168868Y-23882139D01*
X18168869Y-23882140D01*
X18168872Y-23882143D01*
X18255394Y-23937747D01*
X18287695Y-23984270D01*
X18277639Y-24040008D01*
X18255394Y-24062253D01*
X18168872Y-24117857D01*
X18168868Y-24117860D01*
X18074622Y-24226627D01*
X18067312Y-24242635D01*
X18025859Y-24281228D01*
X17969258Y-24279205D01*
X17932688Y-24242635D01*
X17925377Y-24226627D01*
X17831131Y-24117860D01*
X17831129Y-24117859D01*
X17831128Y-24117857D01*
X17774182Y-24081260D01*
X17710054Y-24040047D01*
X17710050Y-24040046D01*
X17571964Y-23999500D01*
X17571961Y-23999500D01*
X17428039Y-23999500D01*
X17428036Y-23999500D01*
X17289949Y-24040046D01*
X17289945Y-24040047D01*
X17168875Y-24117855D01*
X17168868Y-24117860D01*
X17074622Y-24226627D01*
X17067312Y-24242635D01*
X17025859Y-24281228D01*
X16969258Y-24279205D01*
X16932688Y-24242635D01*
X16925377Y-24226627D01*
X16831131Y-24117860D01*
X16831129Y-24117859D01*
X16831128Y-24117857D01*
X16744605Y-24062252D01*
X16712304Y-24015730D01*
X16722360Y-23959993D01*
X16744606Y-23937747D01*
X16831128Y-23882143D01*
X16925377Y-23773373D01*
X16985165Y-23642457D01*
X17005647Y-23500000D01*
X16985165Y-23357543D01*
X16925377Y-23226627D01*
X16831128Y-23117857D01*
X16774182Y-23081260D01*
X16710054Y-23040047D01*
X16710050Y-23040046D01*
X16571964Y-22999500D01*
X16571961Y-22999500D01*
X16428039Y-22999500D01*
X16428036Y-22999500D01*
X16289949Y-23040046D01*
X16289945Y-23040047D01*
X16168875Y-23117855D01*
X16168868Y-23117860D01*
X16074622Y-23226627D01*
X16067312Y-23242635D01*
X16025859Y-23281228D01*
X15969258Y-23279205D01*
X15932688Y-23242635D01*
X15925377Y-23226627D01*
X15831131Y-23117860D01*
X15831129Y-23117859D01*
X15831128Y-23117857D01*
X15774182Y-23081260D01*
X15710054Y-23040047D01*
X15710050Y-23040046D01*
X15571964Y-22999500D01*
X15571961Y-22999500D01*
X15428039Y-22999500D01*
X15428036Y-22999500D01*
X15289949Y-23040046D01*
X15289945Y-23040047D01*
X15168875Y-23117855D01*
X15168868Y-23117860D01*
X15074622Y-23226627D01*
X15067312Y-23242635D01*
X15025859Y-23281228D01*
X14969258Y-23279205D01*
X14932688Y-23242635D01*
X14925377Y-23226627D01*
X14831131Y-23117860D01*
X14831129Y-23117859D01*
X14831128Y-23117857D01*
X14774182Y-23081260D01*
X14710054Y-23040047D01*
X14710050Y-23040046D01*
X14571964Y-22999500D01*
X14571961Y-22999500D01*
X14428039Y-22999500D01*
X14428036Y-22999500D01*
X14289949Y-23040046D01*
X14289945Y-23040047D01*
X14168875Y-23117855D01*
X14168868Y-23117860D01*
X14074622Y-23226627D01*
X14067312Y-23242635D01*
X14025859Y-23281228D01*
X13969258Y-23279205D01*
X13932688Y-23242635D01*
X13925377Y-23226627D01*
X13831131Y-23117860D01*
X13831129Y-23117859D01*
X13831128Y-23117857D01*
X13744605Y-23062252D01*
X13712304Y-23015730D01*
X13722360Y-22959993D01*
X13744606Y-22937747D01*
X13831128Y-22882143D01*
X13925377Y-22773373D01*
X13985165Y-22642457D01*
X14005647Y-22500000D01*
X13985165Y-22357543D01*
X13925377Y-22226627D01*
X13837581Y-22125304D01*
X13831131Y-22117860D01*
X13831129Y-22117859D01*
X13831128Y-22117857D01*
X13744605Y-22062252D01*
X13712304Y-22015730D01*
X13722360Y-21959993D01*
X13744606Y-21937747D01*
X13831128Y-21882143D01*
X13925377Y-21773373D01*
X13925378Y-21773371D01*
X13928239Y-21768920D01*
X13930646Y-21770467D01*
X13965214Y-21738251D01*
X14021816Y-21740245D01*
X14055194Y-21770572D01*
X14083497Y-21819594D01*
X14180406Y-21916503D01*
X14299095Y-21985028D01*
X14299096Y-21985028D01*
X14299098Y-21985029D01*
X14354970Y-22000000D01*
X14431472Y-22020499D01*
X14431473Y-22020500D01*
X14431475Y-22020500D01*
X15488527Y-22020500D01*
X15488527Y-22020499D01*
X15565029Y-22000000D01*
X22094508Y-22000000D01*
X22114353Y-22125301D01*
X22114353Y-22125302D01*
X22114354Y-22125304D01*
X22171950Y-22238342D01*
X22261658Y-22328050D01*
X22374696Y-22385646D01*
X22500000Y-22405492D01*
X22625304Y-22385646D01*
X22738342Y-22328050D01*
X22828050Y-22238342D01*
X22885646Y-22125304D01*
X22905492Y-22000000D01*
X22885646Y-21874696D01*
X22828050Y-21761658D01*
X22738342Y-21671950D01*
X22625304Y-21614354D01*
X22625302Y-21614353D01*
X22625301Y-21614353D01*
X22500000Y-21594508D01*
X22374698Y-21614353D01*
X22261656Y-21671951D01*
X22171951Y-21761656D01*
X22114353Y-21874698D01*
X22094508Y-22000000D01*
X15565029Y-22000000D01*
X15620905Y-21985028D01*
X15739594Y-21916503D01*
X15836503Y-21819594D01*
X15905028Y-21700905D01*
X15940499Y-21568527D01*
X15940500Y-21568527D01*
X15940500Y-21431473D01*
X15940499Y-21431472D01*
X15905029Y-21299098D01*
X15905027Y-21299093D01*
X15872431Y-21242635D01*
X15836503Y-21180406D01*
X15739594Y-21083497D01*
X15739592Y-21083496D01*
X15620906Y-21014972D01*
X15620901Y-21014970D01*
X15488527Y-20979500D01*
X15488525Y-20979500D01*
X14908805Y-20979500D01*
X14856479Y-20957826D01*
X14834805Y-20905500D01*
X14852879Y-20857041D01*
X14863109Y-20845233D01*
X14925377Y-20773373D01*
X14985165Y-20642457D01*
X15005647Y-20500000D01*
X14985165Y-20357543D01*
X14925377Y-20226627D01*
X14831128Y-20117857D01*
X14744605Y-20062252D01*
X14712304Y-20015730D01*
X14722360Y-19959993D01*
X14744606Y-19937747D01*
X14831128Y-19882143D01*
X14925377Y-19773373D01*
X14985165Y-19642457D01*
X15005647Y-19500000D01*
X14985165Y-19357543D01*
X14925377Y-19226627D01*
X14831128Y-19117857D01*
X14774182Y-19081260D01*
X14710054Y-19040047D01*
X14710050Y-19040046D01*
X14571964Y-18999500D01*
X14571961Y-18999500D01*
X14428039Y-18999500D01*
X14428036Y-18999500D01*
X14289949Y-19040046D01*
X14289945Y-19040047D01*
X14168875Y-19117855D01*
X14168868Y-19117860D01*
X14074622Y-19226627D01*
X14067312Y-19242635D01*
X14025859Y-19281228D01*
X13969258Y-19279205D01*
X13932688Y-19242635D01*
X13925377Y-19226627D01*
X13831131Y-19117860D01*
X13831129Y-19117859D01*
X13831128Y-19117857D01*
X13744605Y-19062252D01*
X13712304Y-19015730D01*
X13722360Y-18959993D01*
X13744606Y-18937747D01*
X13831128Y-18882143D01*
X13925377Y-18773373D01*
X13985165Y-18642457D01*
X14005647Y-18500000D01*
X13985165Y-18357543D01*
X13925377Y-18226627D01*
X13864229Y-18156058D01*
X13831131Y-18117860D01*
X13831129Y-18117859D01*
X13831128Y-18117857D01*
X13744605Y-18062252D01*
X13712304Y-18015730D01*
X13722360Y-17959993D01*
X13744606Y-17937747D01*
X13831128Y-17882143D01*
X13925377Y-17773373D01*
X13985165Y-17642457D01*
X14005647Y-17500000D01*
X13985165Y-17357543D01*
X13925377Y-17226627D01*
X13893882Y-17190280D01*
X13831131Y-17117860D01*
X13831129Y-17117859D01*
X13831128Y-17117857D01*
X13744605Y-17062252D01*
X13712304Y-17015730D01*
X13722360Y-16959993D01*
X13744606Y-16937747D01*
X13831128Y-16882143D01*
X13925377Y-16773373D01*
X13932687Y-16757365D01*
X13974139Y-16718772D01*
X14030740Y-16720793D01*
X14067312Y-16757365D01*
X14074623Y-16773373D01*
X14095247Y-16797174D01*
X14168868Y-16882139D01*
X14168869Y-16882140D01*
X14168872Y-16882143D01*
X14289947Y-16959953D01*
X14372764Y-16984270D01*
X14428035Y-17000499D01*
X14428037Y-17000500D01*
X14428039Y-17000500D01*
X14571963Y-17000500D01*
X14571964Y-17000499D01*
X14710053Y-16959953D01*
X14831128Y-16882143D01*
X14925377Y-16773373D01*
X14985165Y-16642457D01*
X15005647Y-16500000D01*
X14985523Y-16360031D01*
X14999530Y-16305153D01*
X15048239Y-16276253D01*
X15058770Y-16275500D01*
X16455233Y-16275500D01*
X16507559Y-16297174D01*
X17648166Y-17437782D01*
X17669840Y-17490108D01*
X17669196Y-17498294D01*
X17669196Y-17499999D01*
X17690280Y-17633126D01*
X17751471Y-17753219D01*
X17751472Y-17753220D01*
X17846780Y-17848528D01*
X17966873Y-17909718D01*
X17966873Y-17909719D01*
X17985075Y-17912601D01*
X18100000Y-17930804D01*
X18233126Y-17909719D01*
X18353220Y-17848528D01*
X18448528Y-17753220D01*
X18509719Y-17633126D01*
X18530804Y-17500000D01*
X18509719Y-17366874D01*
X18509719Y-17366873D01*
X18448528Y-17246780D01*
X18353219Y-17151471D01*
X18233126Y-17090281D01*
X18233126Y-17090280D01*
X18100000Y-17069196D01*
X18094177Y-17069196D01*
X18094177Y-17067128D01*
X18046605Y-17055702D01*
X18037782Y-17048166D01*
X16898706Y-15909091D01*
X16877032Y-15856765D01*
X16895105Y-15808307D01*
X16925377Y-15773373D01*
X16985165Y-15642457D01*
X17005647Y-15500000D01*
X16985165Y-15357543D01*
X16925377Y-15226627D01*
X16831128Y-15117857D01*
X16744605Y-15062252D01*
X16712304Y-15015730D01*
X16722360Y-14959993D01*
X16744606Y-14937747D01*
X16746178Y-14936737D01*
X16831128Y-14882143D01*
X16925377Y-14773373D01*
X16932687Y-14757365D01*
X16974139Y-14718772D01*
X17030740Y-14720793D01*
X17067312Y-14757365D01*
X17074623Y-14773373D01*
X17132932Y-14840666D01*
X17168868Y-14882139D01*
X17168869Y-14882140D01*
X17168872Y-14882143D01*
X17289947Y-14959953D01*
X17372764Y-14984270D01*
X17428035Y-15000499D01*
X17428037Y-15000500D01*
X17428039Y-15000500D01*
X17571963Y-15000500D01*
X17571964Y-15000499D01*
X17710053Y-14959953D01*
X17831128Y-14882143D01*
X17925377Y-14773373D01*
X17932687Y-14757365D01*
X17974139Y-14718772D01*
X18030740Y-14720793D01*
X18067312Y-14757365D01*
X18074623Y-14773373D01*
X18132932Y-14840666D01*
X18168868Y-14882139D01*
X18168869Y-14882140D01*
X18168872Y-14882143D01*
X18253822Y-14936737D01*
X18255394Y-14937747D01*
X18287695Y-14984270D01*
X18277639Y-15040008D01*
X18255394Y-15062253D01*
X18168872Y-15117857D01*
X18168868Y-15117860D01*
X18074623Y-15226626D01*
X18014834Y-15357545D01*
X17994353Y-15500000D01*
X18014834Y-15642454D01*
X18074623Y-15773373D01*
X18168868Y-15882139D01*
X18168869Y-15882140D01*
X18168872Y-15882143D01*
X18289947Y-15959953D01*
X18372764Y-15984270D01*
X18428035Y-16000499D01*
X18428037Y-16000500D01*
X18428039Y-16000500D01*
X18571963Y-16000500D01*
X18571964Y-16000499D01*
X18710053Y-15959953D01*
X18831128Y-15882143D01*
X18925377Y-15773373D01*
X18985165Y-15642457D01*
X19005647Y-15500000D01*
X18985165Y-15357543D01*
X18925377Y-15226627D01*
X18831128Y-15117857D01*
X18744605Y-15062252D01*
X18712304Y-15015730D01*
X18722360Y-14959993D01*
X18744606Y-14937747D01*
X18746178Y-14936737D01*
X18831128Y-14882143D01*
X18925377Y-14773373D01*
X18985165Y-14642457D01*
X19005647Y-14500000D01*
X19994353Y-14500000D01*
X20014834Y-14642454D01*
X20074623Y-14773373D01*
X20168868Y-14882139D01*
X20168869Y-14882140D01*
X20168872Y-14882143D01*
X20289947Y-14959953D01*
X20372764Y-14984270D01*
X20428035Y-15000499D01*
X20428037Y-15000500D01*
X20428039Y-15000500D01*
X20571963Y-15000500D01*
X20571964Y-15000499D01*
X20710053Y-14959953D01*
X20831128Y-14882143D01*
X20925377Y-14773373D01*
X20932687Y-14757365D01*
X20974139Y-14718772D01*
X21030740Y-14720793D01*
X21067312Y-14757365D01*
X21074623Y-14773373D01*
X21132932Y-14840666D01*
X21168868Y-14882139D01*
X21168869Y-14882140D01*
X21168872Y-14882143D01*
X21253822Y-14936737D01*
X21255394Y-14937747D01*
X21287695Y-14984270D01*
X21277639Y-15040008D01*
X21255394Y-15062253D01*
X21168872Y-15117857D01*
X21168868Y-15117860D01*
X21074623Y-15226626D01*
X21014834Y-15357545D01*
X20994353Y-15500000D01*
X21014834Y-15642454D01*
X21074623Y-15773373D01*
X21168868Y-15882139D01*
X21168869Y-15882140D01*
X21168872Y-15882143D01*
X21289947Y-15959953D01*
X21372764Y-15984270D01*
X21428035Y-16000499D01*
X21428037Y-16000500D01*
X21428039Y-16000500D01*
X21571963Y-16000500D01*
X21571964Y-16000499D01*
X21710053Y-15959953D01*
X21831128Y-15882143D01*
X21925377Y-15773373D01*
X21985165Y-15642457D01*
X22005647Y-15500000D01*
X21985165Y-15357543D01*
X21925377Y-15226627D01*
X21831128Y-15117857D01*
X21744605Y-15062252D01*
X21712304Y-15015730D01*
X21722360Y-14959993D01*
X21744606Y-14937747D01*
X21746178Y-14936737D01*
X21831128Y-14882143D01*
X21925377Y-14773373D01*
X21985165Y-14642457D01*
X22005647Y-14500000D01*
X21985165Y-14357543D01*
X21925377Y-14226627D01*
X21864229Y-14156058D01*
X21831131Y-14117860D01*
X21831129Y-14117859D01*
X21831128Y-14117857D01*
X21755410Y-14069196D01*
X21710054Y-14040047D01*
X21710050Y-14040046D01*
X21571964Y-13999500D01*
X21571961Y-13999500D01*
X21428039Y-13999500D01*
X21428036Y-13999500D01*
X21289949Y-14040046D01*
X21289945Y-14040047D01*
X21168875Y-14117855D01*
X21168868Y-14117860D01*
X21074622Y-14226627D01*
X21067312Y-14242635D01*
X21025859Y-14281228D01*
X20969258Y-14279205D01*
X20932688Y-14242635D01*
X20925377Y-14226627D01*
X20831131Y-14117860D01*
X20831129Y-14117859D01*
X20831128Y-14117857D01*
X20755410Y-14069196D01*
X20710054Y-14040047D01*
X20710050Y-14040046D01*
X20571964Y-13999500D01*
X20571961Y-13999500D01*
X20428039Y-13999500D01*
X20428036Y-13999500D01*
X20289949Y-14040046D01*
X20289945Y-14040047D01*
X20168875Y-14117855D01*
X20168868Y-14117860D01*
X20074623Y-14226626D01*
X20014834Y-14357545D01*
X19994353Y-14500000D01*
X19005647Y-14500000D01*
X18985165Y-14357543D01*
X18925377Y-14226627D01*
X18864229Y-14156058D01*
X18831131Y-14117860D01*
X18831129Y-14117859D01*
X18831128Y-14117857D01*
X18755410Y-14069196D01*
X18710054Y-14040047D01*
X18710050Y-14040046D01*
X18571964Y-13999500D01*
X18571961Y-13999500D01*
X18428039Y-13999500D01*
X18428036Y-13999500D01*
X18289949Y-14040046D01*
X18289945Y-14040047D01*
X18168875Y-14117855D01*
X18168868Y-14117860D01*
X18074622Y-14226627D01*
X18067312Y-14242635D01*
X18025859Y-14281228D01*
X17969258Y-14279205D01*
X17932688Y-14242635D01*
X17925377Y-14226627D01*
X17831131Y-14117860D01*
X17831129Y-14117859D01*
X17831128Y-14117857D01*
X17755410Y-14069196D01*
X17710054Y-14040047D01*
X17710050Y-14040046D01*
X17571964Y-13999500D01*
X17571961Y-13999500D01*
X17428039Y-13999500D01*
X17428036Y-13999500D01*
X17289949Y-14040046D01*
X17289945Y-14040047D01*
X17168875Y-14117855D01*
X17168868Y-14117860D01*
X17074622Y-14226627D01*
X17067312Y-14242635D01*
X17025859Y-14281228D01*
X16969258Y-14279205D01*
X16932688Y-14242635D01*
X16925377Y-14226627D01*
X16831131Y-14117860D01*
X16831129Y-14117859D01*
X16831128Y-14117857D01*
X16744605Y-14062252D01*
X16712304Y-14015730D01*
X16722360Y-13959993D01*
X16744606Y-13937747D01*
X16758506Y-13928814D01*
X16831128Y-13882143D01*
X16925377Y-13773373D01*
X16985165Y-13642457D01*
X17005647Y-13500000D01*
X16985165Y-13357543D01*
X16925377Y-13226627D01*
X16876351Y-13170047D01*
X16831131Y-13117860D01*
X16831129Y-13117859D01*
X16831128Y-13117857D01*
X16744605Y-13062252D01*
X16712304Y-13015730D01*
X16722360Y-12959993D01*
X16744606Y-12937747D01*
X16831128Y-12882143D01*
X16925377Y-12773373D01*
X16932687Y-12757365D01*
X16974139Y-12718772D01*
X17030740Y-12720793D01*
X17067312Y-12757365D01*
X17074623Y-12773373D01*
X17132932Y-12840666D01*
X17168868Y-12882139D01*
X17168869Y-12882140D01*
X17168872Y-12882143D01*
X17289947Y-12959953D01*
X17372764Y-12984270D01*
X17428035Y-13000499D01*
X17428037Y-13000500D01*
X17428039Y-13000500D01*
X17571963Y-13000500D01*
X17571964Y-13000499D01*
X17710053Y-12959953D01*
X17831128Y-12882143D01*
X17925377Y-12773373D01*
X17932687Y-12757365D01*
X17974139Y-12718772D01*
X18030740Y-12720793D01*
X18067312Y-12757365D01*
X18074623Y-12773373D01*
X18132932Y-12840666D01*
X18168868Y-12882139D01*
X18168869Y-12882140D01*
X18168872Y-12882143D01*
X18289947Y-12959953D01*
X18372764Y-12984270D01*
X18428035Y-13000499D01*
X18428037Y-13000500D01*
X18428039Y-13000500D01*
X18571963Y-13000500D01*
X18571964Y-13000499D01*
X18710053Y-12959953D01*
X18831128Y-12882143D01*
X18925377Y-12773373D01*
X18932687Y-12757365D01*
X18974139Y-12718772D01*
X19030740Y-12720793D01*
X19067312Y-12757365D01*
X19074623Y-12773373D01*
X19132932Y-12840666D01*
X19168868Y-12882139D01*
X19168869Y-12882140D01*
X19168872Y-12882143D01*
X19255394Y-12937747D01*
X19287695Y-12984270D01*
X19277639Y-13040008D01*
X19255394Y-13062253D01*
X19168872Y-13117857D01*
X19168868Y-13117860D01*
X19074623Y-13226626D01*
X19014834Y-13357545D01*
X18994353Y-13500000D01*
X19014834Y-13642454D01*
X19014834Y-13642455D01*
X19014835Y-13642457D01*
X19049687Y-13718772D01*
X19074623Y-13773373D01*
X19168868Y-13882139D01*
X19168869Y-13882140D01*
X19168872Y-13882143D01*
X19289947Y-13959953D01*
X19378738Y-13986024D01*
X19428035Y-14000499D01*
X19428037Y-14000500D01*
X19428039Y-14000500D01*
X19571963Y-14000500D01*
X19571964Y-14000499D01*
X19710053Y-13959953D01*
X19831128Y-13882143D01*
X19925377Y-13773373D01*
X19985165Y-13642457D01*
X20005647Y-13500000D01*
X19985165Y-13357543D01*
X19925377Y-13226627D01*
X19876351Y-13170047D01*
X19831131Y-13117860D01*
X19831129Y-13117859D01*
X19831128Y-13117857D01*
X19744605Y-13062252D01*
X19712304Y-13015730D01*
X19722360Y-12959993D01*
X19744606Y-12937747D01*
X19831128Y-12882143D01*
X19925377Y-12773373D01*
X19932687Y-12757365D01*
X19974139Y-12718772D01*
X20030740Y-12720793D01*
X20067312Y-12757365D01*
X20074623Y-12773373D01*
X20132932Y-12840666D01*
X20168868Y-12882139D01*
X20168869Y-12882140D01*
X20168872Y-12882143D01*
X20289947Y-12959953D01*
X20372764Y-12984270D01*
X20428035Y-13000499D01*
X20428037Y-13000500D01*
X20428039Y-13000500D01*
X20571963Y-13000500D01*
X20571964Y-13000499D01*
X20710053Y-12959953D01*
X20831128Y-12882143D01*
X20925377Y-12773373D01*
X20932687Y-12757365D01*
X20974139Y-12718772D01*
X21030740Y-12720793D01*
X21067312Y-12757365D01*
X21074623Y-12773373D01*
X21132932Y-12840666D01*
X21168868Y-12882139D01*
X21168869Y-12882140D01*
X21168872Y-12882143D01*
X21289947Y-12959953D01*
X21372764Y-12984270D01*
X21428035Y-13000499D01*
X21428037Y-13000500D01*
X21428039Y-13000500D01*
X21571963Y-13000500D01*
X21571964Y-13000499D01*
X21710053Y-12959953D01*
X21831128Y-12882143D01*
X21925377Y-12773373D01*
X21932687Y-12757365D01*
X21974139Y-12718772D01*
X22030740Y-12720793D01*
X22067312Y-12757365D01*
X22074623Y-12773373D01*
X22132932Y-12840666D01*
X22168868Y-12882139D01*
X22168869Y-12882140D01*
X22168872Y-12882143D01*
X22255394Y-12937747D01*
X22287695Y-12984270D01*
X22277639Y-13040008D01*
X22255394Y-13062253D01*
X22168872Y-13117857D01*
X22168868Y-13117860D01*
X22074623Y-13226626D01*
X22014834Y-13357545D01*
X21994353Y-13500000D01*
X22014834Y-13642454D01*
X22014834Y-13642455D01*
X22014835Y-13642457D01*
X22049687Y-13718772D01*
X22074623Y-13773373D01*
X22168868Y-13882139D01*
X22168869Y-13882140D01*
X22168872Y-13882143D01*
X22289947Y-13959953D01*
X22378738Y-13986024D01*
X22428035Y-14000499D01*
X22428037Y-14000500D01*
X22428039Y-14000500D01*
X22571963Y-14000500D01*
X22571964Y-14000499D01*
X22710053Y-13959953D01*
X22831128Y-13882143D01*
X22925377Y-13773373D01*
X22985165Y-13642457D01*
X23005647Y-13500000D01*
X22985165Y-13357543D01*
X22925377Y-13226627D01*
X22876351Y-13170047D01*
X22831131Y-13117860D01*
X22831129Y-13117859D01*
X22831128Y-13117857D01*
X22744605Y-13062252D01*
X22712304Y-13015730D01*
X22722360Y-12959993D01*
X22744606Y-12937747D01*
X22831128Y-12882143D01*
X22925377Y-12773373D01*
X22932687Y-12757365D01*
X22974139Y-12718772D01*
X23030740Y-12720793D01*
X23067312Y-12757365D01*
X23074623Y-12773373D01*
X23132932Y-12840666D01*
X23168868Y-12882139D01*
X23168869Y-12882140D01*
X23168872Y-12882143D01*
X23289947Y-12959953D01*
X23372764Y-12984270D01*
X23428035Y-13000499D01*
X23428037Y-13000500D01*
X23428039Y-13000500D01*
X23571963Y-13000500D01*
X23571964Y-13000499D01*
X23710053Y-12959953D01*
X23831128Y-12882143D01*
X23925377Y-12773373D01*
X23932687Y-12757365D01*
X23974139Y-12718772D01*
X24030740Y-12720793D01*
X24067312Y-12757365D01*
X24074623Y-12773373D01*
X24132932Y-12840666D01*
X24168868Y-12882139D01*
X24168869Y-12882140D01*
X24168872Y-12882143D01*
X24289947Y-12959953D01*
X24372764Y-12984270D01*
X24428035Y-13000499D01*
X24428037Y-13000500D01*
X24428039Y-13000500D01*
X24571963Y-13000500D01*
X24571964Y-13000499D01*
X24710053Y-12959953D01*
X24831128Y-12882143D01*
X24925377Y-12773373D01*
X24932687Y-12757365D01*
X24974139Y-12718772D01*
X25030740Y-12720793D01*
G37*
G04 #@! TD.AperFunction*
G04 #@! TA.AperFunction,Conductor*
G36*
X24030740Y-23720793D02*
G01*
X24067312Y-23757365D01*
X24074623Y-23773373D01*
X24132932Y-23840666D01*
X24168868Y-23882139D01*
X24168869Y-23882140D01*
X24168872Y-23882143D01*
X24255394Y-23937747D01*
X24287695Y-23984270D01*
X24277639Y-24040008D01*
X24255394Y-24062253D01*
X24168872Y-24117857D01*
X24168868Y-24117860D01*
X24074622Y-24226627D01*
X24067312Y-24242635D01*
X24025859Y-24281228D01*
X23969258Y-24279205D01*
X23932688Y-24242635D01*
X23925377Y-24226627D01*
X23831131Y-24117860D01*
X23831129Y-24117859D01*
X23831128Y-24117857D01*
X23744605Y-24062252D01*
X23712304Y-24015730D01*
X23722360Y-23959993D01*
X23744606Y-23937747D01*
X23831128Y-23882143D01*
X23925377Y-23773373D01*
X23932687Y-23757365D01*
X23974139Y-23718772D01*
X24030740Y-23720793D01*
G37*
G04 #@! TD.AperFunction*
G04 #@! TA.AperFunction,Conductor*
G36*
X27030740Y-17720793D02*
G01*
X27067312Y-17757365D01*
X27074623Y-17773373D01*
X27132932Y-17840666D01*
X27168868Y-17882139D01*
X27168869Y-17882140D01*
X27168872Y-17882143D01*
X27255394Y-17937747D01*
X27287695Y-17984270D01*
X27277639Y-18040008D01*
X27255394Y-18062252D01*
X27168875Y-18117855D01*
X27168872Y-18117857D01*
X27168868Y-18117860D01*
X27074623Y-18226626D01*
X27014834Y-18357545D01*
X26994353Y-18500000D01*
X27014834Y-18642454D01*
X27074623Y-18773373D01*
X27168868Y-18882139D01*
X27168869Y-18882140D01*
X27168872Y-18882143D01*
X27255394Y-18937747D01*
X27287695Y-18984270D01*
X27277639Y-19040008D01*
X27255394Y-19062253D01*
X27168872Y-19117857D01*
X27168868Y-19117860D01*
X27074623Y-19226626D01*
X27014834Y-19357545D01*
X26994353Y-19500000D01*
X27014834Y-19642454D01*
X27014834Y-19642455D01*
X27014835Y-19642457D01*
X27015514Y-19643943D01*
X27074623Y-19773373D01*
X27168868Y-19882139D01*
X27168869Y-19882140D01*
X27168872Y-19882143D01*
X27218622Y-19914115D01*
X27255394Y-19937747D01*
X27287695Y-19984270D01*
X27277639Y-20040008D01*
X27255394Y-20062253D01*
X27168872Y-20117857D01*
X27168868Y-20117860D01*
X27074622Y-20226627D01*
X27067312Y-20242635D01*
X27025859Y-20281228D01*
X26969258Y-20279205D01*
X26932688Y-20242635D01*
X26925377Y-20226627D01*
X26831131Y-20117860D01*
X26831129Y-20117859D01*
X26831128Y-20117857D01*
X26774182Y-20081260D01*
X26710054Y-20040047D01*
X26710050Y-20040046D01*
X26571964Y-19999500D01*
X26571961Y-19999500D01*
X26428039Y-19999500D01*
X26428036Y-19999500D01*
X26289949Y-20040046D01*
X26289945Y-20040047D01*
X26168875Y-20117855D01*
X26168868Y-20117860D01*
X26074622Y-20226627D01*
X26067312Y-20242635D01*
X26025859Y-20281228D01*
X25969258Y-20279205D01*
X25932688Y-20242635D01*
X25925377Y-20226627D01*
X25831131Y-20117860D01*
X25831129Y-20117859D01*
X25831128Y-20117857D01*
X25744605Y-20062252D01*
X25712304Y-20015730D01*
X25722360Y-19959993D01*
X25744606Y-19937747D01*
X25831128Y-19882143D01*
X25925377Y-19773373D01*
X25985165Y-19642457D01*
X26005647Y-19500000D01*
X25985165Y-19357543D01*
X25925377Y-19226627D01*
X25831128Y-19117857D01*
X25744605Y-19062252D01*
X25712304Y-19015730D01*
X25722360Y-18959993D01*
X25744606Y-18937747D01*
X25831128Y-18882143D01*
X25925377Y-18773373D01*
X25985165Y-18642457D01*
X26005647Y-18500000D01*
X25985165Y-18357543D01*
X25925377Y-18226627D01*
X25864229Y-18156058D01*
X25831131Y-18117860D01*
X25831129Y-18117859D01*
X25831128Y-18117857D01*
X25744605Y-18062252D01*
X25712304Y-18015730D01*
X25722360Y-17959993D01*
X25744606Y-17937747D01*
X25831128Y-17882143D01*
X25925377Y-17773373D01*
X25932687Y-17757365D01*
X25974139Y-17718772D01*
X26030740Y-17720793D01*
X26067312Y-17757365D01*
X26074623Y-17773373D01*
X26132932Y-17840666D01*
X26168868Y-17882139D01*
X26168869Y-17882140D01*
X26168872Y-17882143D01*
X26289947Y-17959953D01*
X26372764Y-17984270D01*
X26428035Y-18000499D01*
X26428037Y-18000500D01*
X26428039Y-18000500D01*
X26571963Y-18000500D01*
X26571964Y-18000499D01*
X26710053Y-17959953D01*
X26831128Y-17882143D01*
X26925377Y-17773373D01*
X26932687Y-17757365D01*
X26974139Y-17718772D01*
X27030740Y-17720793D01*
G37*
G04 #@! TD.AperFunction*
G04 #@! TA.AperFunction,Conductor*
G36*
X13021303Y-18286628D02*
G01*
X13021303Y-18343265D01*
X13020249Y-18345686D01*
X13014834Y-18357541D01*
X12994353Y-18500000D01*
X13014834Y-18642454D01*
X13074623Y-18773373D01*
X13168868Y-18882139D01*
X13168869Y-18882140D01*
X13168872Y-18882143D01*
X13255394Y-18937747D01*
X13287695Y-18984270D01*
X13277639Y-19040008D01*
X13255394Y-19062253D01*
X13168872Y-19117857D01*
X13168868Y-19117860D01*
X13074622Y-19226627D01*
X13067312Y-19242635D01*
X13025859Y-19281228D01*
X12969258Y-19279205D01*
X12932688Y-19242635D01*
X12925377Y-19226627D01*
X12831131Y-19117860D01*
X12831129Y-19117859D01*
X12831128Y-19117857D01*
X12774182Y-19081260D01*
X12710054Y-19040047D01*
X12710050Y-19040046D01*
X12571964Y-18999500D01*
X12571961Y-18999500D01*
X12428039Y-18999500D01*
X12428036Y-18999500D01*
X12289949Y-19040046D01*
X12289945Y-19040047D01*
X12168875Y-19117855D01*
X12168868Y-19117860D01*
X12074622Y-19226627D01*
X12067312Y-19242635D01*
X12025859Y-19281228D01*
X11969258Y-19279205D01*
X11932688Y-19242635D01*
X11925377Y-19226627D01*
X11831131Y-19117860D01*
X11831129Y-19117859D01*
X11831128Y-19117857D01*
X11744605Y-19062252D01*
X11712304Y-19015730D01*
X11722360Y-18959993D01*
X11744606Y-18937747D01*
X11831128Y-18882143D01*
X11925377Y-18773373D01*
X11985165Y-18642457D01*
X12005647Y-18500000D01*
X11985523Y-18360031D01*
X11999530Y-18305153D01*
X12048239Y-18276253D01*
X12058770Y-18275500D01*
X12854798Y-18275500D01*
X12854800Y-18275500D01*
X12924618Y-18246580D01*
X12981254Y-18246580D01*
X13021303Y-18286628D01*
G37*
G04 #@! TD.AperFunction*
G04 #@! TA.AperFunction,Conductor*
G36*
X11993556Y-17297174D02*
G01*
X12015230Y-17349500D01*
X12014477Y-17360031D01*
X11994353Y-17500000D01*
X12014477Y-17639969D01*
X12000470Y-17694847D01*
X11951761Y-17723747D01*
X11941230Y-17724500D01*
X10543767Y-17724500D01*
X10491441Y-17702826D01*
X10469767Y-17650500D01*
X10491441Y-17598174D01*
X10792441Y-17297174D01*
X10844767Y-17275500D01*
X11941230Y-17275500D01*
X11993556Y-17297174D01*
G37*
G04 #@! TD.AperFunction*
G04 #@! TA.AperFunction,Conductor*
G36*
X26030740Y-16720793D02*
G01*
X26067312Y-16757365D01*
X26074623Y-16773373D01*
X26095247Y-16797174D01*
X26168868Y-16882139D01*
X26168869Y-16882140D01*
X26168872Y-16882143D01*
X26255394Y-16937747D01*
X26287695Y-16984270D01*
X26277639Y-17040008D01*
X26255394Y-17062253D01*
X26168872Y-17117857D01*
X26168868Y-17117860D01*
X26074622Y-17226627D01*
X26067312Y-17242635D01*
X26025859Y-17281228D01*
X25969258Y-17279205D01*
X25932688Y-17242635D01*
X25925377Y-17226627D01*
X25831131Y-17117860D01*
X25831129Y-17117859D01*
X25831128Y-17117857D01*
X25744605Y-17062252D01*
X25712304Y-17015730D01*
X25722360Y-16959993D01*
X25744606Y-16937747D01*
X25831128Y-16882143D01*
X25925377Y-16773373D01*
X25932687Y-16757365D01*
X25974139Y-16718772D01*
X26030740Y-16720793D01*
G37*
G04 #@! TD.AperFunction*
G04 #@! TA.AperFunction,Conductor*
G36*
X27030740Y-16720793D02*
G01*
X27067312Y-16757365D01*
X27074623Y-16773373D01*
X27095247Y-16797174D01*
X27168868Y-16882139D01*
X27168869Y-16882140D01*
X27168872Y-16882143D01*
X27255394Y-16937747D01*
X27287695Y-16984270D01*
X27277639Y-17040008D01*
X27255394Y-17062253D01*
X27168872Y-17117857D01*
X27168868Y-17117860D01*
X27074622Y-17226627D01*
X27067312Y-17242635D01*
X27025859Y-17281228D01*
X26969258Y-17279205D01*
X26932688Y-17242635D01*
X26925377Y-17226627D01*
X26831131Y-17117860D01*
X26831129Y-17117859D01*
X26831128Y-17117857D01*
X26744605Y-17062252D01*
X26712304Y-17015730D01*
X26722360Y-16959993D01*
X26744606Y-16937747D01*
X26831128Y-16882143D01*
X26925377Y-16773373D01*
X26932687Y-16757365D01*
X26974139Y-16718772D01*
X27030740Y-16720793D01*
G37*
G04 #@! TD.AperFunction*
G04 #@! TA.AperFunction,Conductor*
G36*
X13030740Y-14720793D02*
G01*
X13067312Y-14757365D01*
X13074623Y-14773373D01*
X13132932Y-14840666D01*
X13168868Y-14882139D01*
X13168869Y-14882140D01*
X13168872Y-14882143D01*
X13253822Y-14936737D01*
X13255394Y-14937747D01*
X13287695Y-14984270D01*
X13277639Y-15040008D01*
X13255394Y-15062253D01*
X13168872Y-15117857D01*
X13168868Y-15117860D01*
X13074623Y-15226626D01*
X13014834Y-15357545D01*
X12994353Y-15500000D01*
X13014834Y-15642454D01*
X13074623Y-15773373D01*
X13168868Y-15882139D01*
X13168869Y-15882140D01*
X13168872Y-15882143D01*
X13255394Y-15937747D01*
X13287695Y-15984270D01*
X13277639Y-16040008D01*
X13255394Y-16062253D01*
X13168872Y-16117857D01*
X13168868Y-16117860D01*
X13074622Y-16226627D01*
X13067312Y-16242635D01*
X13025859Y-16281228D01*
X12969258Y-16279205D01*
X12932688Y-16242635D01*
X12925377Y-16226627D01*
X12831131Y-16117860D01*
X12831129Y-16117859D01*
X12831128Y-16117857D01*
X12774182Y-16081260D01*
X12710054Y-16040047D01*
X12710050Y-16040046D01*
X12571964Y-15999500D01*
X12571961Y-15999500D01*
X12428039Y-15999500D01*
X12428036Y-15999500D01*
X12289949Y-16040046D01*
X12289945Y-16040047D01*
X12168875Y-16117855D01*
X12168868Y-16117860D01*
X12074622Y-16226627D01*
X12067312Y-16242635D01*
X12025859Y-16281228D01*
X11969258Y-16279205D01*
X11932688Y-16242635D01*
X11925377Y-16226627D01*
X11831131Y-16117860D01*
X11831129Y-16117859D01*
X11831128Y-16117857D01*
X11744605Y-16062252D01*
X11712304Y-16015730D01*
X11722360Y-15959993D01*
X11744606Y-15937747D01*
X11831128Y-15882143D01*
X11925377Y-15773373D01*
X11985165Y-15642457D01*
X12005647Y-15500000D01*
X11985165Y-15357543D01*
X11925377Y-15226627D01*
X11831128Y-15117857D01*
X11744605Y-15062252D01*
X11712304Y-15015730D01*
X11722360Y-14959993D01*
X11744606Y-14937747D01*
X11746178Y-14936737D01*
X11831128Y-14882143D01*
X11925377Y-14773373D01*
X11932687Y-14757365D01*
X11974139Y-14718772D01*
X12030740Y-14720793D01*
X12067312Y-14757365D01*
X12074623Y-14773373D01*
X12132932Y-14840666D01*
X12168868Y-14882139D01*
X12168869Y-14882140D01*
X12168872Y-14882143D01*
X12289947Y-14959953D01*
X12372764Y-14984270D01*
X12428035Y-15000499D01*
X12428037Y-15000500D01*
X12428039Y-15000500D01*
X12571963Y-15000500D01*
X12571964Y-15000499D01*
X12710053Y-14959953D01*
X12831128Y-14882143D01*
X12925377Y-14773373D01*
X12932687Y-14757365D01*
X12974139Y-14718772D01*
X13030740Y-14720793D01*
G37*
G04 #@! TD.AperFunction*
G04 #@! TA.AperFunction,Conductor*
G36*
X26030740Y-15720793D02*
G01*
X26067312Y-15757365D01*
X26074623Y-15773373D01*
X26104891Y-15808304D01*
X26168868Y-15882139D01*
X26168869Y-15882140D01*
X26168872Y-15882143D01*
X26255394Y-15937747D01*
X26287695Y-15984270D01*
X26277639Y-16040008D01*
X26255394Y-16062253D01*
X26168872Y-16117857D01*
X26168868Y-16117860D01*
X26074622Y-16226627D01*
X26067312Y-16242635D01*
X26025859Y-16281228D01*
X25969258Y-16279205D01*
X25932688Y-16242635D01*
X25925377Y-16226627D01*
X25831131Y-16117860D01*
X25831129Y-16117859D01*
X25831128Y-16117857D01*
X25744605Y-16062252D01*
X25712304Y-16015730D01*
X25722360Y-15959993D01*
X25744606Y-15937747D01*
X25831128Y-15882143D01*
X25925377Y-15773373D01*
X25932687Y-15757365D01*
X25974139Y-15718772D01*
X26030740Y-15720793D01*
G37*
G04 #@! TD.AperFunction*
G04 #@! TA.AperFunction,Conductor*
G36*
X27030740Y-15720793D02*
G01*
X27067312Y-15757365D01*
X27074623Y-15773373D01*
X27104891Y-15808304D01*
X27168868Y-15882139D01*
X27168869Y-15882140D01*
X27168872Y-15882143D01*
X27255394Y-15937747D01*
X27287695Y-15984270D01*
X27277639Y-16040008D01*
X27255394Y-16062253D01*
X27168872Y-16117857D01*
X27168868Y-16117860D01*
X27074622Y-16226627D01*
X27067312Y-16242635D01*
X27025859Y-16281228D01*
X26969258Y-16279205D01*
X26932688Y-16242635D01*
X26925377Y-16226627D01*
X26831131Y-16117860D01*
X26831129Y-16117859D01*
X26831128Y-16117857D01*
X26744605Y-16062252D01*
X26712304Y-16015730D01*
X26722360Y-15959993D01*
X26744606Y-15937747D01*
X26831128Y-15882143D01*
X26925377Y-15773373D01*
X26932687Y-15757365D01*
X26974139Y-15718772D01*
X27030740Y-15720793D01*
G37*
G04 #@! TD.AperFunction*
G04 #@! TA.AperFunction,Conductor*
G36*
X16030740Y-13720793D02*
G01*
X16067312Y-13757365D01*
X16074623Y-13773373D01*
X16128811Y-13835910D01*
X16168868Y-13882139D01*
X16168869Y-13882140D01*
X16168872Y-13882143D01*
X16241494Y-13928814D01*
X16255394Y-13937747D01*
X16287695Y-13984270D01*
X16277639Y-14040008D01*
X16255394Y-14062253D01*
X16168872Y-14117857D01*
X16168868Y-14117860D01*
X16074623Y-14226626D01*
X16014834Y-14357545D01*
X15994353Y-14500000D01*
X16014834Y-14642454D01*
X16074623Y-14773373D01*
X16168868Y-14882139D01*
X16168869Y-14882140D01*
X16168872Y-14882143D01*
X16253822Y-14936737D01*
X16255394Y-14937747D01*
X16287695Y-14984270D01*
X16277639Y-15040008D01*
X16255394Y-15062253D01*
X16168872Y-15117857D01*
X16168868Y-15117860D01*
X16074622Y-15226627D01*
X16067312Y-15242635D01*
X16025859Y-15281228D01*
X15969258Y-15279205D01*
X15932688Y-15242635D01*
X15925377Y-15226627D01*
X15831131Y-15117860D01*
X15831129Y-15117859D01*
X15831128Y-15117857D01*
X15774182Y-15081260D01*
X15710054Y-15040047D01*
X15710050Y-15040046D01*
X15571964Y-14999500D01*
X15571961Y-14999500D01*
X15428039Y-14999500D01*
X15428036Y-14999500D01*
X15289949Y-15040046D01*
X15289945Y-15040047D01*
X15168875Y-15117855D01*
X15168868Y-15117860D01*
X15074622Y-15226627D01*
X15067312Y-15242635D01*
X15025859Y-15281228D01*
X14969258Y-15279205D01*
X14932688Y-15242635D01*
X14925377Y-15226627D01*
X14831131Y-15117860D01*
X14831129Y-15117859D01*
X14831128Y-15117857D01*
X14744605Y-15062252D01*
X14712304Y-15015730D01*
X14722360Y-14959993D01*
X14744606Y-14937747D01*
X14746178Y-14936737D01*
X14831128Y-14882143D01*
X14925377Y-14773373D01*
X14985165Y-14642457D01*
X15005647Y-14500000D01*
X14996332Y-14435217D01*
X15010339Y-14380341D01*
X15017245Y-14372369D01*
X15233558Y-14156058D01*
X15275500Y-14054800D01*
X15275500Y-14054563D01*
X15275590Y-14054344D01*
X15276922Y-14047651D01*
X15278253Y-14047915D01*
X15297174Y-14002237D01*
X15349500Y-13980563D01*
X15370349Y-13983561D01*
X15428037Y-14000500D01*
X15428039Y-14000500D01*
X15571963Y-14000500D01*
X15571964Y-14000499D01*
X15710053Y-13959953D01*
X15831128Y-13882143D01*
X15925377Y-13773373D01*
X15932687Y-13757365D01*
X15974139Y-13718772D01*
X16030740Y-13720793D01*
G37*
G04 #@! TD.AperFunction*
G04 #@! TA.AperFunction,Conductor*
G36*
X26030740Y-14720793D02*
G01*
X26067312Y-14757365D01*
X26074623Y-14773373D01*
X26132932Y-14840666D01*
X26168868Y-14882139D01*
X26168869Y-14882140D01*
X26168872Y-14882143D01*
X26253822Y-14936737D01*
X26255394Y-14937747D01*
X26287695Y-14984270D01*
X26277639Y-15040008D01*
X26255394Y-15062253D01*
X26168872Y-15117857D01*
X26168868Y-15117860D01*
X26074622Y-15226627D01*
X26067312Y-15242635D01*
X26025859Y-15281228D01*
X25969258Y-15279205D01*
X25932688Y-15242635D01*
X25925377Y-15226627D01*
X25831131Y-15117860D01*
X25831129Y-15117859D01*
X25831128Y-15117857D01*
X25744605Y-15062252D01*
X25712304Y-15015730D01*
X25722360Y-14959993D01*
X25744606Y-14937747D01*
X25746178Y-14936737D01*
X25831128Y-14882143D01*
X25925377Y-14773373D01*
X25932687Y-14757365D01*
X25974139Y-14718772D01*
X26030740Y-14720793D01*
G37*
G04 #@! TD.AperFunction*
G04 #@! TA.AperFunction,Conductor*
G36*
X27030740Y-14720793D02*
G01*
X27067312Y-14757365D01*
X27074623Y-14773373D01*
X27132932Y-14840666D01*
X27168868Y-14882139D01*
X27168869Y-14882140D01*
X27168872Y-14882143D01*
X27253822Y-14936737D01*
X27255394Y-14937747D01*
X27287695Y-14984270D01*
X27277639Y-15040008D01*
X27255394Y-15062253D01*
X27168872Y-15117857D01*
X27168868Y-15117860D01*
X27074622Y-15226627D01*
X27067312Y-15242635D01*
X27025859Y-15281228D01*
X26969258Y-15279205D01*
X26932688Y-15242635D01*
X26925377Y-15226627D01*
X26831131Y-15117860D01*
X26831129Y-15117859D01*
X26831128Y-15117857D01*
X26744605Y-15062252D01*
X26712304Y-15015730D01*
X26722360Y-14959993D01*
X26744606Y-14937747D01*
X26746178Y-14936737D01*
X26831128Y-14882143D01*
X26925377Y-14773373D01*
X26932687Y-14757365D01*
X26974139Y-14718772D01*
X27030740Y-14720793D01*
G37*
G04 #@! TD.AperFunction*
G04 #@! TA.AperFunction,Conductor*
G36*
X14370349Y-12983561D02*
G01*
X14428037Y-13000500D01*
X14428039Y-13000500D01*
X14571962Y-13000500D01*
X14629651Y-12983561D01*
X14685964Y-12989615D01*
X14721502Y-13033714D01*
X14724500Y-13054563D01*
X14724500Y-13855231D01*
X14702826Y-13907557D01*
X14632182Y-13978200D01*
X14579855Y-13999874D01*
X14574621Y-13999500D01*
X14571961Y-13999500D01*
X14428039Y-13999500D01*
X14370348Y-14016439D01*
X14314035Y-14010384D01*
X14278497Y-13966284D01*
X14275500Y-13945436D01*
X14275500Y-13054563D01*
X14297174Y-13002237D01*
X14349500Y-12980563D01*
X14370349Y-12983561D01*
G37*
G04 #@! TD.AperFunction*
G04 #@! TA.AperFunction,Conductor*
G36*
X35690511Y-21674D02*
G01*
X35712185Y-74000D01*
X35690511Y-126326D01*
X35662626Y-143847D01*
X35541592Y-186198D01*
X35288559Y-308052D01*
X35050751Y-457477D01*
X34831175Y-632583D01*
X34632583Y-831175D01*
X34457477Y-1050751D01*
X34308052Y-1288559D01*
X34186198Y-1541592D01*
X34093442Y-1806674D01*
X34093437Y-1806690D01*
X34030945Y-2080486D01*
X34030945Y-2080487D01*
X33999500Y-2359578D01*
X33999500Y-2640421D01*
X34030945Y-2919512D01*
X34030945Y-2919513D01*
X34093437Y-3193309D01*
X34093442Y-3193325D01*
X34186198Y-3458407D01*
X34308052Y-3711440D01*
X34308054Y-3711444D01*
X34308055Y-3711445D01*
X34457477Y-3949248D01*
X34632584Y-4168825D01*
X34831175Y-4367416D01*
X35050752Y-4542523D01*
X35288555Y-4691945D01*
X35288558Y-4691946D01*
X35288559Y-4691947D01*
X35340321Y-4716874D01*
X35541592Y-4813801D01*
X35806682Y-4906560D01*
X35806687Y-4906561D01*
X35806690Y-4906562D01*
X36080486Y-4969054D01*
X36080487Y-4969054D01*
X36080491Y-4969055D01*
X36359575Y-5000500D01*
X36359579Y-5000500D01*
X36640421Y-5000500D01*
X36640425Y-5000500D01*
X36919509Y-4969055D01*
X37193318Y-4906560D01*
X37458408Y-4813801D01*
X37711445Y-4691945D01*
X37949248Y-4542523D01*
X38168825Y-4367416D01*
X38367416Y-4168825D01*
X38542523Y-3949248D01*
X38691945Y-3711445D01*
X38813801Y-3458408D01*
X38856153Y-3337374D01*
X38893892Y-3295142D01*
X38950440Y-3291967D01*
X38992672Y-3329706D01*
X39000000Y-3361814D01*
X39000000Y-35638185D01*
X38978326Y-35690511D01*
X38926000Y-35712185D01*
X38873674Y-35690511D01*
X38856153Y-35662626D01*
X38813801Y-35541592D01*
X38691947Y-35288559D01*
X38691946Y-35288558D01*
X38691945Y-35288555D01*
X38542523Y-35050752D01*
X38367416Y-34831175D01*
X38168825Y-34632584D01*
X37949248Y-34457477D01*
X37711445Y-34308055D01*
X37711444Y-34308054D01*
X37711440Y-34308052D01*
X37458407Y-34186198D01*
X37193325Y-34093442D01*
X37193309Y-34093437D01*
X36919513Y-34030945D01*
X36779967Y-34015222D01*
X36640425Y-33999500D01*
X36359575Y-33999500D01*
X36220033Y-34015222D01*
X36080487Y-34030945D01*
X36080486Y-34030945D01*
X35806690Y-34093437D01*
X35806674Y-34093442D01*
X35541592Y-34186198D01*
X35288559Y-34308052D01*
X35050751Y-34457477D01*
X34831175Y-34632583D01*
X34632583Y-34831175D01*
X34457477Y-35050751D01*
X34308052Y-35288559D01*
X34186198Y-35541592D01*
X34093442Y-35806674D01*
X34093437Y-35806690D01*
X34030945Y-36080486D01*
X34030945Y-36080487D01*
X34026248Y-36122174D01*
X34005389Y-36307314D01*
X33999500Y-36359578D01*
X33999500Y-36640421D01*
X34030945Y-36919512D01*
X34030945Y-36919513D01*
X34093437Y-37193309D01*
X34093442Y-37193325D01*
X34186198Y-37458407D01*
X34308052Y-37711440D01*
X34308054Y-37711444D01*
X34308055Y-37711445D01*
X34457477Y-37949248D01*
X34632584Y-38168825D01*
X34831175Y-38367416D01*
X35050752Y-38542523D01*
X35288555Y-38691945D01*
X35288558Y-38691946D01*
X35288559Y-38691947D01*
X35541592Y-38813801D01*
X35662626Y-38856153D01*
X35704857Y-38893893D01*
X35708032Y-38950441D01*
X35670292Y-38992672D01*
X35638185Y-39000000D01*
X3361815Y-39000000D01*
X3309489Y-38978326D01*
X3287815Y-38926000D01*
X3309489Y-38873674D01*
X3337374Y-38856153D01*
X3399821Y-38834301D01*
X3458408Y-38813801D01*
X3711445Y-38691945D01*
X3949248Y-38542523D01*
X4168825Y-38367416D01*
X4367416Y-38168825D01*
X4542523Y-37949248D01*
X4691945Y-37711445D01*
X4813801Y-37458408D01*
X4906560Y-37193318D01*
X4969055Y-36919509D01*
X5000500Y-36640425D01*
X5000500Y-36359575D01*
X4969055Y-36080491D01*
X4965836Y-36066389D01*
X4906562Y-35806690D01*
X4906557Y-35806674D01*
X4901662Y-35792686D01*
X4813801Y-35541592D01*
X4691945Y-35288555D01*
X4542523Y-35050752D01*
X4367416Y-34831175D01*
X4168825Y-34632584D01*
X3949248Y-34457477D01*
X3711445Y-34308055D01*
X3711444Y-34308054D01*
X3711440Y-34308052D01*
X3458407Y-34186198D01*
X3193325Y-34093442D01*
X3193309Y-34093437D01*
X2919513Y-34030945D01*
X2779967Y-34015222D01*
X2640425Y-33999500D01*
X2359575Y-33999500D01*
X2220033Y-34015222D01*
X2080487Y-34030945D01*
X2080486Y-34030945D01*
X1806690Y-34093437D01*
X1806674Y-34093442D01*
X1541592Y-34186198D01*
X1288559Y-34308052D01*
X1050751Y-34457477D01*
X831175Y-34632583D01*
X632583Y-34831175D01*
X457477Y-35050751D01*
X308052Y-35288559D01*
X186198Y-35541592D01*
X143847Y-35662626D01*
X106107Y-35704857D01*
X49559Y-35708032D01*
X7328Y-35670292D01*
X0Y-35638185D01*
X0Y-26700000D01*
X2994508Y-26700000D01*
X3014353Y-26825301D01*
X3014353Y-26825302D01*
X3014354Y-26825304D01*
X3071950Y-26938342D01*
X3071951Y-26938343D01*
X3102826Y-26969218D01*
X3124500Y-27021544D01*
X3124500Y-27954800D01*
X3143223Y-28000000D01*
X3166442Y-28056057D01*
X3982826Y-28872441D01*
X4004500Y-28924767D01*
X4004500Y-29258456D01*
X3982826Y-29310782D01*
X3951951Y-29341656D01*
X3894353Y-29454698D01*
X3874508Y-29580000D01*
X3894353Y-29705301D01*
X3894353Y-29705302D01*
X3894354Y-29705304D01*
X3951950Y-29818342D01*
X4041658Y-29908050D01*
X4154696Y-29965646D01*
X4280000Y-29985492D01*
X4405304Y-29965646D01*
X4518342Y-29908050D01*
X4608050Y-29818342D01*
X4665646Y-29705304D01*
X4685492Y-29580000D01*
X4665646Y-29454696D01*
X4608050Y-29341658D01*
X4577174Y-29310782D01*
X4555500Y-29258456D01*
X4555500Y-28725200D01*
X4513557Y-28623943D01*
X4513557Y-28623942D01*
X4436058Y-28546443D01*
X3697174Y-27807559D01*
X3675500Y-27755233D01*
X3675500Y-27021544D01*
X3697174Y-26969218D01*
X3711160Y-26955232D01*
X3728050Y-26938342D01*
X3785646Y-26825304D01*
X3805492Y-26700000D01*
X3785646Y-26574696D01*
X3728050Y-26461658D01*
X3638342Y-26371950D01*
X3525304Y-26314354D01*
X3525302Y-26314353D01*
X3525301Y-26314353D01*
X3400000Y-26294508D01*
X3274698Y-26314353D01*
X3161656Y-26371951D01*
X3071951Y-26461656D01*
X3014353Y-26574698D01*
X2994508Y-26700000D01*
X0Y-26700000D01*
X0Y-25700000D01*
X4994508Y-25700000D01*
X5014353Y-25825301D01*
X5014353Y-25825302D01*
X5014354Y-25825304D01*
X5068098Y-25930782D01*
X5071951Y-25938343D01*
X5102826Y-25969218D01*
X5124500Y-26021544D01*
X5124500Y-33454799D01*
X5143430Y-33500500D01*
X5166442Y-33556056D01*
X5166444Y-33556059D01*
X8743941Y-37133557D01*
X8743940Y-37133557D01*
X8773599Y-37145841D01*
X8773601Y-37145842D01*
X8791413Y-37153220D01*
X8845200Y-37175500D01*
X16543100Y-37175500D01*
X16595426Y-37197174D01*
X16646780Y-37248528D01*
X16766873Y-37309718D01*
X16766873Y-37309719D01*
X16785075Y-37312601D01*
X16900000Y-37330804D01*
X17033126Y-37309719D01*
X17153220Y-37248528D01*
X17248528Y-37153220D01*
X17309719Y-37033126D01*
X17330804Y-36900000D01*
X17309719Y-36766874D01*
X17267030Y-36683093D01*
X17262587Y-36626633D01*
X17299369Y-36583566D01*
X17332965Y-36575500D01*
X19054798Y-36575500D01*
X19054800Y-36575500D01*
X19153741Y-36534516D01*
X19193631Y-36529795D01*
X19200000Y-36530804D01*
X19333126Y-36509719D01*
X19453220Y-36448528D01*
X19548528Y-36353220D01*
X19609719Y-36233126D01*
X19630804Y-36100000D01*
X19620367Y-36034105D01*
X22599500Y-36034105D01*
X22599500Y-36585894D01*
X22633606Y-36713181D01*
X22633607Y-36713184D01*
X22633608Y-36713186D01*
X22699500Y-36827314D01*
X22792686Y-36920500D01*
X22906814Y-36986392D01*
X23034105Y-37020499D01*
X23034106Y-37020500D01*
X23034108Y-37020500D01*
X23165894Y-37020500D01*
X23165894Y-37020499D01*
X23293186Y-36986392D01*
X23407314Y-36920500D01*
X23500500Y-36827314D01*
X23566392Y-36713186D01*
X23600499Y-36585894D01*
X23600500Y-36585894D01*
X23600500Y-36337966D01*
X23622174Y-36285640D01*
X23785640Y-36122174D01*
X23837966Y-36100500D01*
X27265894Y-36100500D01*
X27265894Y-36100499D01*
X27393186Y-36066392D01*
X27507314Y-36000500D01*
X28190500Y-35317314D01*
X28256392Y-35203186D01*
X28290499Y-35075894D01*
X28290500Y-35075894D01*
X28290500Y-32474500D01*
X28312174Y-32422174D01*
X28364500Y-32400500D01*
X34965894Y-32400500D01*
X34965894Y-32400499D01*
X35093186Y-32366392D01*
X35207314Y-32300500D01*
X36485640Y-31022174D01*
X36537966Y-31000500D01*
X37365894Y-31000500D01*
X37365894Y-31000499D01*
X37493186Y-30966392D01*
X37607314Y-30900500D01*
X37700500Y-30807314D01*
X37766392Y-30693186D01*
X37800499Y-30565894D01*
X37800500Y-30565894D01*
X37800500Y-30434106D01*
X37800499Y-30434105D01*
X37766393Y-30306818D01*
X37766392Y-30306814D01*
X37700500Y-30192686D01*
X37607314Y-30099500D01*
X37493190Y-30033610D01*
X37493181Y-30033606D01*
X37365894Y-29999500D01*
X37365892Y-29999500D01*
X36365892Y-29999500D01*
X36234108Y-29999500D01*
X36234106Y-29999500D01*
X36106818Y-30033606D01*
X36106809Y-30033610D01*
X35992685Y-30099500D01*
X34714360Y-31377826D01*
X34662034Y-31399500D01*
X27724106Y-31399500D01*
X27596818Y-31433606D01*
X27596809Y-31433610D01*
X27482685Y-31499500D01*
X27389500Y-31592685D01*
X27323610Y-31706809D01*
X27323606Y-31706818D01*
X27289500Y-31834105D01*
X27289500Y-34772034D01*
X27267826Y-34824360D01*
X27014360Y-35077826D01*
X26962034Y-35099500D01*
X23534106Y-35099500D01*
X23406818Y-35133606D01*
X23406809Y-35133610D01*
X23292685Y-35199500D01*
X22699500Y-35792685D01*
X22633610Y-35906809D01*
X22633606Y-35906818D01*
X22599500Y-36034105D01*
X19620367Y-36034105D01*
X19609719Y-35966874D01*
X19609719Y-35966873D01*
X19548528Y-35846780D01*
X19453219Y-35751471D01*
X19333126Y-35690281D01*
X19333126Y-35690280D01*
X19200000Y-35669196D01*
X19066873Y-35690280D01*
X19066873Y-35690281D01*
X18946780Y-35751471D01*
X18851471Y-35846780D01*
X18790281Y-35966873D01*
X18788480Y-35972416D01*
X18785329Y-35971392D01*
X18761454Y-36010363D01*
X18717952Y-36024500D01*
X14859147Y-36024500D01*
X14806821Y-36002826D01*
X14785147Y-35950500D01*
X14806821Y-35898174D01*
X14825548Y-35884567D01*
X14838342Y-35878049D01*
X14928050Y-35788341D01*
X14985646Y-35675303D01*
X15005492Y-35549999D01*
X14985646Y-35424695D01*
X14928050Y-35311657D01*
X14838342Y-35221949D01*
X14725304Y-35164353D01*
X14725302Y-35164352D01*
X14725301Y-35164352D01*
X14604883Y-35145280D01*
X14564133Y-35124517D01*
X14173173Y-34733557D01*
X13706059Y-34266443D01*
X13604801Y-34224500D01*
X13604800Y-34224500D01*
X12044768Y-34224500D01*
X11992442Y-34202826D01*
X7197174Y-29407558D01*
X7175500Y-29355232D01*
X7175500Y-18244767D01*
X7197174Y-18192441D01*
X8788169Y-16601446D01*
X10452879Y-14936735D01*
X10493627Y-14915974D01*
X10533126Y-14909719D01*
X10653220Y-14848528D01*
X10748528Y-14753220D01*
X10809719Y-14633126D01*
X10830804Y-14500000D01*
X10809719Y-14366874D01*
X10809719Y-14366873D01*
X10748528Y-14246780D01*
X10653219Y-14151471D01*
X10533126Y-14090281D01*
X10533126Y-14090280D01*
X10400000Y-14069196D01*
X10266873Y-14090280D01*
X10266873Y-14090281D01*
X10146780Y-14151471D01*
X10051471Y-14246780D01*
X9990281Y-14366873D01*
X9990280Y-14366873D01*
X9969196Y-14500000D01*
X9969196Y-14500001D01*
X9982601Y-14584643D01*
X9969379Y-14639715D01*
X9961838Y-14648544D01*
X6743942Y-17866443D01*
X6666442Y-17943943D01*
X6630463Y-18030804D01*
X6624500Y-18045200D01*
X6624500Y-29554800D01*
X6657638Y-29634800D01*
X6666443Y-29656058D01*
X11743942Y-34733558D01*
X11845200Y-34775500D01*
X11954800Y-34775500D01*
X13405234Y-34775500D01*
X13457560Y-34797174D01*
X14174518Y-35514132D01*
X14195281Y-35554882D01*
X14214353Y-35675300D01*
X14214353Y-35675301D01*
X14214354Y-35675303D01*
X14271950Y-35788341D01*
X14361658Y-35878049D01*
X14374449Y-35884566D01*
X14411231Y-35927632D01*
X14406788Y-35984095D01*
X14363721Y-36020878D01*
X14340853Y-36024500D01*
X9144767Y-36024500D01*
X9092441Y-36002826D01*
X6197174Y-33107559D01*
X6175500Y-33055233D01*
X6175500Y-26521544D01*
X6197174Y-26469218D01*
X6205669Y-26460723D01*
X6228050Y-26438342D01*
X6285646Y-26325304D01*
X6305492Y-26200000D01*
X6285646Y-26074696D01*
X6228050Y-25961658D01*
X6197174Y-25930782D01*
X6175500Y-25878456D01*
X6175500Y-12194767D01*
X6197174Y-12142441D01*
X7042442Y-11297174D01*
X7094768Y-11275500D01*
X13255233Y-11275500D01*
X13307559Y-11297174D01*
X13702826Y-11692441D01*
X13724500Y-11744767D01*
X13724500Y-12945436D01*
X13702826Y-12997762D01*
X13650500Y-13019436D01*
X13629652Y-13016439D01*
X13571961Y-12999500D01*
X13428039Y-12999500D01*
X13428036Y-12999500D01*
X13289949Y-13040046D01*
X13289945Y-13040047D01*
X13168875Y-13117855D01*
X13168867Y-13117861D01*
X13123648Y-13170047D01*
X13073001Y-13195399D01*
X13019263Y-13177512D01*
X12993911Y-13126865D01*
X12994078Y-13114349D01*
X13005341Y-13000000D01*
X12986024Y-12803868D01*
X12928814Y-12615273D01*
X12928812Y-12615270D01*
X12928812Y-12615268D01*
X12867199Y-12500000D01*
X12835910Y-12441462D01*
X12710883Y-12289117D01*
X12558538Y-12164090D01*
X12518036Y-12142441D01*
X12384731Y-12071187D01*
X12196133Y-12013976D01*
X12000000Y-11994659D01*
X11803866Y-12013976D01*
X11615268Y-12071187D01*
X11441463Y-12164089D01*
X11289117Y-12289117D01*
X11164089Y-12441463D01*
X11071187Y-12615268D01*
X11013976Y-12803866D01*
X10994659Y-13000000D01*
X11013976Y-13196133D01*
X11071187Y-13384731D01*
X11138990Y-13511579D01*
X11164090Y-13558538D01*
X11289117Y-13710883D01*
X11441462Y-13835910D01*
X11472957Y-13852744D01*
X11486976Y-13860238D01*
X11522907Y-13904019D01*
X11517355Y-13960383D01*
X11473574Y-13996314D01*
X11452093Y-13999500D01*
X11428036Y-13999500D01*
X11289949Y-14040046D01*
X11289945Y-14040047D01*
X11168875Y-14117855D01*
X11168868Y-14117860D01*
X11074623Y-14226626D01*
X11014834Y-14357545D01*
X10994353Y-14500000D01*
X11014834Y-14642454D01*
X11074623Y-14773373D01*
X11168868Y-14882139D01*
X11168869Y-14882140D01*
X11168872Y-14882143D01*
X11253822Y-14936737D01*
X11255394Y-14937747D01*
X11287695Y-14984270D01*
X11277639Y-15040008D01*
X11255394Y-15062253D01*
X11168872Y-15117857D01*
X11168868Y-15117860D01*
X11074623Y-15226626D01*
X11014834Y-15357545D01*
X10994353Y-15500000D01*
X11014834Y-15642454D01*
X11074623Y-15773373D01*
X11168868Y-15882139D01*
X11168869Y-15882140D01*
X11168872Y-15882143D01*
X11255394Y-15937747D01*
X11287695Y-15984270D01*
X11277639Y-16040008D01*
X11255394Y-16062252D01*
X11168872Y-16117857D01*
X11098595Y-16198960D01*
X11047950Y-16224311D01*
X11042671Y-16224500D01*
X10045200Y-16224500D01*
X9943962Y-16266433D01*
X9943948Y-16266440D01*
X9943944Y-16266441D01*
X9943939Y-16266445D01*
X9062217Y-17148166D01*
X9009891Y-17169840D01*
X9001702Y-17169196D01*
X9000000Y-17169196D01*
X8866873Y-17190280D01*
X8866873Y-17190281D01*
X8746780Y-17251471D01*
X8651471Y-17346780D01*
X8590281Y-17466873D01*
X8590280Y-17466873D01*
X8569196Y-17600000D01*
X8590280Y-17733126D01*
X8649081Y-17848528D01*
X8651472Y-17853220D01*
X8746780Y-17948528D01*
X8866873Y-18009718D01*
X8866873Y-18009719D01*
X8887958Y-18013058D01*
X9000000Y-18030804D01*
X9107250Y-18013817D01*
X9162322Y-18027039D01*
X9191915Y-18075330D01*
X9178693Y-18130402D01*
X9171152Y-18139232D01*
X7743942Y-19566443D01*
X7666442Y-19643943D01*
X7635447Y-19718772D01*
X7624500Y-19745200D01*
X7624500Y-27554800D01*
X7664005Y-27650172D01*
X7666442Y-27656057D01*
X7666444Y-27656059D01*
X7954347Y-27943963D01*
X7954349Y-27943964D01*
X7974519Y-27964135D01*
X7995281Y-28004882D01*
X8014353Y-28125301D01*
X8014353Y-28125302D01*
X8014354Y-28125304D01*
X8071950Y-28238342D01*
X8161658Y-28328050D01*
X8274696Y-28385646D01*
X8395117Y-28404718D01*
X8435866Y-28425481D01*
X12843941Y-32833557D01*
X12843940Y-32833557D01*
X12873599Y-32845841D01*
X12945200Y-32875500D01*
X16454798Y-32875500D01*
X16454800Y-32875500D01*
X16556058Y-32833557D01*
X16633557Y-32756058D01*
X16633556Y-32756058D01*
X16737782Y-32651832D01*
X16790108Y-32630159D01*
X16798292Y-32630804D01*
X16800000Y-32630804D01*
X16933126Y-32609719D01*
X17053220Y-32548528D01*
X17148528Y-32453220D01*
X17209719Y-32333126D01*
X17230804Y-32200000D01*
X17209719Y-32066874D01*
X17209719Y-32066873D01*
X17148528Y-31946780D01*
X17053222Y-31851474D01*
X17053220Y-31851472D01*
X16983469Y-31815932D01*
X16946689Y-31772867D01*
X16951132Y-31716405D01*
X16983469Y-31684067D01*
X17053220Y-31648528D01*
X17148528Y-31553220D01*
X17209719Y-31433126D01*
X17230804Y-31300000D01*
X17209719Y-31166874D01*
X17209719Y-31166873D01*
X17148528Y-31046780D01*
X17053219Y-30951471D01*
X16933126Y-30890281D01*
X16933126Y-30890280D01*
X16800000Y-30869196D01*
X16666873Y-30890280D01*
X16666873Y-30890281D01*
X16546780Y-30951471D01*
X16546779Y-30951472D01*
X16495426Y-31002826D01*
X16443100Y-31024500D01*
X12794768Y-31024500D01*
X12742442Y-31002826D01*
X8797174Y-27057558D01*
X8775500Y-27005232D01*
X8775500Y-26421544D01*
X8797174Y-26369218D01*
X8808849Y-26357543D01*
X8828050Y-26338342D01*
X8885646Y-26225304D01*
X8905492Y-26100000D01*
X8885646Y-25974696D01*
X8828050Y-25861658D01*
X8797174Y-25830782D01*
X8775500Y-25778456D01*
X8775500Y-19944767D01*
X8797174Y-19892441D01*
X10392442Y-18297174D01*
X10444768Y-18275500D01*
X10941230Y-18275500D01*
X10993556Y-18297174D01*
X11015230Y-18349500D01*
X11014477Y-18360031D01*
X10994353Y-18499999D01*
X11014834Y-18642454D01*
X11074623Y-18773373D01*
X11168868Y-18882139D01*
X11168869Y-18882140D01*
X11168872Y-18882143D01*
X11255394Y-18937747D01*
X11287695Y-18984270D01*
X11277639Y-19040008D01*
X11255394Y-19062253D01*
X11168872Y-19117857D01*
X11168868Y-19117860D01*
X11074623Y-19226626D01*
X11014834Y-19357545D01*
X10994353Y-19500000D01*
X11014834Y-19642454D01*
X11014834Y-19642455D01*
X11014835Y-19642457D01*
X11015514Y-19643943D01*
X11074623Y-19773373D01*
X11168868Y-19882139D01*
X11168869Y-19882140D01*
X11168872Y-19882143D01*
X11218622Y-19914115D01*
X11255394Y-19937747D01*
X11287695Y-19984270D01*
X11277639Y-20040008D01*
X11255394Y-20062253D01*
X11168872Y-20117857D01*
X11168868Y-20117860D01*
X11074623Y-20226626D01*
X11014834Y-20357545D01*
X10994353Y-20500000D01*
X11014834Y-20642454D01*
X11074623Y-20773373D01*
X11147121Y-20857041D01*
X11165006Y-20910780D01*
X11139654Y-20961426D01*
X11091195Y-20979500D01*
X10311473Y-20979500D01*
X10179098Y-21014970D01*
X10179093Y-21014972D01*
X10060405Y-21083497D01*
X9963497Y-21180405D01*
X9894972Y-21299093D01*
X9894970Y-21299098D01*
X9859500Y-21431472D01*
X9859500Y-21568527D01*
X9894970Y-21700901D01*
X9894972Y-21700906D01*
X9935195Y-21770573D01*
X9963497Y-21819594D01*
X10060406Y-21916503D01*
X10179095Y-21985028D01*
X10179096Y-21985028D01*
X10179098Y-21985029D01*
X10234970Y-22000000D01*
X10311472Y-22020499D01*
X10311473Y-22020500D01*
X10311475Y-22020500D01*
X11091195Y-22020500D01*
X11143521Y-22042174D01*
X11165195Y-22094500D01*
X11147121Y-22142959D01*
X11074623Y-22226626D01*
X11014834Y-22357545D01*
X10994353Y-22500000D01*
X11014834Y-22642454D01*
X11074623Y-22773373D01*
X11168868Y-22882139D01*
X11168869Y-22882140D01*
X11168872Y-22882143D01*
X11255394Y-22937747D01*
X11287695Y-22984270D01*
X11277639Y-23040008D01*
X11255394Y-23062253D01*
X11168872Y-23117857D01*
X11168868Y-23117860D01*
X11074623Y-23226626D01*
X11014834Y-23357545D01*
X10994353Y-23500000D01*
X11014834Y-23642454D01*
X11074623Y-23773373D01*
X11168868Y-23882139D01*
X11168869Y-23882140D01*
X11168872Y-23882143D01*
X11289947Y-23959953D01*
X11372764Y-23984270D01*
X11428035Y-24000499D01*
X11428037Y-24000500D01*
X11428039Y-24000500D01*
X11571963Y-24000500D01*
X11571964Y-24000499D01*
X11710053Y-23959953D01*
X11831128Y-23882143D01*
X11925377Y-23773373D01*
X11985165Y-23642457D01*
X12005647Y-23500000D01*
X11985165Y-23357543D01*
X11925377Y-23226627D01*
X11831128Y-23117857D01*
X11744605Y-23062252D01*
X11712304Y-23015730D01*
X11722360Y-22959993D01*
X11744606Y-22937747D01*
X11831128Y-22882143D01*
X11925377Y-22773373D01*
X11985165Y-22642457D01*
X12005647Y-22500000D01*
X11985165Y-22357543D01*
X11925377Y-22226627D01*
X11837581Y-22125304D01*
X11831131Y-22117860D01*
X11831129Y-22117859D01*
X11831128Y-22117857D01*
X11762757Y-22073917D01*
X11730457Y-22027396D01*
X11740513Y-21971658D01*
X11765764Y-21947581D01*
X11819594Y-21916503D01*
X11916503Y-21819594D01*
X11944805Y-21770573D01*
X11989736Y-21736095D01*
X12045889Y-21743487D01*
X12070026Y-21770034D01*
X12071761Y-21768920D01*
X12074621Y-21773371D01*
X12168868Y-21882139D01*
X12168869Y-21882140D01*
X12168872Y-21882143D01*
X12289947Y-21959953D01*
X12375346Y-21985028D01*
X12428035Y-22000499D01*
X12428037Y-22000500D01*
X12428039Y-22000500D01*
X12571963Y-22000500D01*
X12571964Y-22000499D01*
X12710053Y-21959953D01*
X12831128Y-21882143D01*
X12925377Y-21773373D01*
X12932687Y-21757365D01*
X12974139Y-21718772D01*
X13030740Y-21720793D01*
X13067312Y-21757365D01*
X13074623Y-21773373D01*
X13132932Y-21840666D01*
X13168868Y-21882139D01*
X13168869Y-21882140D01*
X13168872Y-21882143D01*
X13255394Y-21937747D01*
X13287695Y-21984270D01*
X13277639Y-22040008D01*
X13255394Y-22062253D01*
X13168872Y-22117857D01*
X13168868Y-22117860D01*
X13074623Y-22226626D01*
X13014834Y-22357545D01*
X12994353Y-22500000D01*
X13014834Y-22642454D01*
X13074623Y-22773373D01*
X13168868Y-22882139D01*
X13168869Y-22882140D01*
X13168872Y-22882143D01*
X13255394Y-22937747D01*
X13287695Y-22984270D01*
X13277639Y-23040008D01*
X13255394Y-23062253D01*
X13168872Y-23117857D01*
X13168868Y-23117860D01*
X13074623Y-23226626D01*
X13014834Y-23357545D01*
X12994353Y-23500000D01*
X13014834Y-23642454D01*
X13074623Y-23773373D01*
X13168868Y-23882139D01*
X13168869Y-23882140D01*
X13168872Y-23882143D01*
X13255394Y-23937747D01*
X13287695Y-23984270D01*
X13277639Y-24040008D01*
X13255394Y-24062253D01*
X13168872Y-24117857D01*
X13168868Y-24117860D01*
X13074622Y-24226627D01*
X13067312Y-24242635D01*
X13025859Y-24281228D01*
X12969258Y-24279205D01*
X12932688Y-24242635D01*
X12925377Y-24226627D01*
X12831131Y-24117860D01*
X12831129Y-24117859D01*
X12831128Y-24117857D01*
X12774182Y-24081260D01*
X12710054Y-24040047D01*
X12710050Y-24040046D01*
X12571964Y-23999500D01*
X12571961Y-23999500D01*
X12428039Y-23999500D01*
X12428036Y-23999500D01*
X12289949Y-24040046D01*
X12289945Y-24040047D01*
X12168875Y-24117855D01*
X12168868Y-24117860D01*
X12074623Y-24226626D01*
X12014834Y-24357545D01*
X11994353Y-24500000D01*
X12014834Y-24642454D01*
X12074623Y-24773373D01*
X12168390Y-24881587D01*
X12186275Y-24935326D01*
X12160923Y-24985972D01*
X12107184Y-25003857D01*
X12105912Y-25003755D01*
X12058046Y-24999500D01*
X11941965Y-24999500D01*
X11941946Y-24999501D01*
X11822588Y-25010112D01*
X11822577Y-25010114D01*
X11659556Y-25056761D01*
X11626951Y-25066091D01*
X11568443Y-25096653D01*
X11446590Y-25160303D01*
X11288891Y-25288890D01*
X11288890Y-25288891D01*
X11160303Y-25446590D01*
X11122585Y-25518798D01*
X11066091Y-25626951D01*
X11066091Y-25626952D01*
X11010114Y-25822577D01*
X11010112Y-25822588D01*
X10999500Y-25941945D01*
X10999500Y-26819746D01*
X11011133Y-26878232D01*
X11040608Y-26922343D01*
X11055448Y-26944552D01*
X11078497Y-26959953D01*
X11121767Y-26988866D01*
X11121768Y-26988866D01*
X11121769Y-26988867D01*
X11180252Y-27000500D01*
X12058036Y-27000499D01*
X12058038Y-27000498D01*
X12058053Y-27000498D01*
X12177411Y-26989887D01*
X12177415Y-26989886D01*
X12177418Y-26989886D01*
X12177420Y-26989885D01*
X12177422Y-26989885D01*
X12193892Y-26985172D01*
X12373049Y-26933909D01*
X12553407Y-26839698D01*
X12711109Y-26711109D01*
X12839698Y-26553407D01*
X12860798Y-26513011D01*
X12904234Y-26476668D01*
X12960649Y-26481683D01*
X12996994Y-26525120D01*
X12999635Y-26536742D01*
X13014834Y-26642454D01*
X13014834Y-26642455D01*
X13014835Y-26642457D01*
X13046187Y-26711108D01*
X13074623Y-26773373D01*
X13168868Y-26882139D01*
X13168869Y-26882140D01*
X13168872Y-26882143D01*
X13241491Y-26928812D01*
X13289943Y-26959951D01*
X13289947Y-26959953D01*
X13378738Y-26986024D01*
X13428035Y-27000499D01*
X13428037Y-27000500D01*
X13428039Y-27000500D01*
X13571963Y-27000500D01*
X13571964Y-27000499D01*
X13710053Y-26959953D01*
X13831128Y-26882143D01*
X13925377Y-26773373D01*
X13932687Y-26757365D01*
X13974139Y-26718772D01*
X14030740Y-26720793D01*
X14067312Y-26757365D01*
X14074623Y-26773373D01*
X14114805Y-26819746D01*
X14168868Y-26882139D01*
X14168869Y-26882140D01*
X14168872Y-26882143D01*
X14241491Y-26928812D01*
X14289943Y-26959951D01*
X14289947Y-26959953D01*
X14378738Y-26986024D01*
X14428035Y-27000499D01*
X14428037Y-27000500D01*
X14428039Y-27000500D01*
X14571963Y-27000500D01*
X14571964Y-27000499D01*
X14710053Y-26959953D01*
X14831128Y-26882143D01*
X14925377Y-26773373D01*
X14932687Y-26757365D01*
X14974139Y-26718772D01*
X15030740Y-26720793D01*
X15067312Y-26757365D01*
X15074623Y-26773373D01*
X15114805Y-26819746D01*
X15168868Y-26882139D01*
X15168869Y-26882140D01*
X15168872Y-26882143D01*
X15289947Y-26959953D01*
X15332470Y-26972438D01*
X15376568Y-27007975D01*
X15382623Y-27064288D01*
X15347085Y-27108388D01*
X15345216Y-27109374D01*
X15261657Y-27151950D01*
X15171951Y-27241656D01*
X15114353Y-27354698D01*
X15094508Y-27480000D01*
X15114353Y-27605301D01*
X15114353Y-27605302D01*
X15114354Y-27605304D01*
X15171950Y-27718342D01*
X15261658Y-27808050D01*
X15374696Y-27865646D01*
X15500000Y-27885492D01*
X15625304Y-27865646D01*
X15738342Y-27808050D01*
X15828050Y-27718342D01*
X15885646Y-27605304D01*
X15905492Y-27480000D01*
X15885646Y-27354696D01*
X15828050Y-27241658D01*
X15738342Y-27151950D01*
X15654783Y-27109374D01*
X15618001Y-27066307D01*
X15622445Y-27009844D01*
X15665512Y-26973062D01*
X15667459Y-26972459D01*
X15710053Y-26959953D01*
X15831128Y-26882143D01*
X15925377Y-26773373D01*
X15932687Y-26757365D01*
X15974139Y-26718772D01*
X16030740Y-26720793D01*
X16067312Y-26757365D01*
X16074623Y-26773373D01*
X16114805Y-26819746D01*
X16168868Y-26882139D01*
X16168869Y-26882140D01*
X16168872Y-26882143D01*
X16241491Y-26928812D01*
X16289943Y-26959951D01*
X16289947Y-26959953D01*
X16378738Y-26986024D01*
X16428035Y-27000499D01*
X16428037Y-27000500D01*
X16428039Y-27000500D01*
X16571963Y-27000500D01*
X16571964Y-27000499D01*
X16710053Y-26959953D01*
X16831128Y-26882143D01*
X16925377Y-26773373D01*
X16932687Y-26757365D01*
X16974139Y-26718772D01*
X17030740Y-26720793D01*
X17067312Y-26757365D01*
X17074623Y-26773373D01*
X17114805Y-26819746D01*
X17168868Y-26882139D01*
X17168869Y-26882140D01*
X17168872Y-26882143D01*
X17241491Y-26928812D01*
X17289943Y-26959951D01*
X17289947Y-26959953D01*
X17378738Y-26986024D01*
X17428035Y-27000499D01*
X17428037Y-27000500D01*
X17428039Y-27000500D01*
X17571963Y-27000500D01*
X17571964Y-27000499D01*
X17710053Y-26959953D01*
X17831128Y-26882143D01*
X17925377Y-26773373D01*
X17932687Y-26757365D01*
X17974139Y-26718772D01*
X18030740Y-26720793D01*
X18067312Y-26757365D01*
X18074623Y-26773373D01*
X18114805Y-26819746D01*
X18168868Y-26882139D01*
X18168869Y-26882140D01*
X18168872Y-26882143D01*
X18241491Y-26928812D01*
X18289943Y-26959951D01*
X18289947Y-26959953D01*
X18378738Y-26986024D01*
X18428035Y-27000499D01*
X18428037Y-27000500D01*
X18428039Y-27000500D01*
X18571963Y-27000500D01*
X18571964Y-27000499D01*
X18710053Y-26959953D01*
X18831128Y-26882143D01*
X18925377Y-26773373D01*
X18932687Y-26757365D01*
X18974139Y-26718772D01*
X19030740Y-26720793D01*
X19067312Y-26757365D01*
X19074623Y-26773373D01*
X19114805Y-26819746D01*
X19168868Y-26882139D01*
X19168869Y-26882140D01*
X19168872Y-26882143D01*
X19241491Y-26928812D01*
X19289943Y-26959951D01*
X19289947Y-26959953D01*
X19378738Y-26986024D01*
X19428035Y-27000499D01*
X19428037Y-27000500D01*
X19428039Y-27000500D01*
X19571963Y-27000500D01*
X19571964Y-27000499D01*
X19710053Y-26959953D01*
X19831128Y-26882143D01*
X19925377Y-26773373D01*
X19932687Y-26757365D01*
X19974139Y-26718772D01*
X20030740Y-26720793D01*
X20067312Y-26757365D01*
X20074623Y-26773373D01*
X20114805Y-26819746D01*
X20168868Y-26882139D01*
X20168869Y-26882140D01*
X20168872Y-26882143D01*
X20241491Y-26928812D01*
X20289943Y-26959951D01*
X20289947Y-26959953D01*
X20378738Y-26986024D01*
X20428035Y-27000499D01*
X20428037Y-27000500D01*
X20428039Y-27000500D01*
X20571963Y-27000500D01*
X20571964Y-27000499D01*
X20710053Y-26959953D01*
X20831128Y-26882143D01*
X20925377Y-26773373D01*
X20932687Y-26757365D01*
X20974139Y-26718772D01*
X21030740Y-26720793D01*
X21067312Y-26757365D01*
X21074623Y-26773373D01*
X21114805Y-26819746D01*
X21168868Y-26882139D01*
X21168869Y-26882140D01*
X21168872Y-26882143D01*
X21241491Y-26928812D01*
X21289943Y-26959951D01*
X21289947Y-26959953D01*
X21378738Y-26986024D01*
X21428035Y-27000499D01*
X21428037Y-27000500D01*
X21428039Y-27000500D01*
X21571963Y-27000500D01*
X21571964Y-27000499D01*
X21710053Y-26959953D01*
X21831128Y-26882143D01*
X21925377Y-26773373D01*
X21932687Y-26757365D01*
X21974139Y-26718772D01*
X22030740Y-26720793D01*
X22067312Y-26757365D01*
X22074623Y-26773373D01*
X22114805Y-26819746D01*
X22168868Y-26882139D01*
X22168869Y-26882140D01*
X22168872Y-26882143D01*
X22241491Y-26928812D01*
X22289943Y-26959951D01*
X22289947Y-26959953D01*
X22378738Y-26986024D01*
X22428035Y-27000499D01*
X22428037Y-27000500D01*
X22428039Y-27000500D01*
X22571963Y-27000500D01*
X22571964Y-27000499D01*
X22710053Y-26959953D01*
X22831128Y-26882143D01*
X22925377Y-26773373D01*
X22932687Y-26757365D01*
X22974139Y-26718772D01*
X23030740Y-26720793D01*
X23067312Y-26757365D01*
X23074623Y-26773373D01*
X23114805Y-26819746D01*
X23168868Y-26882139D01*
X23168869Y-26882140D01*
X23168872Y-26882143D01*
X23241491Y-26928812D01*
X23289943Y-26959951D01*
X23289947Y-26959953D01*
X23378738Y-26986024D01*
X23428035Y-27000499D01*
X23428037Y-27000500D01*
X23428039Y-27000500D01*
X23571963Y-27000500D01*
X23571964Y-27000499D01*
X23710053Y-26959953D01*
X23831128Y-26882143D01*
X23925377Y-26773373D01*
X23932687Y-26757365D01*
X23974139Y-26718772D01*
X24030740Y-26720793D01*
X24067312Y-26757365D01*
X24074623Y-26773373D01*
X24114805Y-26819746D01*
X24168868Y-26882139D01*
X24168869Y-26882140D01*
X24168872Y-26882143D01*
X24241491Y-26928812D01*
X24289943Y-26959951D01*
X24289947Y-26959953D01*
X24378738Y-26986024D01*
X24428035Y-27000499D01*
X24428037Y-27000500D01*
X24428039Y-27000500D01*
X24571963Y-27000500D01*
X24571964Y-27000499D01*
X24710053Y-26959953D01*
X24831128Y-26882143D01*
X24925377Y-26773373D01*
X24932687Y-26757365D01*
X24974139Y-26718772D01*
X25030740Y-26720793D01*
X25067312Y-26757365D01*
X25074623Y-26773373D01*
X25114805Y-26819746D01*
X25168868Y-26882139D01*
X25168869Y-26882140D01*
X25168872Y-26882143D01*
X25241491Y-26928812D01*
X25289943Y-26959951D01*
X25289947Y-26959953D01*
X25378738Y-26986024D01*
X25428035Y-27000499D01*
X25428037Y-27000500D01*
X25428039Y-27000500D01*
X25571963Y-27000500D01*
X25571964Y-27000499D01*
X25710053Y-26959953D01*
X25831128Y-26882143D01*
X25925377Y-26773373D01*
X25985165Y-26642457D01*
X26000481Y-26535930D01*
X26029380Y-26487222D01*
X26084257Y-26473215D01*
X26132967Y-26502115D01*
X26138989Y-26511578D01*
X26152007Y-26535932D01*
X26164090Y-26558538D01*
X26289117Y-26710883D01*
X26441462Y-26835910D01*
X26518426Y-26877048D01*
X26615268Y-26928812D01*
X26615270Y-26928812D01*
X26615273Y-26928814D01*
X26803868Y-26986024D01*
X27000000Y-27005341D01*
X27196132Y-26986024D01*
X27384727Y-26928814D01*
X27558538Y-26835910D01*
X27710883Y-26710883D01*
X27835910Y-26558538D01*
X27928814Y-26384727D01*
X27986024Y-26196132D01*
X28005341Y-26000000D01*
X27986024Y-25803868D01*
X27928814Y-25615273D01*
X27928812Y-25615270D01*
X27928812Y-25615268D01*
X27867199Y-25500000D01*
X27835910Y-25441462D01*
X27710883Y-25289117D01*
X27558538Y-25164090D01*
X27548301Y-25158618D01*
X27513024Y-25139762D01*
X27477093Y-25095981D01*
X27482645Y-25039617D01*
X27526426Y-25003686D01*
X27547907Y-25000500D01*
X27571963Y-25000500D01*
X27571964Y-25000499D01*
X27710053Y-24959953D01*
X27831128Y-24882143D01*
X27925377Y-24773373D01*
X27985165Y-24642457D01*
X28005647Y-24500000D01*
X27985165Y-24357543D01*
X27925377Y-24226627D01*
X27831128Y-24117857D01*
X27744605Y-24062252D01*
X27712304Y-24015730D01*
X27722360Y-23959993D01*
X27744606Y-23937747D01*
X27831128Y-23882143D01*
X27925377Y-23773373D01*
X27985165Y-23642457D01*
X28005647Y-23500000D01*
X27985165Y-23357543D01*
X27925377Y-23226627D01*
X27831128Y-23117857D01*
X27744605Y-23062252D01*
X27712304Y-23015730D01*
X27722360Y-22959993D01*
X27744606Y-22937747D01*
X27831128Y-22882143D01*
X27925377Y-22773373D01*
X27985165Y-22642457D01*
X28005647Y-22500000D01*
X27985165Y-22357543D01*
X27925377Y-22226627D01*
X27837581Y-22125304D01*
X27831131Y-22117860D01*
X27831129Y-22117859D01*
X27831128Y-22117857D01*
X27744605Y-22062252D01*
X27712304Y-22015730D01*
X27722360Y-21959993D01*
X27744606Y-21937747D01*
X27831128Y-21882143D01*
X27925377Y-21773373D01*
X27985165Y-21642457D01*
X28005647Y-21500000D01*
X27985165Y-21357543D01*
X27925377Y-21226627D01*
X27831128Y-21117857D01*
X27744605Y-21062252D01*
X27712304Y-21015730D01*
X27722360Y-20959993D01*
X27744606Y-20937747D01*
X27831128Y-20882143D01*
X27925377Y-20773373D01*
X27985165Y-20642457D01*
X28005647Y-20500000D01*
X27985165Y-20357543D01*
X27925377Y-20226627D01*
X27831128Y-20117857D01*
X27744605Y-20062252D01*
X27712304Y-20015730D01*
X27722360Y-19959993D01*
X27744606Y-19937747D01*
X27831128Y-19882143D01*
X27925377Y-19773373D01*
X27985165Y-19642457D01*
X28005647Y-19500000D01*
X27985165Y-19357543D01*
X27925377Y-19226627D01*
X27831128Y-19117857D01*
X27744605Y-19062252D01*
X27712304Y-19015730D01*
X27722360Y-18959993D01*
X27744606Y-18937747D01*
X27831128Y-18882143D01*
X27925377Y-18773373D01*
X27985165Y-18642457D01*
X28005647Y-18500000D01*
X27985165Y-18357543D01*
X27925377Y-18226627D01*
X27864229Y-18156058D01*
X27831131Y-18117860D01*
X27831129Y-18117859D01*
X27831128Y-18117857D01*
X27744605Y-18062252D01*
X27712304Y-18015730D01*
X27722360Y-17959993D01*
X27744606Y-17937747D01*
X27831128Y-17882143D01*
X27925377Y-17773373D01*
X27985165Y-17642457D01*
X28005647Y-17500000D01*
X27985165Y-17357543D01*
X27925377Y-17226627D01*
X27893882Y-17190280D01*
X27831131Y-17117860D01*
X27831129Y-17117859D01*
X27831128Y-17117857D01*
X27744605Y-17062252D01*
X27712304Y-17015730D01*
X27722360Y-16959993D01*
X27744606Y-16937747D01*
X27831128Y-16882143D01*
X27925377Y-16773373D01*
X27985165Y-16642457D01*
X28005647Y-16500000D01*
X27985165Y-16357543D01*
X27925377Y-16226627D01*
X27831128Y-16117857D01*
X27744605Y-16062252D01*
X27712304Y-16015730D01*
X27722360Y-15959993D01*
X27744606Y-15937747D01*
X27831128Y-15882143D01*
X27925377Y-15773373D01*
X27985165Y-15642457D01*
X28005647Y-15500000D01*
X27985165Y-15357543D01*
X27925377Y-15226627D01*
X27831128Y-15117857D01*
X27744605Y-15062252D01*
X27712304Y-15015730D01*
X27722360Y-14959993D01*
X27744606Y-14937747D01*
X27746178Y-14936737D01*
X27831128Y-14882143D01*
X27925377Y-14773373D01*
X27985165Y-14642457D01*
X28005647Y-14500000D01*
X27985165Y-14357543D01*
X27925377Y-14226627D01*
X27864229Y-14156058D01*
X27831131Y-14117860D01*
X27831129Y-14117859D01*
X27831128Y-14117857D01*
X27755410Y-14069196D01*
X27710054Y-14040047D01*
X27710050Y-14040046D01*
X27571964Y-13999500D01*
X27571961Y-13999500D01*
X27547907Y-13999500D01*
X27495581Y-13977826D01*
X27473907Y-13925500D01*
X27495581Y-13873174D01*
X27513024Y-13860238D01*
X27522391Y-13855231D01*
X27558538Y-13835910D01*
X27710883Y-13710883D01*
X27835910Y-13558538D01*
X27928814Y-13384727D01*
X27986024Y-13196132D01*
X28005341Y-13000000D01*
X27986024Y-12803868D01*
X27928814Y-12615273D01*
X27928812Y-12615270D01*
X27928812Y-12615268D01*
X27867199Y-12500000D01*
X27835910Y-12441462D01*
X27710883Y-12289117D01*
X27558538Y-12164090D01*
X27518036Y-12142441D01*
X27384731Y-12071187D01*
X27196133Y-12013976D01*
X27000000Y-11994659D01*
X26803866Y-12013976D01*
X26615268Y-12071187D01*
X26441463Y-12164089D01*
X26289117Y-12289117D01*
X26164089Y-12441463D01*
X26138988Y-12488422D01*
X26095207Y-12524351D01*
X26038842Y-12518798D01*
X26002913Y-12475017D01*
X26000482Y-12464078D01*
X25985165Y-12357543D01*
X25925377Y-12226627D01*
X25897770Y-12194767D01*
X25831131Y-12117860D01*
X25831129Y-12117859D01*
X25831128Y-12117857D01*
X25758508Y-12071187D01*
X25710054Y-12040047D01*
X25710050Y-12040046D01*
X25571964Y-11999500D01*
X25571961Y-11999500D01*
X25428039Y-11999500D01*
X25428036Y-11999500D01*
X25289949Y-12040046D01*
X25289945Y-12040047D01*
X25168875Y-12117855D01*
X25168868Y-12117860D01*
X25074622Y-12226627D01*
X25067312Y-12242635D01*
X25025859Y-12281228D01*
X24969258Y-12279205D01*
X24932688Y-12242635D01*
X24925377Y-12226627D01*
X24831131Y-12117860D01*
X24831129Y-12117859D01*
X24831128Y-12117857D01*
X24758508Y-12071187D01*
X24710054Y-12040047D01*
X24710050Y-12040046D01*
X24571964Y-11999500D01*
X24571961Y-11999500D01*
X24428039Y-11999500D01*
X24428036Y-11999500D01*
X24289949Y-12040046D01*
X24289945Y-12040047D01*
X24168875Y-12117855D01*
X24168868Y-12117860D01*
X24074622Y-12226627D01*
X24067312Y-12242635D01*
X24025859Y-12281228D01*
X23969258Y-12279205D01*
X23932688Y-12242635D01*
X23925377Y-12226627D01*
X23831131Y-12117860D01*
X23831129Y-12117859D01*
X23831128Y-12117857D01*
X23758508Y-12071187D01*
X23710054Y-12040047D01*
X23710050Y-12040046D01*
X23571964Y-11999500D01*
X23571961Y-11999500D01*
X23428039Y-11999500D01*
X23428036Y-11999500D01*
X23289949Y-12040046D01*
X23289945Y-12040047D01*
X23168875Y-12117855D01*
X23168868Y-12117860D01*
X23074622Y-12226627D01*
X23067312Y-12242635D01*
X23025859Y-12281228D01*
X22969258Y-12279205D01*
X22932688Y-12242635D01*
X22925377Y-12226627D01*
X22831131Y-12117860D01*
X22831129Y-12117859D01*
X22831128Y-12117857D01*
X22758508Y-12071187D01*
X22710054Y-12040047D01*
X22710050Y-12040046D01*
X22571964Y-11999500D01*
X22571961Y-11999500D01*
X22428039Y-11999500D01*
X22428036Y-11999500D01*
X22289949Y-12040046D01*
X22289945Y-12040047D01*
X22168875Y-12117855D01*
X22168868Y-12117860D01*
X22074622Y-12226627D01*
X22067312Y-12242635D01*
X22025859Y-12281228D01*
X21969258Y-12279205D01*
X21932688Y-12242635D01*
X21925377Y-12226627D01*
X21831131Y-12117860D01*
X21831129Y-12117859D01*
X21831128Y-12117857D01*
X21758508Y-12071187D01*
X21710054Y-12040047D01*
X21710050Y-12040046D01*
X21571964Y-11999500D01*
X21571961Y-11999500D01*
X21428039Y-11999500D01*
X21428036Y-11999500D01*
X21289949Y-12040046D01*
X21289945Y-12040047D01*
X21168875Y-12117855D01*
X21168868Y-12117860D01*
X21074622Y-12226627D01*
X21067312Y-12242635D01*
X21025859Y-12281228D01*
X20969258Y-12279205D01*
X20932688Y-12242635D01*
X20925377Y-12226627D01*
X20831131Y-12117860D01*
X20831129Y-12117859D01*
X20831128Y-12117857D01*
X20758508Y-12071187D01*
X20710054Y-12040047D01*
X20710050Y-12040046D01*
X20571964Y-11999500D01*
X20571961Y-11999500D01*
X20428039Y-11999500D01*
X20428036Y-11999500D01*
X20289949Y-12040046D01*
X20289945Y-12040047D01*
X20168875Y-12117855D01*
X20168868Y-12117860D01*
X20074622Y-12226627D01*
X20067312Y-12242635D01*
X20025859Y-12281228D01*
X19969258Y-12279205D01*
X19932688Y-12242635D01*
X19925377Y-12226627D01*
X19831131Y-12117860D01*
X19831129Y-12117859D01*
X19831128Y-12117857D01*
X19758508Y-12071187D01*
X19710054Y-12040047D01*
X19710050Y-12040046D01*
X19571964Y-11999500D01*
X19571961Y-11999500D01*
X19428039Y-11999500D01*
X19428036Y-11999500D01*
X19289949Y-12040046D01*
X19289945Y-12040047D01*
X19168875Y-12117855D01*
X19168868Y-12117860D01*
X19074622Y-12226627D01*
X19067312Y-12242635D01*
X19025859Y-12281228D01*
X18969258Y-12279205D01*
X18932688Y-12242635D01*
X18925377Y-12226627D01*
X18831131Y-12117860D01*
X18831129Y-12117859D01*
X18831128Y-12117857D01*
X18758508Y-12071187D01*
X18710054Y-12040047D01*
X18710050Y-12040046D01*
X18571964Y-11999500D01*
X18571961Y-11999500D01*
X18428039Y-11999500D01*
X18428036Y-11999500D01*
X18289949Y-12040046D01*
X18289945Y-12040047D01*
X18168875Y-12117855D01*
X18168868Y-12117860D01*
X18074622Y-12226627D01*
X18067312Y-12242635D01*
X18025859Y-12281228D01*
X17969258Y-12279205D01*
X17932688Y-12242635D01*
X17925377Y-12226627D01*
X17831131Y-12117860D01*
X17831129Y-12117859D01*
X17831128Y-12117857D01*
X17758508Y-12071187D01*
X17710054Y-12040047D01*
X17710050Y-12040046D01*
X17571964Y-11999500D01*
X17571961Y-11999500D01*
X17428039Y-11999500D01*
X17428036Y-11999500D01*
X17289949Y-12040046D01*
X17289945Y-12040047D01*
X17168875Y-12117855D01*
X17168868Y-12117860D01*
X17074622Y-12226627D01*
X17067312Y-12242635D01*
X17025859Y-12281228D01*
X16969258Y-12279205D01*
X16932688Y-12242635D01*
X16925377Y-12226627D01*
X16831131Y-12117860D01*
X16831129Y-12117859D01*
X16831128Y-12117857D01*
X16758508Y-12071187D01*
X16710054Y-12040047D01*
X16710050Y-12040046D01*
X16571964Y-11999500D01*
X16571961Y-11999500D01*
X16428039Y-11999500D01*
X16428036Y-11999500D01*
X16289949Y-12040046D01*
X16289945Y-12040047D01*
X16168875Y-12117855D01*
X16168868Y-12117860D01*
X16074622Y-12226627D01*
X16067312Y-12242635D01*
X16025859Y-12281228D01*
X15969258Y-12279205D01*
X15932688Y-12242635D01*
X15925377Y-12226627D01*
X15831131Y-12117860D01*
X15831129Y-12117859D01*
X15831128Y-12117857D01*
X15758508Y-12071187D01*
X15710054Y-12040047D01*
X15710050Y-12040046D01*
X15571964Y-11999500D01*
X15571961Y-11999500D01*
X15428039Y-11999500D01*
X15370348Y-12016439D01*
X15314035Y-12010384D01*
X15278497Y-11966284D01*
X15275500Y-11945436D01*
X15275500Y-11545200D01*
X15233557Y-11443942D01*
X15233556Y-11443940D01*
X14106059Y-10316444D01*
X14106057Y-10316442D01*
X14046742Y-10291873D01*
X14004800Y-10274500D01*
X6695200Y-10274500D01*
X6623598Y-10304158D01*
X6593945Y-10316440D01*
X6593942Y-10316442D01*
X5243942Y-11666443D01*
X5166442Y-11743943D01*
X5124500Y-11845200D01*
X5124500Y-25378456D01*
X5102826Y-25430782D01*
X5071951Y-25461656D01*
X5014353Y-25574698D01*
X4994508Y-25700000D01*
X0Y-25700000D01*
X0Y-23850000D01*
X1725000Y-23850000D01*
X3815000Y-23850000D01*
X3815000Y-21950000D01*
X1725000Y-21950000D01*
X1725000Y-23850000D01*
X0Y-23850000D01*
X0Y-8399001D01*
X14144500Y-8399001D01*
X14144500Y-9425998D01*
X14160141Y-9504635D01*
X14160144Y-9504645D01*
X14181814Y-9556962D01*
X14181816Y-9556966D01*
X14181817Y-9556967D01*
X14218445Y-9615261D01*
X14293033Y-9668183D01*
X14345359Y-9689857D01*
X14424000Y-9705500D01*
X14424002Y-9705500D01*
X15575998Y-9705500D01*
X15576000Y-9705500D01*
X15654641Y-9689857D01*
X15706967Y-9668183D01*
X15765261Y-9631555D01*
X15818183Y-9556967D01*
X15839857Y-9504641D01*
X15855500Y-9426000D01*
X15855500Y-8399000D01*
X15839857Y-8320359D01*
X15818183Y-8268033D01*
X15781555Y-8209739D01*
X15706967Y-8156817D01*
X15706966Y-8156816D01*
X15654645Y-8135144D01*
X15654635Y-8135141D01*
X15601974Y-8124666D01*
X15576000Y-8119500D01*
X14424000Y-8119500D01*
X14401707Y-8123934D01*
X14345364Y-8135141D01*
X14345354Y-8135144D01*
X14293037Y-8156814D01*
X14234739Y-8193445D01*
X14234737Y-8193447D01*
X14181816Y-8268033D01*
X14160144Y-8320354D01*
X14160141Y-8320364D01*
X14144500Y-8399001D01*
X0Y-8399001D01*
X0Y-5900000D01*
X17769196Y-5900000D01*
X17790280Y-6033126D01*
X17851471Y-6153219D01*
X17902826Y-6204574D01*
X17924500Y-6256900D01*
X17924500Y-7654800D01*
X17959932Y-7740339D01*
X17966442Y-7756056D01*
X17966444Y-7756059D01*
X18543941Y-8333557D01*
X18543944Y-8333559D01*
X18571003Y-8344767D01*
X18645200Y-8375500D01*
X21155233Y-8375500D01*
X21207559Y-8397174D01*
X21297826Y-8487441D01*
X21319500Y-8539767D01*
X21319500Y-9325998D01*
X21335141Y-9404635D01*
X21335144Y-9404645D01*
X21356814Y-9456962D01*
X21356816Y-9456966D01*
X21356817Y-9456967D01*
X21393445Y-9515261D01*
X21468033Y-9568183D01*
X21520359Y-9589857D01*
X21599000Y-9605500D01*
X21599002Y-9605500D01*
X22650998Y-9605500D01*
X22651000Y-9605500D01*
X22729641Y-9589857D01*
X22781967Y-9568183D01*
X22840261Y-9531555D01*
X22883936Y-9470000D01*
X28594508Y-9470000D01*
X28614353Y-9595301D01*
X28614353Y-9595302D01*
X28614354Y-9595304D01*
X28671950Y-9708342D01*
X28761658Y-9798050D01*
X28874696Y-9855646D01*
X29000000Y-9875492D01*
X29125304Y-9855646D01*
X29238342Y-9798050D01*
X29328050Y-9708342D01*
X29385646Y-9595304D01*
X29405492Y-9470000D01*
X29385646Y-9344696D01*
X29328050Y-9231658D01*
X29238342Y-9141950D01*
X29125304Y-9084354D01*
X29125302Y-9084353D01*
X29125301Y-9084353D01*
X29000000Y-9064508D01*
X28874698Y-9084353D01*
X28761656Y-9141951D01*
X28671951Y-9231656D01*
X28614353Y-9344698D01*
X28594508Y-9470000D01*
X22883936Y-9470000D01*
X22893183Y-9456967D01*
X22914857Y-9404641D01*
X22930500Y-9326000D01*
X22930500Y-8474000D01*
X22914857Y-8395359D01*
X22906631Y-8375499D01*
X22893185Y-8343037D01*
X22893183Y-8343035D01*
X22893183Y-8343033D01*
X22856555Y-8284739D01*
X22781967Y-8231817D01*
X22781966Y-8231816D01*
X22729645Y-8210144D01*
X22729635Y-8210141D01*
X22676974Y-8199666D01*
X22651000Y-8194500D01*
X22650998Y-8194500D01*
X21814768Y-8194500D01*
X21762442Y-8172826D01*
X21456059Y-7866444D01*
X21456057Y-7866442D01*
X21396742Y-7841873D01*
X21354800Y-7824500D01*
X21354799Y-7824500D01*
X18844768Y-7824500D01*
X18792442Y-7802826D01*
X18713617Y-7724001D01*
X26494500Y-7724001D01*
X26494500Y-8575998D01*
X26510141Y-8654635D01*
X26510144Y-8654645D01*
X26531814Y-8706962D01*
X26531816Y-8706966D01*
X26531817Y-8706967D01*
X26568445Y-8765261D01*
X26643033Y-8818183D01*
X26695359Y-8839857D01*
X26774000Y-8855500D01*
X26774002Y-8855500D01*
X28075998Y-8855500D01*
X28076000Y-8855500D01*
X28154641Y-8839857D01*
X28206967Y-8818183D01*
X28265261Y-8781555D01*
X28318183Y-8706967D01*
X28339857Y-8654641D01*
X28355500Y-8576000D01*
X28355500Y-7724000D01*
X28339857Y-7645359D01*
X28318183Y-7593033D01*
X28281555Y-7534739D01*
X28206967Y-7481817D01*
X28206966Y-7481816D01*
X28154645Y-7460144D01*
X28154635Y-7460141D01*
X28101974Y-7449666D01*
X28076000Y-7444500D01*
X26774000Y-7444500D01*
X26751707Y-7448934D01*
X26695364Y-7460141D01*
X26695354Y-7460144D01*
X26643037Y-7481814D01*
X26584739Y-7518445D01*
X26584737Y-7518447D01*
X26531816Y-7593033D01*
X26510144Y-7645354D01*
X26510141Y-7645364D01*
X26494500Y-7724001D01*
X18713617Y-7724001D01*
X18497174Y-7507558D01*
X18475500Y-7455232D01*
X18475500Y-6256900D01*
X18497174Y-6204574D01*
X18508757Y-6192991D01*
X18548528Y-6153220D01*
X18609719Y-6033126D01*
X18630804Y-5900000D01*
X18609719Y-5766874D01*
X18609719Y-5766873D01*
X18548528Y-5646780D01*
X18453219Y-5551471D01*
X18333126Y-5490281D01*
X18333126Y-5490280D01*
X18200000Y-5469196D01*
X18066873Y-5490280D01*
X18066873Y-5490281D01*
X17946780Y-5551471D01*
X17851471Y-5646780D01*
X17790281Y-5766873D01*
X17790280Y-5766873D01*
X17769196Y-5900000D01*
X0Y-5900000D01*
X0Y-3361814D01*
X21674Y-3309488D01*
X74000Y-3287814D01*
X126326Y-3309488D01*
X143847Y-3337374D01*
X186197Y-3458405D01*
X308052Y-3711440D01*
X308054Y-3711444D01*
X308055Y-3711445D01*
X457477Y-3949248D01*
X632584Y-4168825D01*
X831175Y-4367416D01*
X1050752Y-4542523D01*
X1288555Y-4691945D01*
X1288558Y-4691946D01*
X1288559Y-4691947D01*
X1340321Y-4716874D01*
X1541592Y-4813801D01*
X1806682Y-4906560D01*
X1806687Y-4906561D01*
X1806690Y-4906562D01*
X2080486Y-4969054D01*
X2080487Y-4969054D01*
X2080491Y-4969055D01*
X2359575Y-5000500D01*
X2359579Y-5000500D01*
X2640421Y-5000500D01*
X2640425Y-5000500D01*
X2919509Y-4969055D01*
X3193318Y-4906560D01*
X3354957Y-4850000D01*
X6619196Y-4850000D01*
X6640280Y-4983126D01*
X6699831Y-5100000D01*
X6701472Y-5103220D01*
X6796780Y-5198528D01*
X6916873Y-5259718D01*
X6916873Y-5259719D01*
X6935075Y-5262601D01*
X7050000Y-5280804D01*
X7183126Y-5259719D01*
X7303220Y-5198528D01*
X7342074Y-5159674D01*
X7394400Y-5138000D01*
X12693100Y-5138000D01*
X12745426Y-5159674D01*
X12796780Y-5211028D01*
X12916873Y-5272218D01*
X12916873Y-5272219D01*
X12935075Y-5275101D01*
X13050000Y-5293304D01*
X13183126Y-5272219D01*
X13303220Y-5211028D01*
X13354574Y-5159674D01*
X13406900Y-5138000D01*
X18292732Y-5138000D01*
X18345058Y-5159674D01*
X19752826Y-6567442D01*
X19774500Y-6619768D01*
X19774500Y-6780600D01*
X19752826Y-6832926D01*
X19701472Y-6884279D01*
X19701471Y-6884280D01*
X19640281Y-7004373D01*
X19640280Y-7004373D01*
X19619196Y-7137500D01*
X19640280Y-7270626D01*
X19701471Y-7390719D01*
X19701472Y-7390720D01*
X19796780Y-7486028D01*
X19916873Y-7547218D01*
X19916873Y-7547219D01*
X19935075Y-7550101D01*
X20050000Y-7568304D01*
X20183126Y-7547219D01*
X20303220Y-7486028D01*
X20398528Y-7390720D01*
X20459719Y-7270626D01*
X20480804Y-7137500D01*
X20459719Y-7004374D01*
X20459719Y-7004373D01*
X20398528Y-6884280D01*
X20347174Y-6832926D01*
X20325500Y-6780600D01*
X20325500Y-6619768D01*
X20347174Y-6567442D01*
X21317443Y-5597174D01*
X21369769Y-5575500D01*
X27954798Y-5575500D01*
X27954800Y-5575500D01*
X28056058Y-5533557D01*
X28133557Y-5456058D01*
X28133556Y-5456058D01*
X28168517Y-5421097D01*
X28168516Y-5421097D01*
X28542870Y-5046744D01*
X28595196Y-5025071D01*
X28647522Y-5046745D01*
X28667265Y-5094409D01*
X28668285Y-5094248D01*
X28668957Y-5098495D01*
X28669196Y-5099071D01*
X28669196Y-5099999D01*
X28690280Y-5233126D01*
X28751471Y-5353219D01*
X28751472Y-5353220D01*
X28846780Y-5448528D01*
X28966873Y-5509718D01*
X28966873Y-5509719D01*
X29100000Y-5530804D01*
X29105824Y-5530804D01*
X29105824Y-5532876D01*
X29153378Y-5544285D01*
X29162218Y-5551833D01*
X29631442Y-6021057D01*
X29732700Y-6063000D01*
X29842300Y-6063000D01*
X30678456Y-6063000D01*
X30730782Y-6084674D01*
X30761658Y-6115550D01*
X30874696Y-6173146D01*
X31000000Y-6192992D01*
X31125304Y-6173146D01*
X31238342Y-6115550D01*
X31328050Y-6025842D01*
X31385646Y-5912804D01*
X31405492Y-5787500D01*
X31385646Y-5662196D01*
X31328050Y-5549158D01*
X31238342Y-5459450D01*
X31125304Y-5401854D01*
X31125302Y-5401853D01*
X31125301Y-5401853D01*
X31000000Y-5382008D01*
X30994414Y-5382008D01*
X30942088Y-5360334D01*
X30920414Y-5308008D01*
X30942088Y-5255682D01*
X30960815Y-5242075D01*
X30988342Y-5228050D01*
X31019218Y-5197174D01*
X31071544Y-5175500D01*
X34555233Y-5175500D01*
X34607559Y-5197174D01*
X37702826Y-8292441D01*
X37724500Y-8344767D01*
X37724500Y-26955232D01*
X37702826Y-27007558D01*
X37007559Y-27702826D01*
X36955233Y-27724500D01*
X35306900Y-27724500D01*
X35254574Y-27702826D01*
X35203219Y-27651471D01*
X35083126Y-27590281D01*
X35083126Y-27590280D01*
X34950000Y-27569196D01*
X34816873Y-27590280D01*
X34816873Y-27590281D01*
X34696780Y-27651471D01*
X34601471Y-27746780D01*
X34540281Y-27866873D01*
X34540280Y-27866873D01*
X34519196Y-28000000D01*
X34540280Y-28133126D01*
X34601471Y-28253219D01*
X34601472Y-28253220D01*
X34696780Y-28348528D01*
X34816873Y-28409718D01*
X34816873Y-28409719D01*
X34835075Y-28412601D01*
X34950000Y-28430804D01*
X35083126Y-28409719D01*
X35203220Y-28348528D01*
X35254574Y-28297174D01*
X35306900Y-28275500D01*
X37154798Y-28275500D01*
X37154800Y-28275500D01*
X37256058Y-28233557D01*
X37333557Y-28156058D01*
X37333556Y-28156058D01*
X37368517Y-28121097D01*
X37368516Y-28121097D01*
X38233557Y-27256059D01*
X38245841Y-27226400D01*
X38254789Y-27204800D01*
X38275500Y-27154800D01*
X38275500Y-8145201D01*
X38275500Y-8145200D01*
X38271334Y-8135143D01*
X38233558Y-8043942D01*
X34856058Y-4666443D01*
X34844506Y-4661658D01*
X34754800Y-4624500D01*
X34754799Y-4624500D01*
X31071544Y-4624500D01*
X31019218Y-4602826D01*
X30988343Y-4571951D01*
X30988342Y-4571950D01*
X30875304Y-4514354D01*
X30875302Y-4514353D01*
X30875301Y-4514353D01*
X30754884Y-4495281D01*
X30714134Y-4474518D01*
X30606059Y-4366444D01*
X30606057Y-4366442D01*
X30546742Y-4341873D01*
X30504800Y-4324500D01*
X28545200Y-4324500D01*
X28473598Y-4354158D01*
X28443945Y-4366440D01*
X28443942Y-4366442D01*
X28443941Y-4366442D01*
X28443941Y-4366443D01*
X28118438Y-4691947D01*
X27807559Y-5002826D01*
X27755233Y-5024500D01*
X21170201Y-5024500D01*
X21108973Y-5049862D01*
X21108972Y-5049862D01*
X21068944Y-5066441D01*
X21068940Y-5066444D01*
X20102325Y-6033059D01*
X20049999Y-6054733D01*
X19997674Y-6033059D01*
X18593557Y-4628943D01*
X18593555Y-4628942D01*
X18593552Y-4628940D01*
X18582832Y-4624500D01*
X18582831Y-4624500D01*
X18492299Y-4587000D01*
X18492298Y-4587000D01*
X13406900Y-4587000D01*
X13354574Y-4565326D01*
X13303219Y-4513971D01*
X13183126Y-4452781D01*
X13183126Y-4452780D01*
X13050000Y-4431696D01*
X12916873Y-4452780D01*
X12916873Y-4452781D01*
X12796780Y-4513971D01*
X12796779Y-4513972D01*
X12745426Y-4565326D01*
X12693100Y-4587000D01*
X7419400Y-4587000D01*
X7367074Y-4565326D01*
X7303219Y-4501471D01*
X7183126Y-4440281D01*
X7183126Y-4440280D01*
X7050000Y-4419196D01*
X6916873Y-4440280D01*
X6916873Y-4440281D01*
X6796780Y-4501471D01*
X6701471Y-4596780D01*
X6640281Y-4716873D01*
X6640280Y-4716873D01*
X6619196Y-4850000D01*
X3354957Y-4850000D01*
X3458408Y-4813801D01*
X3711445Y-4691945D01*
X3949248Y-4542523D01*
X4168825Y-4367416D01*
X4367416Y-4168825D01*
X4542523Y-3949248D01*
X4691945Y-3711445D01*
X4813801Y-3458408D01*
X4906560Y-3193318D01*
X4969055Y-2919509D01*
X5000500Y-2640425D01*
X5000500Y-2359575D01*
X4969055Y-2080491D01*
X4906560Y-1806682D01*
X4813801Y-1541592D01*
X4691945Y-1288555D01*
X4542523Y-1050752D01*
X4367416Y-831175D01*
X4168825Y-632584D01*
X3949248Y-457477D01*
X3711445Y-308055D01*
X3711444Y-308054D01*
X3711440Y-308052D01*
X3458407Y-186198D01*
X3337374Y-143847D01*
X3295143Y-106107D01*
X3291968Y-49559D01*
X3329708Y-7328D01*
X3361815Y0D01*
X35638185Y0D01*
X35690511Y-21674D01*
G37*
G04 #@! TD.AperFunction*
G04 #@! TD*
G04 #@! TA.AperFunction,Conductor*
G04 #@! TO.N,VDDD*
G36*
X22703326Y-8421674D02*
G01*
X22725000Y-8474000D01*
X22725000Y-9326000D01*
X22703326Y-9378326D01*
X22651000Y-9400000D01*
X21599000Y-9400000D01*
X21546674Y-9378326D01*
X21525000Y-9326000D01*
X21525000Y-8474000D01*
X21546674Y-8421674D01*
X21599000Y-8400000D01*
X22651000Y-8400000D01*
X22703326Y-8421674D01*
G37*
G04 #@! TD.AperFunction*
G04 #@! TD*
G04 #@! TA.AperFunction,Conductor*
G04 #@! TO.N,VDDA*
G36*
X15628326Y-8346674D02*
G01*
X15650000Y-8399000D01*
X15650000Y-9426000D01*
X15628326Y-9478326D01*
X15576000Y-9500000D01*
X14424000Y-9500000D01*
X14371674Y-9478326D01*
X14350000Y-9426000D01*
X14350000Y-8399000D01*
X14371674Y-8346674D01*
X14424000Y-8325000D01*
X15576000Y-8325000D01*
X15628326Y-8346674D01*
G37*
G04 #@! TD.AperFunction*
G04 #@! TD*
G04 #@! TA.AperFunction,Conductor*
G04 #@! TO.N,VDDPIX*
G36*
X28128326Y-7671674D02*
G01*
X28150000Y-7724000D01*
X28150000Y-8576000D01*
X28128326Y-8628326D01*
X28076000Y-8650000D01*
X26774000Y-8650000D01*
X26721674Y-8628326D01*
X26700000Y-8576000D01*
X26700000Y-7724000D01*
X26721674Y-7671674D01*
X26774000Y-7650000D01*
X28076000Y-7650000D01*
X28128326Y-7671674D01*
G37*
G04 #@! TD.AperFunction*
G04 #@! TD*
M02*
