M48
; DRILL file {KiCad 8.0.4} date 2025-09-28T15:06:53-0700
; FORMAT={-:-/ absolute / inch / decimal}
; #@! TF.CreationDate,2025-09-28T15:06:53-07:00
; #@! TF.GenerationSoftware,Kicad,Pcbnew,8.0.4
; #@! TF.FileFunction,Plated,1,4,PTH
FMAT,2
INCH
; #@! TA.AperFunction,Plated,PTH,ViaDrill
T1C0.0079
; #@! TA.AperFunction,Plated,PTH,ViaDrill
T2C0.0118
%
G90
G05
T1
X0.2776Y-0.1909
X0.3543Y-0.6929
X0.4094Y-0.5709
X0.4528Y-0.7283
X0.4528Y-0.7677
X0.5138Y-0.1914
X0.6417Y-1.0354
X0.6496Y-0.4913
X0.6614Y-1.2323
X0.6614Y-1.2677
X0.6654Y-1.4528
X0.7126Y-0.689
X0.7165Y-0.2323
X0.7559Y-1.4213
X0.7894Y-0.281
X0.9094Y-1.4378
X1.0941Y-1.2559
X1.0945Y-1.3071
X1.0945Y-1.3465
X1.1457Y-0.2008
X1.213Y-1.2559
X1.4291Y-1.2008
X1.4685Y-1.2008
T2
X0.0394Y-1.0945
X0.0394Y-1.122
X0.0559Y-1.1949
X0.0827Y-0.8307
X0.0827Y-0.8543
X0.0827Y-0.9488
X0.0827Y-0.9724
X0.126Y-1.1732
X0.1307Y-1.1949
X0.1307Y-1.2343
X0.1339Y-1.0512
X0.1417Y-0.8307
X0.1417Y-0.8543
X0.1417Y-0.9488
X0.1417Y-0.9724
X0.1685Y-1.1646
X0.185Y-1.0787
X0.185Y-1.1024
X0.1929Y-0.9882
X0.1929Y-1.0512
X0.2126Y-1.0118
X0.2323Y-1.0315
X0.248Y-0.1083
X0.248Y-0.1358
X0.252Y-1.0118
X0.252Y-1.0512
X0.2559Y-1.4567
X0.2559Y-1.5039
X0.2677Y-0.3366
X0.2677Y-0.3642
X0.2776Y-0.1083
X0.2776Y-0.1358
X0.2953Y-0.6535
X0.2972Y-0.3366
X0.315Y-0.1732
X0.315Y-0.2087
X0.3228Y-1.1693
X0.3307Y-1.1024
X0.3346Y-1.0276
X0.3346Y-1.1339
X0.3366Y-0.4657
X0.3425Y-0.5482
X0.3563Y-0.3898
X0.3583Y-1.0276
X0.3709Y-0.8465
X0.3819Y-0.5709
X0.3848Y-0.4911
X0.3858Y-1.3268
X0.3996Y-0.3898
X0.4087Y-0.8465
X0.4142Y-0.7283
X0.4142Y-0.7677
X0.4142Y-0.8071
X0.4142Y-0.8858
X0.437Y-1.5039
X0.4449Y-0.3898
X0.452Y-0.8071
X0.452Y-0.8858
X0.4528Y-0.5713
X0.4528Y-0.689
X0.4528Y-0.9646
X0.4535Y-0.6102
X0.4535Y-0.9252
X0.4685Y-0.4587
X0.4724Y-0.5886
X0.4823Y-0.1083
X0.4823Y-0.1358
X0.4921Y-0.6102
X0.4921Y-0.7283
X0.4921Y-0.8071
X0.4921Y-0.8465
X0.4921Y-0.8858
X0.4921Y-0.9252
X0.4921Y-0.9646
X0.5079Y-1.3819
X0.5079Y-1.4055
X0.5118Y-0.1083
X0.5118Y-0.1358
X0.5118Y-0.3366
X0.5118Y-0.3642
X0.5307Y-0.8858
X0.5315Y-0.4921
X0.5315Y-0.5315
X0.5315Y-0.8063
X0.5315Y-0.9646
X0.5315Y-1.0039
X0.5315Y-1.0433
X0.5323Y-0.689
X0.5323Y-0.7283
X0.5323Y-0.8465
X0.5413Y-0.3366
X0.5413Y-0.3642
X0.5472Y-1.2646
X0.5472Y-1.4055
X0.5512Y-0.1732
X0.5512Y-0.2087
X0.5709Y-0.4921
X0.5709Y-0.5315
X0.5709Y-0.689
X0.5709Y-0.7283
X0.5709Y-0.7677
X0.5709Y-0.8071
X0.5709Y-0.8858
X0.5709Y-1.0433
X0.5717Y-1.0039
X0.5748Y-1.3622
X0.5748Y-1.3996
X0.5768Y-0.3366
X0.5768Y-0.3622
X0.6043Y-0.3366
X0.6043Y-0.3622
X0.6083Y-0.8465
X0.6083Y-0.8831
X0.6094Y-0.7677
X0.6094Y-0.8071
X0.6102Y-0.4535
X0.6102Y-0.4913
X0.6102Y-0.5315
X0.6102Y-0.5709
X0.6102Y-1.0433
X0.6102Y-1.0819
X0.6378Y-1.2126
X0.6496Y-0.4535
X0.6496Y-0.5315
X0.6614Y-1.3622
X0.6614Y-1.4016
X0.685Y-1.2126
X0.685Y-1.248
X0.689Y-0.4929
X0.689Y-0.5315
X0.689Y-0.5709
X0.689Y-0.6102
X0.689Y-0.9252
X0.689Y-0.9615
X0.689Y-1.0039
X0.689Y-1.0433
X0.689Y-1.4646
X0.7205Y-1.311
X0.7283Y-0.4929
X0.7283Y-0.5307
X0.7283Y-1.0039
X0.7283Y-1.0433
X0.7366Y-0.1535
X0.7441Y-1.252
X0.748Y-1.3937
X0.748Y-1.4488
X0.7677Y-0.4921
X0.7677Y-0.5315
X0.7677Y-0.5709
X0.7677Y-0.6102
X0.7677Y-0.9252
X0.7677Y-0.9646
X0.7677Y-1.0039
X0.7677Y-1.0433
X0.7894Y-0.1083
X0.7894Y-0.1358
X0.7894Y-0.3386
X0.7894Y-0.3661
X0.8071Y-0.4921
X0.8071Y-0.5315
X0.8071Y-0.5709
X0.8071Y-0.6102
X0.8071Y-0.9252
X0.8071Y-0.9646
X0.8071Y-1.0039
X0.8071Y-1.0433
X0.8189Y-0.1083
X0.8189Y-0.1358
X0.8189Y-0.3386
X0.8189Y-0.3661
X0.8268Y-0.2638
X0.8268Y-0.2972
X0.8386Y-1.2441
X0.8386Y-1.3189
X0.8386Y-1.3937
X0.8386Y-1.4488
X0.8465Y-0.4929
X0.8465Y-0.5315
X0.8465Y-1.0047
X0.8465Y-1.0433
X0.8583Y-0.3386
X0.8583Y-0.3622
X0.8858Y-0.3386
X0.8858Y-0.3622
X0.8858Y-0.4921
X0.8858Y-0.5315
X0.8858Y-0.6102
X0.8858Y-0.8661
X0.8858Y-0.9252
X0.8858Y-0.9646
X0.8858Y-1.0039
X0.8858Y-1.0433
X0.9094Y-1.4756
X0.9104Y-1.311
X0.9165Y-1.2047
X0.9252Y-0.4929
X0.9252Y-0.5315
X0.9252Y-1.0047
X0.9252Y-1.0433
X0.9449Y-0.7874
X0.9449Y-0.8268
X0.9449Y-0.8661
X0.9449Y-0.9055
X0.9449Y-0.9449
X0.9646Y-0.4929
X0.9646Y-0.5307
X0.9646Y-0.5709
X0.9646Y-0.8071
X0.9646Y-0.8465
X0.9646Y-0.8858
X0.9646Y-0.9252
X0.9646Y-0.9646
X0.9646Y-1.0433
X1.0039Y-0.4929
X1.0039Y-0.5315
X1.0039Y-0.8071
X1.0039Y-0.8465
X1.0039Y-0.8858
X1.0039Y-0.9252
X1.0039Y-0.9646
X1.0039Y-1.4567
X1.0039Y-1.5039
X1.0236Y-0.5906
X1.0236Y-0.6299
X1.0236Y-0.6693
X1.0335Y-0.8465
X1.0335Y-0.8858
X1.0433Y-0.7283
X1.0433Y-0.7677
X1.0551Y-1.3071
X1.0551Y-1.3465
X1.0571Y-0.1555
X1.0571Y-0.1831
X1.0591Y-0.2343
X1.0591Y-0.2559
X1.063Y-0.3091
X1.063Y-0.3307
X1.063Y-0.5906
X1.063Y-0.6299
X1.063Y-0.6693
X1.0827Y-0.7283
X1.0827Y-0.7677
X1.0827Y-0.8465
X1.0827Y-0.8858
X1.0866Y-0.1555
X1.0866Y-0.1831
X1.0965Y-0.3091
X1.0965Y-0.3327
X1.0984Y-0.2343
X1.0984Y-0.2559
X1.1319Y-0.5335
X1.1339Y-0.0906
X1.1417Y-0.3728
X1.1516Y-0.2618
X1.1516Y-0.2894
X1.1811Y-0.1437
X1.1811Y-0.2618
X1.1811Y-0.2894
X1.1811Y-0.4118
X1.2106Y-0.1929
X1.2106Y-0.2618
X1.2106Y-0.2894
X1.2205Y-0.2279
X1.2244Y-1.4567
X1.2244Y-1.5039
X1.228Y-1.1201
X1.2835Y-0.4528
X1.311Y-1.1417
X1.3287Y-0.4528
X1.3425Y-1.1417
X1.376Y-1.1024
X1.378Y-1.1417
X1.3996Y-0.7874
X1.3996Y-0.8465
X1.3996Y-0.9055
X1.3996Y-0.9646
X1.3996Y-1.0236
X1.3996Y-1.0827
X1.4173Y-0.3268
X1.4173Y-0.378
X1.4173Y-0.5748
X1.4173Y-0.6299
X1.4488Y-0.8465
X1.4488Y-0.9646
X1.4606Y-0.3268
X1.4606Y-0.378
X1.4606Y-0.5748
X1.4606Y-0.6299
M30
