G04 #@! TF.GenerationSoftware,KiCad,Pcbnew,8.0.4*
G04 #@! TF.CreationDate,2025-09-28T15:06:51-07:00*
G04 #@! TF.ProjectId,GMAX3412_breakout,474d4158-3334-4313-925f-627265616b6f,rev?*
G04 #@! TF.SameCoordinates,Original*
G04 #@! TF.FileFunction,Copper,L2,Inr*
G04 #@! TF.FilePolarity,Positive*
%FSLAX46Y46*%
G04 Gerber Fmt 4.6, Leading zero omitted, Abs format (unit mm)*
G04 Created by KiCad (PCBNEW 8.0.4) date 2025-09-28 15:06:51*
%MOMM*%
%LPD*%
G01*
G04 APERTURE LIST*
G04 #@! TA.AperFunction,ViaPad*
%ADD10C,0.400000*%
G04 #@! TD*
G04 #@! TA.AperFunction,ViaPad*
%ADD11C,0.450000*%
G04 #@! TD*
G04 APERTURE END LIST*
D10*
G04 #@! TO.N,VDDIO*
X11520000Y-15500000D03*
X13500000Y-13500000D03*
X3400000Y-26700000D03*
X4280000Y-29580000D03*
G04 #@! TO.N,GND*
X18710000Y-3900000D03*
X30750000Y-7350000D03*
X19500000Y-23500000D03*
X21300000Y-35400000D03*
D11*
X35550000Y-20000000D03*
D10*
X22500000Y-15500000D03*
X23125000Y-33300000D03*
X30000000Y-7350000D03*
X10520000Y-19500000D03*
X26000000Y-16000000D03*
X20500000Y-23500000D03*
D11*
X35550000Y-27500000D03*
D10*
X7050000Y-2750000D03*
X17400000Y-31700000D03*
X2100000Y-24100000D03*
X4700000Y-28000000D03*
X6800000Y-8550000D03*
X10520000Y-18500000D03*
X29250000Y-7350000D03*
X3200000Y-29800000D03*
X37100000Y-8300000D03*
X3600000Y-21100000D03*
X20050000Y-3450000D03*
X19500000Y-15500000D03*
X1000000Y-27800000D03*
X24000000Y-22000000D03*
X20800000Y-8600000D03*
X16200000Y-30800000D03*
X13500000Y-12500000D03*
X31100000Y-38200000D03*
X30000000Y-3650000D03*
X26500000Y-19500000D03*
X21500000Y-13500000D03*
X2100000Y-21700000D03*
D11*
X33300000Y-29000000D03*
D10*
X8000000Y-5300000D03*
X28750000Y-13550000D03*
X20800000Y-9300000D03*
X20050000Y-9300000D03*
X22500000Y-24500000D03*
D11*
X26800000Y-33200000D03*
D10*
X21000000Y-6700000D03*
X8000000Y-4400000D03*
X27900000Y-6500000D03*
X31100000Y-37000000D03*
X12500000Y-18500000D03*
X11500000Y-24500000D03*
X17500000Y-25500000D03*
X17500000Y-37200000D03*
X6400000Y-26700000D03*
X13750000Y-9250000D03*
X14520000Y-25500000D03*
X9100000Y-26100000D03*
X14500000Y-18500000D03*
X12500000Y-15500000D03*
X20500000Y-25500000D03*
X30000000Y-10460000D03*
X26850000Y-3950000D03*
D11*
X31190000Y-28450000D03*
D10*
X30750000Y-6650000D03*
X11500000Y-17500000D03*
X12000000Y-14950000D03*
X27900000Y-5950000D03*
X13000000Y-8550000D03*
X37100000Y-16000000D03*
X16500000Y-11520000D03*
X9775000Y-12475000D03*
X13900000Y-35700000D03*
X10520000Y-22500000D03*
X36000000Y-8300000D03*
X20800000Y-2750000D03*
X9420000Y-21500000D03*
X16800000Y-35600000D03*
X12500000Y-22500000D03*
X8550000Y-11830000D03*
X6500000Y-37000000D03*
X24000000Y-20000000D03*
X9800000Y-33700000D03*
X11300000Y-9900000D03*
X3600000Y-24700000D03*
D11*
X35550000Y-24500000D03*
D10*
X6300000Y-3450000D03*
X23280000Y-30600000D03*
X15450000Y-22430000D03*
X13000000Y-2750000D03*
X20050000Y-8600000D03*
X26000000Y-15000000D03*
X21000000Y-7550000D03*
X8700000Y-13925000D03*
X7050000Y-3450000D03*
X27000000Y-16000000D03*
X11900000Y-11650000D03*
D11*
X35000000Y-29000000D03*
D10*
X4700000Y-27400000D03*
X20500000Y-13500000D03*
X3600000Y-21700000D03*
X13900000Y-32120000D03*
X27600000Y-3950000D03*
X15480000Y-20500000D03*
X2100000Y-24700000D03*
X20050000Y-2750000D03*
D11*
X34100000Y-29000000D03*
D10*
X14600000Y-34600000D03*
D11*
X35550000Y-23000000D03*
D10*
X12900000Y-35700000D03*
X13750000Y-8550000D03*
X12500000Y-23500000D03*
X9700000Y-14500000D03*
X22500000Y-23500000D03*
X23500000Y-25520000D03*
X19000000Y-35400000D03*
X21300000Y-31600000D03*
X14500000Y-17500000D03*
X17500000Y-15500000D03*
X27000000Y-17000000D03*
X14000000Y-4400000D03*
X11100000Y-38200000D03*
D11*
X26800000Y-34200000D03*
D10*
X10520000Y-20500000D03*
X6800000Y-9250000D03*
X36000000Y-9600000D03*
X20800000Y-3450000D03*
X33750000Y-11500000D03*
X21500000Y-25520000D03*
X14500000Y-13500000D03*
X30000000Y-6650000D03*
X20500000Y-15500000D03*
X13000000Y-9250000D03*
X14000000Y-5300000D03*
X25500000Y-38200000D03*
X21300000Y-36800000D03*
X3600000Y-24100000D03*
X23500000Y-13500000D03*
X18500000Y-13480000D03*
X37100000Y-9600000D03*
X36000000Y-14600000D03*
X8500000Y-28800000D03*
X2100000Y-21100000D03*
X26850000Y-4650000D03*
X24500000Y-13480000D03*
X18300000Y-33300000D03*
X3320000Y-30350000D03*
X25500000Y-13500000D03*
X6400000Y-25700000D03*
X17400000Y-30800000D03*
X37100000Y-14600000D03*
X13500000Y-25500000D03*
X12250000Y-3450000D03*
X26250000Y-21500000D03*
X19500000Y-24500000D03*
X19500000Y-14500000D03*
X17500000Y-23500000D03*
X9050000Y-9900000D03*
X29250000Y-6650000D03*
X24000000Y-24000000D03*
X13000000Y-3450000D03*
X36000000Y-16000000D03*
X1420000Y-30350000D03*
X7500000Y-16600000D03*
X32600000Y-11500000D03*
X23100000Y-37480000D03*
X24000000Y-21000000D03*
X10150000Y-9900000D03*
X12250000Y-2750000D03*
X15500000Y-11520000D03*
X14500000Y-22500000D03*
X26500000Y-18500000D03*
X16800000Y-34600000D03*
X28800000Y-2300000D03*
X1000000Y-28500000D03*
X24500000Y-14500000D03*
X17500000Y-13500000D03*
X26000000Y-17000000D03*
X26900000Y-5950000D03*
X25500000Y-37000000D03*
X8200000Y-29700000D03*
D11*
X35550000Y-26000000D03*
D10*
X7550000Y-8550000D03*
X12900000Y-35100000D03*
X18500000Y-25500000D03*
X15480000Y-19500000D03*
X26900000Y-6500000D03*
X18900000Y-31800000D03*
X3320000Y-31350000D03*
X27600000Y-4650000D03*
D11*
X36800000Y-21500000D03*
D10*
X6500000Y-38200000D03*
X21300000Y-33500000D03*
X6300000Y-2750000D03*
X4900000Y-26700000D03*
D11*
X35550000Y-21500000D03*
D10*
X15500000Y-14500000D03*
D11*
X36800000Y-24500000D03*
D10*
X24000000Y-23000000D03*
X26250000Y-22500000D03*
X27000000Y-15000000D03*
X19000000Y-36800000D03*
X4900000Y-25100000D03*
G04 #@! TO.N,Net-(U1-VBGR)*
X13500000Y-24500000D03*
G04 #@! TO.N,Net-(U1-VRS)*
X16500000Y-13500000D03*
D11*
G04 #@! TO.N,Net-(U1-VRF)*
X16500000Y-12480000D03*
G04 #@! TO.N,Net-(U1-VREF)*
X16300000Y-26300000D03*
D10*
G04 #@! TO.N,Net-(U1-VBIASP)*
X15500000Y-26500000D03*
G04 #@! TO.N,VDDA*
X18500000Y-26500000D03*
X15350000Y-8550000D03*
X15350000Y-9200000D03*
X14500000Y-12500000D03*
X11480000Y-20500000D03*
X24500000Y-12520000D03*
X14650000Y-8550000D03*
X13520000Y-18500000D03*
X24500000Y-26500000D03*
X14650000Y-9200000D03*
X21500000Y-26500000D03*
X15500000Y-12480000D03*
X18500000Y-12520000D03*
X11520000Y-23500000D03*
X15500000Y-27480000D03*
X13480000Y-22500000D03*
X13500000Y-26500000D03*
X21500000Y-12520000D03*
X13520000Y-17500000D03*
G04 #@! TO.N,Net-(U1-VCPNO)*
X11480000Y-22500000D03*
G04 #@! TO.N,Net-(U1-VCPNI)*
X10380000Y-21500000D03*
G04 #@! TO.N,Net-(U1-VTX2L)*
X13500000Y-20480000D03*
G04 #@! TO.N,Net-(U1-VTX2H)*
X12500000Y-21500000D03*
G04 #@! TO.N,Net-(U1-VGRSTL)*
X14500000Y-20500000D03*
G04 #@! TO.N,Net-(U1-VGRSTH)*
X15450000Y-21500000D03*
G04 #@! TO.N,Net-(U1-VTX1H)*
X13520000Y-21500000D03*
G04 #@! TO.N,Net-(U1-VTX1L)*
X12500000Y-20500000D03*
D11*
G04 #@! TO.N,Net-(U1-VCPPO)*
X11500000Y-18500000D03*
G04 #@! TO.N,Net-(U1-VCPPI)*
X11500000Y-19500000D03*
D10*
G04 #@! TO.N,Net-(U1-VGRSTL2)*
X14500000Y-19500000D03*
D11*
G04 #@! TO.N,Net-(U1-SYS_RST_N)*
X9000000Y-17600000D03*
G04 #@! TO.N,Net-(U5-SS_CTRL)*
X29100000Y-5100000D03*
D10*
X31000000Y-5787500D03*
D11*
G04 #@! TO.N,SCL_3V3*
X19200000Y-36100000D03*
D10*
X5900000Y-26200000D03*
D11*
G04 #@! TO.N,+3V3*
X36300000Y-30500000D03*
X23100000Y-36520000D03*
X27800000Y-33200000D03*
X37300000Y-30500000D03*
X30810000Y-31900000D03*
X27790000Y-31900000D03*
X27800000Y-34200000D03*
G04 #@! TO.N,SDA_3V3*
X16900000Y-36900000D03*
D10*
X5400000Y-25700000D03*
D11*
G04 #@! TO.N,CAM_EN*
X13050000Y-4862500D03*
D10*
X30750000Y-4900000D03*
D11*
X20050000Y-7137500D03*
X34950000Y-28000000D03*
X7050000Y-4850000D03*
D10*
G04 #@! TO.N,CLOCK*
X11500000Y-14510000D03*
G04 #@! TO.N,Net-(U1-RES_EXT_NODE_P)*
X12500000Y-24500000D03*
D11*
G04 #@! TO.N,Net-(U1-SDO_TDIG)*
X18100000Y-17500000D03*
D10*
G04 #@! TO.N,CAM_D1_N*
X25500000Y-21500000D03*
G04 #@! TO.N,VDDD*
X27500000Y-22500000D03*
X22500000Y-13500000D03*
X27500000Y-21500000D03*
X19500000Y-26500000D03*
X22500000Y-12500000D03*
X22500000Y-9200000D03*
X21800000Y-8600000D03*
X22500000Y-26500000D03*
D11*
X18200000Y-5900000D03*
D10*
X27500000Y-19500000D03*
X22500000Y-25500000D03*
X20500000Y-12500000D03*
X15500000Y-13500000D03*
X14500000Y-26500000D03*
X25500000Y-12520000D03*
X17500000Y-12520000D03*
X21800000Y-9200000D03*
X22500000Y-22000000D03*
X27500000Y-18500000D03*
X17500000Y-24423000D03*
X17500000Y-26500000D03*
X17500000Y-14500000D03*
X19500000Y-25500000D03*
X20500000Y-24500000D03*
X20500000Y-14500000D03*
X19500000Y-12500000D03*
X19500000Y-13500000D03*
X22500000Y-8600000D03*
X20500000Y-26500000D03*
G04 #@! TO.N,CAM_D0_P*
X24500000Y-20500000D03*
G04 #@! TO.N,CAM_D2_N*
X25500000Y-23500000D03*
G04 #@! TO.N,CAM_D1_P*
X24500000Y-21500000D03*
G04 #@! TO.N,VDDPIX*
X27000000Y-7850000D03*
X29000000Y-9470000D03*
X27850000Y-7850000D03*
X23500000Y-26500000D03*
X27000000Y-8400000D03*
X27850000Y-8450000D03*
X23500000Y-12520000D03*
G04 #@! TO.N,CAM_D0_N*
X25500000Y-20500000D03*
G04 #@! TO.N,CAM_D2_P*
X24500000Y-23500000D03*
G04 #@! TO.N,TEXP1*
X8500000Y-26100000D03*
D11*
X16800000Y-31300000D03*
D10*
G04 #@! TO.N,CAM_D3_N*
X25500000Y-24500000D03*
G04 #@! TO.N,CAM_CLK_P*
X24500000Y-22500000D03*
D11*
G04 #@! TO.N,TEXP2*
X16800000Y-32200000D03*
D10*
X8400000Y-28000000D03*
G04 #@! TO.N,CAM_D3_P*
X24500000Y-24500000D03*
G04 #@! TO.N,CAM_CLK_N*
X25500000Y-22500000D03*
G04 #@! TO.N,CLOCK2*
X14600000Y-35549999D03*
D11*
X10400000Y-14500000D03*
G04 #@! TD*
G04 #@! TA.AperFunction,Conductor*
G04 #@! TO.N,GND*
G36*
X35690511Y-21674D02*
G01*
X35712185Y-74000D01*
X35690511Y-126326D01*
X35662626Y-143847D01*
X35541592Y-186198D01*
X35288559Y-308052D01*
X35050751Y-457477D01*
X34831175Y-632583D01*
X34632583Y-831175D01*
X34457477Y-1050751D01*
X34308052Y-1288559D01*
X34186198Y-1541592D01*
X34093442Y-1806674D01*
X34093437Y-1806690D01*
X34030945Y-2080486D01*
X34030945Y-2080487D01*
X33999500Y-2359578D01*
X33999500Y-2640421D01*
X34030945Y-2919512D01*
X34030945Y-2919513D01*
X34093437Y-3193309D01*
X34093442Y-3193325D01*
X34186198Y-3458407D01*
X34308052Y-3711440D01*
X34308054Y-3711444D01*
X34308055Y-3711445D01*
X34457477Y-3949248D01*
X34632584Y-4168825D01*
X34831175Y-4367416D01*
X35050752Y-4542523D01*
X35288555Y-4691945D01*
X35288558Y-4691946D01*
X35288559Y-4691947D01*
X35340321Y-4716874D01*
X35541592Y-4813801D01*
X35806682Y-4906560D01*
X35806687Y-4906561D01*
X35806690Y-4906562D01*
X36080486Y-4969054D01*
X36080487Y-4969054D01*
X36080491Y-4969055D01*
X36359575Y-5000500D01*
X36359579Y-5000500D01*
X36640421Y-5000500D01*
X36640425Y-5000500D01*
X36919509Y-4969055D01*
X37193318Y-4906560D01*
X37458408Y-4813801D01*
X37711445Y-4691945D01*
X37949248Y-4542523D01*
X38168825Y-4367416D01*
X38367416Y-4168825D01*
X38542523Y-3949248D01*
X38691945Y-3711445D01*
X38813801Y-3458408D01*
X38856153Y-3337374D01*
X38893892Y-3295142D01*
X38950440Y-3291967D01*
X38992672Y-3329706D01*
X39000000Y-3361814D01*
X39000000Y-35638185D01*
X38978326Y-35690511D01*
X38926000Y-35712185D01*
X38873674Y-35690511D01*
X38856153Y-35662626D01*
X38813801Y-35541592D01*
X38691947Y-35288559D01*
X38691946Y-35288558D01*
X38691945Y-35288555D01*
X38542523Y-35050752D01*
X38367416Y-34831175D01*
X38168825Y-34632584D01*
X37949248Y-34457477D01*
X37711445Y-34308055D01*
X37711444Y-34308054D01*
X37711440Y-34308052D01*
X37458407Y-34186198D01*
X37193325Y-34093442D01*
X37193309Y-34093437D01*
X36919513Y-34030945D01*
X36779967Y-34015222D01*
X36640425Y-33999500D01*
X36359575Y-33999500D01*
X36220033Y-34015222D01*
X36080487Y-34030945D01*
X36080486Y-34030945D01*
X35806690Y-34093437D01*
X35806674Y-34093442D01*
X35541592Y-34186198D01*
X35288559Y-34308052D01*
X35050751Y-34457477D01*
X34831175Y-34632583D01*
X34632583Y-34831175D01*
X34457477Y-35050751D01*
X34308052Y-35288559D01*
X34186198Y-35541592D01*
X34093442Y-35806674D01*
X34093437Y-35806690D01*
X34030945Y-36080486D01*
X34030945Y-36080487D01*
X33999500Y-36359578D01*
X33999500Y-36640421D01*
X34030945Y-36919512D01*
X34030945Y-36919513D01*
X34093437Y-37193309D01*
X34093442Y-37193325D01*
X34186198Y-37458407D01*
X34308052Y-37711440D01*
X34308054Y-37711444D01*
X34308055Y-37711445D01*
X34457477Y-37949248D01*
X34632584Y-38168825D01*
X34831175Y-38367416D01*
X35050752Y-38542523D01*
X35288555Y-38691945D01*
X35288558Y-38691946D01*
X35288559Y-38691947D01*
X35541592Y-38813801D01*
X35662626Y-38856153D01*
X35704857Y-38893893D01*
X35708032Y-38950441D01*
X35670292Y-38992672D01*
X35638185Y-39000000D01*
X3361815Y-39000000D01*
X3309489Y-38978326D01*
X3287815Y-38926000D01*
X3309489Y-38873674D01*
X3337374Y-38856153D01*
X3399821Y-38834301D01*
X3458408Y-38813801D01*
X3711445Y-38691945D01*
X3949248Y-38542523D01*
X4168825Y-38367416D01*
X4367416Y-38168825D01*
X4542523Y-37949248D01*
X4691945Y-37711445D01*
X4813801Y-37458408D01*
X4906560Y-37193318D01*
X4969055Y-36919509D01*
X4971253Y-36900000D01*
X16469196Y-36900000D01*
X16490280Y-37033126D01*
X16551471Y-37153219D01*
X16551472Y-37153220D01*
X16646780Y-37248528D01*
X16766873Y-37309718D01*
X16766873Y-37309719D01*
X16785075Y-37312601D01*
X16900000Y-37330804D01*
X17033126Y-37309719D01*
X17153220Y-37248528D01*
X17248528Y-37153220D01*
X17309719Y-37033126D01*
X17330804Y-36900000D01*
X17309719Y-36766874D01*
X17309719Y-36766873D01*
X17248528Y-36646780D01*
X17153219Y-36551471D01*
X17033126Y-36490281D01*
X17033126Y-36490280D01*
X16900000Y-36469196D01*
X16766873Y-36490280D01*
X16766873Y-36490281D01*
X16646780Y-36551471D01*
X16551471Y-36646780D01*
X16490281Y-36766873D01*
X16490280Y-36766873D01*
X16469196Y-36900000D01*
X4971253Y-36900000D01*
X5000500Y-36640425D01*
X5000500Y-36359575D01*
X4971253Y-36100000D01*
X18769196Y-36100000D01*
X18790280Y-36233126D01*
X18851471Y-36353219D01*
X18851472Y-36353220D01*
X18946780Y-36448528D01*
X19066873Y-36509718D01*
X19066873Y-36509719D01*
X19085075Y-36512601D01*
X19200000Y-36530804D01*
X19268214Y-36520000D01*
X22669196Y-36520000D01*
X22690280Y-36653126D01*
X22751471Y-36773219D01*
X22751472Y-36773220D01*
X22846780Y-36868528D01*
X22966873Y-36929718D01*
X22966873Y-36929719D01*
X22985075Y-36932601D01*
X23100000Y-36950804D01*
X23233126Y-36929719D01*
X23353220Y-36868528D01*
X23448528Y-36773220D01*
X23509719Y-36653126D01*
X23530804Y-36520000D01*
X23509719Y-36386874D01*
X23509719Y-36386873D01*
X23448528Y-36266780D01*
X23353219Y-36171471D01*
X23233126Y-36110281D01*
X23233126Y-36110280D01*
X23100000Y-36089196D01*
X22966873Y-36110280D01*
X22966873Y-36110281D01*
X22846780Y-36171471D01*
X22751471Y-36266780D01*
X22690281Y-36386873D01*
X22690280Y-36386873D01*
X22669196Y-36520000D01*
X19268214Y-36520000D01*
X19333126Y-36509719D01*
X19453220Y-36448528D01*
X19548528Y-36353220D01*
X19609719Y-36233126D01*
X19630804Y-36100000D01*
X19609719Y-35966874D01*
X19609719Y-35966873D01*
X19548528Y-35846780D01*
X19453219Y-35751471D01*
X19333126Y-35690281D01*
X19333126Y-35690280D01*
X19200000Y-35669196D01*
X19066873Y-35690280D01*
X19066873Y-35690281D01*
X18946780Y-35751471D01*
X18851471Y-35846780D01*
X18790281Y-35966873D01*
X18790280Y-35966873D01*
X18769196Y-36100000D01*
X4971253Y-36100000D01*
X4969055Y-36080491D01*
X4943123Y-35966874D01*
X4906562Y-35806690D01*
X4906557Y-35806674D01*
X4900142Y-35788342D01*
X4816743Y-35549999D01*
X14194508Y-35549999D01*
X14214353Y-35675300D01*
X14214353Y-35675301D01*
X14214354Y-35675303D01*
X14271950Y-35788341D01*
X14361658Y-35878049D01*
X14474696Y-35935645D01*
X14600000Y-35955491D01*
X14725304Y-35935645D01*
X14838342Y-35878049D01*
X14928050Y-35788341D01*
X14985646Y-35675303D01*
X15005492Y-35549999D01*
X14985646Y-35424695D01*
X14928050Y-35311657D01*
X14838342Y-35221949D01*
X14725304Y-35164353D01*
X14725302Y-35164352D01*
X14725301Y-35164352D01*
X14600000Y-35144507D01*
X14474698Y-35164352D01*
X14361656Y-35221950D01*
X14271951Y-35311655D01*
X14214353Y-35424697D01*
X14194508Y-35549999D01*
X4816743Y-35549999D01*
X4813801Y-35541592D01*
X4691945Y-35288555D01*
X4542523Y-35050752D01*
X4367416Y-34831175D01*
X4168825Y-34632584D01*
X3949248Y-34457477D01*
X3711445Y-34308055D01*
X3711444Y-34308054D01*
X3711440Y-34308052D01*
X3487067Y-34200000D01*
X27369196Y-34200000D01*
X27390280Y-34333126D01*
X27451471Y-34453219D01*
X27451472Y-34453220D01*
X27546780Y-34548528D01*
X27666873Y-34609718D01*
X27666873Y-34609719D01*
X27685075Y-34612601D01*
X27800000Y-34630804D01*
X27933126Y-34609719D01*
X28053220Y-34548528D01*
X28148528Y-34453220D01*
X28209719Y-34333126D01*
X28230804Y-34200000D01*
X28209719Y-34066874D01*
X28209719Y-34066873D01*
X28148528Y-33946780D01*
X28053219Y-33851471D01*
X27933126Y-33790281D01*
X27933126Y-33790280D01*
X27833073Y-33774434D01*
X27824578Y-33773088D01*
X27804752Y-33760938D01*
X27775420Y-33773089D01*
X27666874Y-33790280D01*
X27666873Y-33790281D01*
X27546780Y-33851471D01*
X27451471Y-33946780D01*
X27390281Y-34066873D01*
X27390280Y-34066873D01*
X27369196Y-34200000D01*
X3487067Y-34200000D01*
X3458407Y-34186198D01*
X3193325Y-34093442D01*
X3193309Y-34093437D01*
X2919513Y-34030945D01*
X2779967Y-34015222D01*
X2640425Y-33999500D01*
X2359575Y-33999500D01*
X2220033Y-34015222D01*
X2080487Y-34030945D01*
X2080486Y-34030945D01*
X1806690Y-34093437D01*
X1806674Y-34093442D01*
X1541592Y-34186198D01*
X1288559Y-34308052D01*
X1050751Y-34457477D01*
X831175Y-34632583D01*
X632583Y-34831175D01*
X457477Y-35050751D01*
X308052Y-35288559D01*
X186198Y-35541592D01*
X143847Y-35662626D01*
X106107Y-35704857D01*
X49559Y-35708032D01*
X7328Y-35670292D01*
X0Y-35638185D01*
X0Y-33200000D01*
X27369196Y-33200000D01*
X27390280Y-33333126D01*
X27451471Y-33453219D01*
X27451472Y-33453220D01*
X27546780Y-33548528D01*
X27666874Y-33609719D01*
X27775420Y-33626911D01*
X27795246Y-33639061D01*
X27824578Y-33626911D01*
X27933126Y-33609719D01*
X28053220Y-33548528D01*
X28148528Y-33453220D01*
X28209719Y-33333126D01*
X28230804Y-33200000D01*
X28209719Y-33066874D01*
X28209719Y-33066873D01*
X28148528Y-32946780D01*
X28053219Y-32851471D01*
X27933126Y-32790281D01*
X27933126Y-32790280D01*
X27800000Y-32769196D01*
X27666873Y-32790280D01*
X27666873Y-32790281D01*
X27546780Y-32851471D01*
X27451471Y-32946780D01*
X27390281Y-33066873D01*
X27390280Y-33066873D01*
X27369196Y-33200000D01*
X0Y-33200000D01*
X0Y-31300000D01*
X16369196Y-31300000D01*
X16390280Y-31433126D01*
X16451471Y-31553219D01*
X16546780Y-31648528D01*
X16616527Y-31684066D01*
X16653310Y-31727133D01*
X16648866Y-31783595D01*
X16616527Y-31815934D01*
X16546780Y-31851471D01*
X16451471Y-31946780D01*
X16390281Y-32066873D01*
X16390280Y-32066873D01*
X16369196Y-32200000D01*
X16390280Y-32333126D01*
X16451471Y-32453219D01*
X16451472Y-32453220D01*
X16546780Y-32548528D01*
X16666873Y-32609718D01*
X16666873Y-32609719D01*
X16685075Y-32612601D01*
X16800000Y-32630804D01*
X16933126Y-32609719D01*
X17053220Y-32548528D01*
X17148528Y-32453220D01*
X17209719Y-32333126D01*
X17230804Y-32200000D01*
X17209719Y-32066874D01*
X17209719Y-32066873D01*
X17148528Y-31946780D01*
X17101748Y-31900000D01*
X27359196Y-31900000D01*
X27380280Y-32033126D01*
X27397476Y-32066874D01*
X27441472Y-32153220D01*
X27536780Y-32248528D01*
X27656873Y-32309718D01*
X27656873Y-32309719D01*
X27675075Y-32312601D01*
X27790000Y-32330804D01*
X27923126Y-32309719D01*
X28043220Y-32248528D01*
X28138528Y-32153220D01*
X28199719Y-32033126D01*
X28220804Y-31900000D01*
X30379196Y-31900000D01*
X30400280Y-32033126D01*
X30417476Y-32066874D01*
X30461472Y-32153220D01*
X30556780Y-32248528D01*
X30676873Y-32309718D01*
X30676873Y-32309719D01*
X30695075Y-32312601D01*
X30810000Y-32330804D01*
X30943126Y-32309719D01*
X31063220Y-32248528D01*
X31158528Y-32153220D01*
X31219719Y-32033126D01*
X31240804Y-31900000D01*
X31219719Y-31766874D01*
X31219719Y-31766873D01*
X31158528Y-31646780D01*
X31063219Y-31551471D01*
X30943126Y-31490281D01*
X30943126Y-31490280D01*
X30810000Y-31469196D01*
X30676873Y-31490280D01*
X30676873Y-31490281D01*
X30556780Y-31551471D01*
X30461471Y-31646780D01*
X30400281Y-31766873D01*
X30400280Y-31766873D01*
X30379196Y-31900000D01*
X28220804Y-31900000D01*
X28199719Y-31766874D01*
X28199719Y-31766873D01*
X28138528Y-31646780D01*
X28043219Y-31551471D01*
X27923126Y-31490281D01*
X27923126Y-31490280D01*
X27790000Y-31469196D01*
X27656873Y-31490280D01*
X27656873Y-31490281D01*
X27536780Y-31551471D01*
X27441471Y-31646780D01*
X27380281Y-31766873D01*
X27380280Y-31766873D01*
X27359196Y-31900000D01*
X17101748Y-31900000D01*
X17053222Y-31851474D01*
X17053220Y-31851472D01*
X16983469Y-31815932D01*
X16946689Y-31772867D01*
X16951132Y-31716405D01*
X16983469Y-31684067D01*
X17053220Y-31648528D01*
X17148528Y-31553220D01*
X17209719Y-31433126D01*
X17230804Y-31300000D01*
X17209719Y-31166874D01*
X17209719Y-31166873D01*
X17148528Y-31046780D01*
X17053219Y-30951471D01*
X16933126Y-30890281D01*
X16933126Y-30890280D01*
X16800000Y-30869196D01*
X16666873Y-30890280D01*
X16666873Y-30890281D01*
X16546780Y-30951471D01*
X16451471Y-31046780D01*
X16390281Y-31166873D01*
X16390280Y-31166873D01*
X16369196Y-31300000D01*
X0Y-31300000D01*
X0Y-30500000D01*
X35869196Y-30500000D01*
X35890280Y-30633126D01*
X35951471Y-30753219D01*
X35951472Y-30753220D01*
X36046780Y-30848528D01*
X36166873Y-30909718D01*
X36166873Y-30909719D01*
X36185075Y-30912601D01*
X36300000Y-30930804D01*
X36433126Y-30909719D01*
X36553220Y-30848528D01*
X36648528Y-30753220D01*
X36709719Y-30633126D01*
X36726911Y-30524578D01*
X36739061Y-30504752D01*
X36735123Y-30495246D01*
X36860938Y-30495246D01*
X36873088Y-30524578D01*
X36890281Y-30633126D01*
X36951472Y-30753220D01*
X37046780Y-30848528D01*
X37166873Y-30909718D01*
X37166873Y-30909719D01*
X37185075Y-30912601D01*
X37300000Y-30930804D01*
X37433126Y-30909719D01*
X37553220Y-30848528D01*
X37648528Y-30753220D01*
X37709719Y-30633126D01*
X37730804Y-30500000D01*
X37709719Y-30366874D01*
X37709719Y-30366873D01*
X37648528Y-30246780D01*
X37553219Y-30151471D01*
X37433126Y-30090281D01*
X37433126Y-30090280D01*
X37300000Y-30069196D01*
X37166873Y-30090280D01*
X37166873Y-30090281D01*
X37046780Y-30151471D01*
X36951471Y-30246780D01*
X36890281Y-30366873D01*
X36890280Y-30366874D01*
X36873089Y-30475420D01*
X36860938Y-30495246D01*
X36735123Y-30495246D01*
X36726911Y-30475420D01*
X36709719Y-30366874D01*
X36709718Y-30366873D01*
X36648528Y-30246780D01*
X36553219Y-30151471D01*
X36433126Y-30090281D01*
X36433126Y-30090280D01*
X36300000Y-30069196D01*
X36166873Y-30090280D01*
X36166873Y-30090281D01*
X36046780Y-30151471D01*
X35951471Y-30246780D01*
X35890281Y-30366873D01*
X35890280Y-30366873D01*
X35869196Y-30500000D01*
X0Y-30500000D01*
X0Y-29580000D01*
X3874508Y-29580000D01*
X3894353Y-29705301D01*
X3894353Y-29705302D01*
X3894354Y-29705304D01*
X3951950Y-29818342D01*
X4041658Y-29908050D01*
X4154696Y-29965646D01*
X4280000Y-29985492D01*
X4405304Y-29965646D01*
X4518342Y-29908050D01*
X4608050Y-29818342D01*
X4665646Y-29705304D01*
X4685492Y-29580000D01*
X4665646Y-29454696D01*
X4608050Y-29341658D01*
X4518342Y-29251950D01*
X4405304Y-29194354D01*
X4405302Y-29194353D01*
X4405301Y-29194353D01*
X4280000Y-29174508D01*
X4154698Y-29194353D01*
X4041656Y-29251951D01*
X3951951Y-29341656D01*
X3894353Y-29454698D01*
X3874508Y-29580000D01*
X0Y-29580000D01*
X0Y-28000000D01*
X7994508Y-28000000D01*
X8014353Y-28125301D01*
X8014353Y-28125302D01*
X8014354Y-28125304D01*
X8071950Y-28238342D01*
X8161658Y-28328050D01*
X8274696Y-28385646D01*
X8400000Y-28405492D01*
X8525304Y-28385646D01*
X8638342Y-28328050D01*
X8728050Y-28238342D01*
X8785646Y-28125304D01*
X8805492Y-28000000D01*
X34519196Y-28000000D01*
X34540280Y-28133126D01*
X34601471Y-28253219D01*
X34601472Y-28253220D01*
X34696780Y-28348528D01*
X34816873Y-28409718D01*
X34816873Y-28409719D01*
X34835075Y-28412601D01*
X34950000Y-28430804D01*
X35083126Y-28409719D01*
X35203220Y-28348528D01*
X35298528Y-28253220D01*
X35359719Y-28133126D01*
X35380804Y-28000000D01*
X35359719Y-27866874D01*
X35359719Y-27866873D01*
X35298528Y-27746780D01*
X35203219Y-27651471D01*
X35083126Y-27590281D01*
X35083126Y-27590280D01*
X34950000Y-27569196D01*
X34816873Y-27590280D01*
X34816873Y-27590281D01*
X34696780Y-27651471D01*
X34601471Y-27746780D01*
X34540281Y-27866873D01*
X34540280Y-27866873D01*
X34519196Y-28000000D01*
X8805492Y-28000000D01*
X8785646Y-27874696D01*
X8728050Y-27761658D01*
X8638342Y-27671950D01*
X8525304Y-27614354D01*
X8525302Y-27614353D01*
X8525301Y-27614353D01*
X8400000Y-27594508D01*
X8274698Y-27614353D01*
X8161656Y-27671951D01*
X8071951Y-27761656D01*
X8014353Y-27874698D01*
X7994508Y-28000000D01*
X0Y-28000000D01*
X0Y-27480000D01*
X15094508Y-27480000D01*
X15114353Y-27605301D01*
X15114353Y-27605302D01*
X15114354Y-27605304D01*
X15171950Y-27718342D01*
X15261658Y-27808050D01*
X15374696Y-27865646D01*
X15500000Y-27885492D01*
X15625304Y-27865646D01*
X15738342Y-27808050D01*
X15828050Y-27718342D01*
X15885646Y-27605304D01*
X15905492Y-27480000D01*
X15885646Y-27354696D01*
X15828050Y-27241658D01*
X15738342Y-27151950D01*
X15625304Y-27094354D01*
X15625302Y-27094353D01*
X15625301Y-27094353D01*
X15500000Y-27074508D01*
X15374698Y-27094353D01*
X15261656Y-27151951D01*
X15171951Y-27241656D01*
X15114353Y-27354698D01*
X15094508Y-27480000D01*
X0Y-27480000D01*
X0Y-26700000D01*
X2994508Y-26700000D01*
X3014353Y-26825301D01*
X3014353Y-26825302D01*
X3014354Y-26825304D01*
X3071950Y-26938342D01*
X3161658Y-27028050D01*
X3274696Y-27085646D01*
X3400000Y-27105492D01*
X3525304Y-27085646D01*
X3638342Y-27028050D01*
X3728050Y-26938342D01*
X3785646Y-26825304D01*
X3805492Y-26700000D01*
X3785646Y-26574696D01*
X3728050Y-26461658D01*
X3638342Y-26371950D01*
X3525304Y-26314354D01*
X3525302Y-26314353D01*
X3525301Y-26314353D01*
X3400000Y-26294508D01*
X3274698Y-26314353D01*
X3161656Y-26371951D01*
X3071951Y-26461656D01*
X3014353Y-26574698D01*
X2994508Y-26700000D01*
X0Y-26700000D01*
X0Y-25700000D01*
X4994508Y-25700000D01*
X5014353Y-25825301D01*
X5014353Y-25825302D01*
X5014354Y-25825304D01*
X5071950Y-25938342D01*
X5161658Y-26028050D01*
X5274696Y-26085646D01*
X5400000Y-26105492D01*
X5411694Y-26103639D01*
X5466765Y-26116859D01*
X5496360Y-26165149D01*
X5496360Y-26188302D01*
X5494508Y-26199994D01*
X5494508Y-26199999D01*
X5514353Y-26325301D01*
X5514353Y-26325302D01*
X5514354Y-26325304D01*
X5571950Y-26438342D01*
X5661658Y-26528050D01*
X5774696Y-26585646D01*
X5900000Y-26605492D01*
X6025304Y-26585646D01*
X6138342Y-26528050D01*
X6228050Y-26438342D01*
X6285646Y-26325304D01*
X6305492Y-26200000D01*
X6289654Y-26100000D01*
X8094508Y-26100000D01*
X8114353Y-26225301D01*
X8114353Y-26225302D01*
X8114354Y-26225304D01*
X8171950Y-26338342D01*
X8261658Y-26428050D01*
X8374696Y-26485646D01*
X8500000Y-26505492D01*
X8534675Y-26500000D01*
X13094508Y-26500000D01*
X13114353Y-26625301D01*
X13114353Y-26625302D01*
X13114354Y-26625304D01*
X13171950Y-26738342D01*
X13261658Y-26828050D01*
X13374696Y-26885646D01*
X13500000Y-26905492D01*
X13625304Y-26885646D01*
X13738342Y-26828050D01*
X13828050Y-26738342D01*
X13885646Y-26625304D01*
X13905492Y-26500000D01*
X14094508Y-26500000D01*
X14114353Y-26625301D01*
X14114353Y-26625302D01*
X14114354Y-26625304D01*
X14171950Y-26738342D01*
X14261658Y-26828050D01*
X14374696Y-26885646D01*
X14500000Y-26905492D01*
X14625304Y-26885646D01*
X14738342Y-26828050D01*
X14828050Y-26738342D01*
X14885646Y-26625304D01*
X14905492Y-26500000D01*
X15094508Y-26500000D01*
X15114353Y-26625301D01*
X15114353Y-26625302D01*
X15114354Y-26625304D01*
X15171950Y-26738342D01*
X15261658Y-26828050D01*
X15374696Y-26885646D01*
X15500000Y-26905492D01*
X15625304Y-26885646D01*
X15738342Y-26828050D01*
X15828050Y-26738342D01*
X15885646Y-26625304D01*
X15885646Y-26625300D01*
X15885955Y-26624695D01*
X15929023Y-26587912D01*
X15985485Y-26592355D01*
X16004216Y-26605964D01*
X16046780Y-26648528D01*
X16166873Y-26709718D01*
X16166873Y-26709719D01*
X16185075Y-26712601D01*
X16300000Y-26730804D01*
X16433126Y-26709719D01*
X16553220Y-26648528D01*
X16648528Y-26553220D01*
X16675645Y-26500000D01*
X17094508Y-26500000D01*
X17114353Y-26625301D01*
X17114353Y-26625302D01*
X17114354Y-26625304D01*
X17171950Y-26738342D01*
X17261658Y-26828050D01*
X17374696Y-26885646D01*
X17500000Y-26905492D01*
X17625304Y-26885646D01*
X17738342Y-26828050D01*
X17828050Y-26738342D01*
X17885646Y-26625304D01*
X17905492Y-26500000D01*
X18094508Y-26500000D01*
X18114353Y-26625301D01*
X18114353Y-26625302D01*
X18114354Y-26625304D01*
X18171950Y-26738342D01*
X18261658Y-26828050D01*
X18374696Y-26885646D01*
X18500000Y-26905492D01*
X18625304Y-26885646D01*
X18738342Y-26828050D01*
X18828050Y-26738342D01*
X18885646Y-26625304D01*
X18905492Y-26500000D01*
X19094508Y-26500000D01*
X19114353Y-26625301D01*
X19114353Y-26625302D01*
X19114354Y-26625304D01*
X19171950Y-26738342D01*
X19261658Y-26828050D01*
X19374696Y-26885646D01*
X19500000Y-26905492D01*
X19625304Y-26885646D01*
X19738342Y-26828050D01*
X19828050Y-26738342D01*
X19885646Y-26625304D01*
X19905492Y-26500000D01*
X20094508Y-26500000D01*
X20114353Y-26625301D01*
X20114353Y-26625302D01*
X20114354Y-26625304D01*
X20171950Y-26738342D01*
X20261658Y-26828050D01*
X20374696Y-26885646D01*
X20500000Y-26905492D01*
X20625304Y-26885646D01*
X20738342Y-26828050D01*
X20828050Y-26738342D01*
X20885646Y-26625304D01*
X20905492Y-26500000D01*
X21094508Y-26500000D01*
X21114353Y-26625301D01*
X21114353Y-26625302D01*
X21114354Y-26625304D01*
X21171950Y-26738342D01*
X21261658Y-26828050D01*
X21374696Y-26885646D01*
X21500000Y-26905492D01*
X21625304Y-26885646D01*
X21738342Y-26828050D01*
X21828050Y-26738342D01*
X21885646Y-26625304D01*
X21905492Y-26500000D01*
X22094508Y-26500000D01*
X22114353Y-26625301D01*
X22114353Y-26625302D01*
X22114354Y-26625304D01*
X22171950Y-26738342D01*
X22261658Y-26828050D01*
X22374696Y-26885646D01*
X22500000Y-26905492D01*
X22625304Y-26885646D01*
X22738342Y-26828050D01*
X22828050Y-26738342D01*
X22885646Y-26625304D01*
X22905492Y-26500000D01*
X23094508Y-26500000D01*
X23114353Y-26625301D01*
X23114353Y-26625302D01*
X23114354Y-26625304D01*
X23171950Y-26738342D01*
X23261658Y-26828050D01*
X23374696Y-26885646D01*
X23500000Y-26905492D01*
X23625304Y-26885646D01*
X23738342Y-26828050D01*
X23828050Y-26738342D01*
X23885646Y-26625304D01*
X23905492Y-26500000D01*
X24094508Y-26500000D01*
X24114353Y-26625301D01*
X24114353Y-26625302D01*
X24114354Y-26625304D01*
X24171950Y-26738342D01*
X24261658Y-26828050D01*
X24374696Y-26885646D01*
X24500000Y-26905492D01*
X24625304Y-26885646D01*
X24738342Y-26828050D01*
X24828050Y-26738342D01*
X24885646Y-26625304D01*
X24905492Y-26500000D01*
X24885646Y-26374696D01*
X24828050Y-26261658D01*
X24738342Y-26171950D01*
X24625304Y-26114354D01*
X24625302Y-26114353D01*
X24625301Y-26114353D01*
X24500000Y-26094508D01*
X24374698Y-26114353D01*
X24261656Y-26171951D01*
X24171951Y-26261656D01*
X24114353Y-26374698D01*
X24094508Y-26500000D01*
X23905492Y-26500000D01*
X23885646Y-26374696D01*
X23828050Y-26261658D01*
X23738342Y-26171950D01*
X23625304Y-26114354D01*
X23625302Y-26114353D01*
X23625301Y-26114353D01*
X23500000Y-26094508D01*
X23374698Y-26114353D01*
X23261656Y-26171951D01*
X23171951Y-26261656D01*
X23114353Y-26374698D01*
X23094508Y-26500000D01*
X22905492Y-26500000D01*
X22885646Y-26374696D01*
X22828050Y-26261658D01*
X22738342Y-26171950D01*
X22625304Y-26114354D01*
X22625302Y-26114353D01*
X22625301Y-26114353D01*
X22500000Y-26094508D01*
X22374698Y-26114353D01*
X22261656Y-26171951D01*
X22171951Y-26261656D01*
X22114353Y-26374698D01*
X22094508Y-26500000D01*
X21905492Y-26500000D01*
X21885646Y-26374696D01*
X21828050Y-26261658D01*
X21738342Y-26171950D01*
X21625304Y-26114354D01*
X21625302Y-26114353D01*
X21625301Y-26114353D01*
X21500000Y-26094508D01*
X21374698Y-26114353D01*
X21261656Y-26171951D01*
X21171951Y-26261656D01*
X21114353Y-26374698D01*
X21094508Y-26500000D01*
X20905492Y-26500000D01*
X20885646Y-26374696D01*
X20828050Y-26261658D01*
X20738342Y-26171950D01*
X20625304Y-26114354D01*
X20625302Y-26114353D01*
X20625301Y-26114353D01*
X20500000Y-26094508D01*
X20374698Y-26114353D01*
X20261656Y-26171951D01*
X20171951Y-26261656D01*
X20114353Y-26374698D01*
X20094508Y-26500000D01*
X19905492Y-26500000D01*
X19885646Y-26374696D01*
X19828050Y-26261658D01*
X19738342Y-26171950D01*
X19625304Y-26114354D01*
X19625302Y-26114353D01*
X19625301Y-26114353D01*
X19500000Y-26094508D01*
X19374698Y-26114353D01*
X19261656Y-26171951D01*
X19171951Y-26261656D01*
X19114353Y-26374698D01*
X19094508Y-26500000D01*
X18905492Y-26500000D01*
X18885646Y-26374696D01*
X18828050Y-26261658D01*
X18738342Y-26171950D01*
X18625304Y-26114354D01*
X18625302Y-26114353D01*
X18625301Y-26114353D01*
X18500000Y-26094508D01*
X18374698Y-26114353D01*
X18261656Y-26171951D01*
X18171951Y-26261656D01*
X18114353Y-26374698D01*
X18094508Y-26500000D01*
X17905492Y-26500000D01*
X17885646Y-26374696D01*
X17828050Y-26261658D01*
X17738342Y-26171950D01*
X17625304Y-26114354D01*
X17625302Y-26114353D01*
X17625301Y-26114353D01*
X17500000Y-26094508D01*
X17374698Y-26114353D01*
X17261656Y-26171951D01*
X17171951Y-26261656D01*
X17114353Y-26374698D01*
X17094508Y-26500000D01*
X16675645Y-26500000D01*
X16709719Y-26433126D01*
X16730804Y-26300000D01*
X16709719Y-26166874D01*
X16709719Y-26166873D01*
X16648528Y-26046780D01*
X16553219Y-25951471D01*
X16433126Y-25890281D01*
X16433126Y-25890280D01*
X16300000Y-25869196D01*
X16166873Y-25890280D01*
X16166873Y-25890281D01*
X16046780Y-25951471D01*
X15951471Y-26046780D01*
X15890278Y-26166878D01*
X15889086Y-26170547D01*
X15852296Y-26213608D01*
X15795833Y-26218042D01*
X15766386Y-26199994D01*
X15738343Y-26171951D01*
X15738342Y-26171950D01*
X15625304Y-26114354D01*
X15625302Y-26114353D01*
X15625301Y-26114353D01*
X15500000Y-26094508D01*
X15374698Y-26114353D01*
X15261656Y-26171951D01*
X15171951Y-26261656D01*
X15114353Y-26374698D01*
X15094508Y-26500000D01*
X14905492Y-26500000D01*
X14885646Y-26374696D01*
X14828050Y-26261658D01*
X14738342Y-26171950D01*
X14625304Y-26114354D01*
X14625302Y-26114353D01*
X14625301Y-26114353D01*
X14500000Y-26094508D01*
X14374698Y-26114353D01*
X14261656Y-26171951D01*
X14171951Y-26261656D01*
X14114353Y-26374698D01*
X14094508Y-26500000D01*
X13905492Y-26500000D01*
X13885646Y-26374696D01*
X13828050Y-26261658D01*
X13738342Y-26171950D01*
X13625304Y-26114354D01*
X13625302Y-26114353D01*
X13625301Y-26114353D01*
X13500000Y-26094508D01*
X13374698Y-26114353D01*
X13261656Y-26171951D01*
X13171951Y-26261656D01*
X13114353Y-26374698D01*
X13094508Y-26500000D01*
X8534675Y-26500000D01*
X8625304Y-26485646D01*
X8738342Y-26428050D01*
X8828050Y-26338342D01*
X8885646Y-26225304D01*
X8905492Y-26100000D01*
X8885646Y-25974696D01*
X8828050Y-25861658D01*
X8738342Y-25771950D01*
X8625304Y-25714354D01*
X8625302Y-25714353D01*
X8625301Y-25714353D01*
X8500000Y-25694508D01*
X8374698Y-25714353D01*
X8261656Y-25771951D01*
X8171951Y-25861656D01*
X8114353Y-25974698D01*
X8094508Y-26100000D01*
X6289654Y-26100000D01*
X6285646Y-26074696D01*
X6228050Y-25961658D01*
X6138342Y-25871950D01*
X6025304Y-25814354D01*
X6025302Y-25814353D01*
X6025301Y-25814353D01*
X5900000Y-25794508D01*
X5899997Y-25794508D01*
X5888302Y-25796360D01*
X5833230Y-25783137D01*
X5803639Y-25734845D01*
X5803639Y-25711699D01*
X5805492Y-25700000D01*
X5785646Y-25574696D01*
X5747586Y-25500000D01*
X19094508Y-25500000D01*
X19114353Y-25625301D01*
X19114353Y-25625302D01*
X19114354Y-25625304D01*
X19171950Y-25738342D01*
X19261658Y-25828050D01*
X19374696Y-25885646D01*
X19500000Y-25905492D01*
X19625304Y-25885646D01*
X19738342Y-25828050D01*
X19828050Y-25738342D01*
X19885646Y-25625304D01*
X19905492Y-25500000D01*
X22094508Y-25500000D01*
X22114353Y-25625301D01*
X22114353Y-25625302D01*
X22114354Y-25625304D01*
X22171950Y-25738342D01*
X22261658Y-25828050D01*
X22374696Y-25885646D01*
X22500000Y-25905492D01*
X22625304Y-25885646D01*
X22738342Y-25828050D01*
X22828050Y-25738342D01*
X22885646Y-25625304D01*
X22905492Y-25500000D01*
X22885646Y-25374696D01*
X22828050Y-25261658D01*
X22738342Y-25171950D01*
X22625304Y-25114354D01*
X22625302Y-25114353D01*
X22625301Y-25114353D01*
X22500000Y-25094508D01*
X22374698Y-25114353D01*
X22261656Y-25171951D01*
X22171951Y-25261656D01*
X22114353Y-25374698D01*
X22094508Y-25500000D01*
X19905492Y-25500000D01*
X19885646Y-25374696D01*
X19828050Y-25261658D01*
X19738342Y-25171950D01*
X19625304Y-25114354D01*
X19625302Y-25114353D01*
X19625301Y-25114353D01*
X19500000Y-25094508D01*
X19374698Y-25114353D01*
X19261656Y-25171951D01*
X19171951Y-25261656D01*
X19114353Y-25374698D01*
X19094508Y-25500000D01*
X5747586Y-25500000D01*
X5728050Y-25461658D01*
X5638342Y-25371950D01*
X5525304Y-25314354D01*
X5525302Y-25314353D01*
X5525301Y-25314353D01*
X5400000Y-25294508D01*
X5274698Y-25314353D01*
X5161656Y-25371951D01*
X5071951Y-25461656D01*
X5014353Y-25574698D01*
X4994508Y-25700000D01*
X0Y-25700000D01*
X0Y-24500000D01*
X12094508Y-24500000D01*
X12114353Y-24625301D01*
X12114353Y-24625302D01*
X12114354Y-24625304D01*
X12171950Y-24738342D01*
X12261658Y-24828050D01*
X12374696Y-24885646D01*
X12500000Y-24905492D01*
X12625304Y-24885646D01*
X12738342Y-24828050D01*
X12828050Y-24738342D01*
X12885646Y-24625304D01*
X12905492Y-24500000D01*
X13094508Y-24500000D01*
X13114353Y-24625301D01*
X13114353Y-24625302D01*
X13114354Y-24625304D01*
X13171950Y-24738342D01*
X13261658Y-24828050D01*
X13374696Y-24885646D01*
X13500000Y-24905492D01*
X13625304Y-24885646D01*
X13738342Y-24828050D01*
X13828050Y-24738342D01*
X13885646Y-24625304D01*
X13905492Y-24500000D01*
X13893297Y-24423000D01*
X17094508Y-24423000D01*
X17114353Y-24548301D01*
X17114353Y-24548302D01*
X17114354Y-24548304D01*
X17171950Y-24661342D01*
X17261658Y-24751050D01*
X17374696Y-24808646D01*
X17500000Y-24828492D01*
X17625304Y-24808646D01*
X17738342Y-24751050D01*
X17828050Y-24661342D01*
X17885646Y-24548304D01*
X17893297Y-24500000D01*
X20094508Y-24500000D01*
X20114353Y-24625301D01*
X20114353Y-24625302D01*
X20114354Y-24625304D01*
X20171950Y-24738342D01*
X20261658Y-24828050D01*
X20374696Y-24885646D01*
X20500000Y-24905492D01*
X20625304Y-24885646D01*
X20738342Y-24828050D01*
X20828050Y-24738342D01*
X20885646Y-24625304D01*
X20905492Y-24500000D01*
X24094508Y-24500000D01*
X24114353Y-24625301D01*
X24114353Y-24625302D01*
X24114354Y-24625304D01*
X24171950Y-24738342D01*
X24261658Y-24828050D01*
X24374696Y-24885646D01*
X24500000Y-24905492D01*
X24625304Y-24885646D01*
X24738342Y-24828050D01*
X24828050Y-24738342D01*
X24885646Y-24625304D01*
X24905492Y-24500000D01*
X25094508Y-24500000D01*
X25114353Y-24625301D01*
X25114353Y-24625302D01*
X25114354Y-24625304D01*
X25171950Y-24738342D01*
X25261658Y-24828050D01*
X25374696Y-24885646D01*
X25500000Y-24905492D01*
X25625304Y-24885646D01*
X25738342Y-24828050D01*
X25828050Y-24738342D01*
X25885646Y-24625304D01*
X25905492Y-24500000D01*
X25885646Y-24374696D01*
X25828050Y-24261658D01*
X25738342Y-24171950D01*
X25625304Y-24114354D01*
X25625302Y-24114353D01*
X25625301Y-24114353D01*
X25500000Y-24094508D01*
X25374698Y-24114353D01*
X25261656Y-24171951D01*
X25171951Y-24261656D01*
X25114353Y-24374698D01*
X25094508Y-24500000D01*
X24905492Y-24500000D01*
X24885646Y-24374696D01*
X24828050Y-24261658D01*
X24738342Y-24171950D01*
X24625304Y-24114354D01*
X24625302Y-24114353D01*
X24625301Y-24114353D01*
X24500000Y-24094508D01*
X24374698Y-24114353D01*
X24261656Y-24171951D01*
X24171951Y-24261656D01*
X24114353Y-24374698D01*
X24094508Y-24500000D01*
X20905492Y-24500000D01*
X20885646Y-24374696D01*
X20828050Y-24261658D01*
X20738342Y-24171950D01*
X20625304Y-24114354D01*
X20625302Y-24114353D01*
X20625301Y-24114353D01*
X20500000Y-24094508D01*
X20374698Y-24114353D01*
X20261656Y-24171951D01*
X20171951Y-24261656D01*
X20114353Y-24374698D01*
X20094508Y-24500000D01*
X17893297Y-24500000D01*
X17905492Y-24423000D01*
X17885646Y-24297696D01*
X17828050Y-24184658D01*
X17738342Y-24094950D01*
X17625304Y-24037354D01*
X17625302Y-24037353D01*
X17625301Y-24037353D01*
X17500000Y-24017508D01*
X17374698Y-24037353D01*
X17261656Y-24094951D01*
X17171951Y-24184656D01*
X17114353Y-24297698D01*
X17094508Y-24423000D01*
X13893297Y-24423000D01*
X13885646Y-24374696D01*
X13828050Y-24261658D01*
X13738342Y-24171950D01*
X13625304Y-24114354D01*
X13625302Y-24114353D01*
X13625301Y-24114353D01*
X13500000Y-24094508D01*
X13374698Y-24114353D01*
X13261656Y-24171951D01*
X13171951Y-24261656D01*
X13114353Y-24374698D01*
X13094508Y-24500000D01*
X12905492Y-24500000D01*
X12885646Y-24374696D01*
X12828050Y-24261658D01*
X12738342Y-24171950D01*
X12625304Y-24114354D01*
X12625302Y-24114353D01*
X12625301Y-24114353D01*
X12500000Y-24094508D01*
X12374698Y-24114353D01*
X12261656Y-24171951D01*
X12171951Y-24261656D01*
X12114353Y-24374698D01*
X12094508Y-24500000D01*
X0Y-24500000D01*
X0Y-23850000D01*
X1725000Y-23850000D01*
X3815000Y-23850000D01*
X3815000Y-23500000D01*
X11114508Y-23500000D01*
X11134353Y-23625301D01*
X11134353Y-23625302D01*
X11134354Y-23625304D01*
X11191950Y-23738342D01*
X11281658Y-23828050D01*
X11394696Y-23885646D01*
X11520000Y-23905492D01*
X11645304Y-23885646D01*
X11758342Y-23828050D01*
X11848050Y-23738342D01*
X11905646Y-23625304D01*
X11925492Y-23500000D01*
X24094508Y-23500000D01*
X24114353Y-23625301D01*
X24114353Y-23625302D01*
X24114354Y-23625304D01*
X24171950Y-23738342D01*
X24261658Y-23828050D01*
X24374696Y-23885646D01*
X24500000Y-23905492D01*
X24625304Y-23885646D01*
X24738342Y-23828050D01*
X24828050Y-23738342D01*
X24885646Y-23625304D01*
X24905492Y-23500000D01*
X25094508Y-23500000D01*
X25114353Y-23625301D01*
X25114353Y-23625302D01*
X25114354Y-23625304D01*
X25171950Y-23738342D01*
X25261658Y-23828050D01*
X25374696Y-23885646D01*
X25500000Y-23905492D01*
X25625304Y-23885646D01*
X25738342Y-23828050D01*
X25828050Y-23738342D01*
X25885646Y-23625304D01*
X25905492Y-23500000D01*
X25885646Y-23374696D01*
X25828050Y-23261658D01*
X25738342Y-23171950D01*
X25625304Y-23114354D01*
X25625302Y-23114353D01*
X25625301Y-23114353D01*
X25500000Y-23094508D01*
X25374698Y-23114353D01*
X25261656Y-23171951D01*
X25171951Y-23261656D01*
X25114353Y-23374698D01*
X25094508Y-23500000D01*
X24905492Y-23500000D01*
X24885646Y-23374696D01*
X24828050Y-23261658D01*
X24738342Y-23171950D01*
X24625304Y-23114354D01*
X24625302Y-23114353D01*
X24625301Y-23114353D01*
X24500000Y-23094508D01*
X24374698Y-23114353D01*
X24261656Y-23171951D01*
X24171951Y-23261656D01*
X24114353Y-23374698D01*
X24094508Y-23500000D01*
X11925492Y-23500000D01*
X11905646Y-23374696D01*
X11848050Y-23261658D01*
X11758342Y-23171950D01*
X11645304Y-23114354D01*
X11645302Y-23114353D01*
X11645301Y-23114353D01*
X11520000Y-23094508D01*
X11394698Y-23114353D01*
X11281656Y-23171951D01*
X11191951Y-23261656D01*
X11134353Y-23374698D01*
X11114508Y-23500000D01*
X3815000Y-23500000D01*
X3815000Y-22500000D01*
X11074508Y-22500000D01*
X11094353Y-22625301D01*
X11094353Y-22625302D01*
X11094354Y-22625304D01*
X11151950Y-22738342D01*
X11241658Y-22828050D01*
X11354696Y-22885646D01*
X11480000Y-22905492D01*
X11605304Y-22885646D01*
X11718342Y-22828050D01*
X11808050Y-22738342D01*
X11865646Y-22625304D01*
X11885492Y-22500000D01*
X13074508Y-22500000D01*
X13094353Y-22625301D01*
X13094353Y-22625302D01*
X13094354Y-22625304D01*
X13151950Y-22738342D01*
X13241658Y-22828050D01*
X13354696Y-22885646D01*
X13480000Y-22905492D01*
X13605304Y-22885646D01*
X13718342Y-22828050D01*
X13808050Y-22738342D01*
X13865646Y-22625304D01*
X13885492Y-22500000D01*
X24094508Y-22500000D01*
X24114353Y-22625301D01*
X24114353Y-22625302D01*
X24114354Y-22625304D01*
X24171950Y-22738342D01*
X24261658Y-22828050D01*
X24374696Y-22885646D01*
X24500000Y-22905492D01*
X24625304Y-22885646D01*
X24738342Y-22828050D01*
X24828050Y-22738342D01*
X24885646Y-22625304D01*
X24905492Y-22500000D01*
X25094508Y-22500000D01*
X25114353Y-22625301D01*
X25114353Y-22625302D01*
X25114354Y-22625304D01*
X25171950Y-22738342D01*
X25261658Y-22828050D01*
X25374696Y-22885646D01*
X25500000Y-22905492D01*
X25625304Y-22885646D01*
X25738342Y-22828050D01*
X25828050Y-22738342D01*
X25885646Y-22625304D01*
X25905492Y-22500000D01*
X27094508Y-22500000D01*
X27114353Y-22625301D01*
X27114353Y-22625302D01*
X27114354Y-22625304D01*
X27171950Y-22738342D01*
X27261658Y-22828050D01*
X27374696Y-22885646D01*
X27500000Y-22905492D01*
X27625304Y-22885646D01*
X27738342Y-22828050D01*
X27828050Y-22738342D01*
X27885646Y-22625304D01*
X27905492Y-22500000D01*
X27885646Y-22374696D01*
X27828050Y-22261658D01*
X27738342Y-22171950D01*
X27625304Y-22114354D01*
X27625302Y-22114353D01*
X27625301Y-22114353D01*
X27500000Y-22094508D01*
X27374698Y-22114353D01*
X27261656Y-22171951D01*
X27171951Y-22261656D01*
X27114353Y-22374698D01*
X27094508Y-22500000D01*
X25905492Y-22500000D01*
X25885646Y-22374696D01*
X25828050Y-22261658D01*
X25738342Y-22171950D01*
X25625304Y-22114354D01*
X25625302Y-22114353D01*
X25625301Y-22114353D01*
X25500000Y-22094508D01*
X25374698Y-22114353D01*
X25261656Y-22171951D01*
X25171951Y-22261656D01*
X25114353Y-22374698D01*
X25094508Y-22500000D01*
X24905492Y-22500000D01*
X24885646Y-22374696D01*
X24828050Y-22261658D01*
X24738342Y-22171950D01*
X24625304Y-22114354D01*
X24625302Y-22114353D01*
X24625301Y-22114353D01*
X24500000Y-22094508D01*
X24374698Y-22114353D01*
X24261656Y-22171951D01*
X24171951Y-22261656D01*
X24114353Y-22374698D01*
X24094508Y-22500000D01*
X13885492Y-22500000D01*
X13865646Y-22374696D01*
X13808050Y-22261658D01*
X13718342Y-22171950D01*
X13605304Y-22114354D01*
X13605302Y-22114353D01*
X13605301Y-22114353D01*
X13480000Y-22094508D01*
X13354698Y-22114353D01*
X13241656Y-22171951D01*
X13151951Y-22261656D01*
X13094353Y-22374698D01*
X13074508Y-22500000D01*
X11885492Y-22500000D01*
X11865646Y-22374696D01*
X11808050Y-22261658D01*
X11718342Y-22171950D01*
X11605304Y-22114354D01*
X11605302Y-22114353D01*
X11605301Y-22114353D01*
X11480000Y-22094508D01*
X11354698Y-22114353D01*
X11241656Y-22171951D01*
X11151951Y-22261656D01*
X11094353Y-22374698D01*
X11074508Y-22500000D01*
X3815000Y-22500000D01*
X3815000Y-22000000D01*
X22094508Y-22000000D01*
X22114353Y-22125301D01*
X22114353Y-22125302D01*
X22114354Y-22125304D01*
X22171950Y-22238342D01*
X22261658Y-22328050D01*
X22374696Y-22385646D01*
X22500000Y-22405492D01*
X22625304Y-22385646D01*
X22738342Y-22328050D01*
X22828050Y-22238342D01*
X22885646Y-22125304D01*
X22905492Y-22000000D01*
X22885646Y-21874696D01*
X22828050Y-21761658D01*
X22738342Y-21671950D01*
X22625304Y-21614354D01*
X22625302Y-21614353D01*
X22625301Y-21614353D01*
X22500000Y-21594508D01*
X22374698Y-21614353D01*
X22261656Y-21671951D01*
X22171951Y-21761656D01*
X22114353Y-21874698D01*
X22094508Y-22000000D01*
X3815000Y-22000000D01*
X3815000Y-21950000D01*
X1725000Y-21950000D01*
X1725000Y-23850000D01*
X0Y-23850000D01*
X0Y-21500000D01*
X9974508Y-21500000D01*
X9994353Y-21625301D01*
X9994353Y-21625302D01*
X9994354Y-21625304D01*
X10051950Y-21738342D01*
X10141658Y-21828050D01*
X10254696Y-21885646D01*
X10380000Y-21905492D01*
X10505304Y-21885646D01*
X10618342Y-21828050D01*
X10708050Y-21738342D01*
X10765646Y-21625304D01*
X10785492Y-21500000D01*
X12094508Y-21500000D01*
X12114353Y-21625301D01*
X12114353Y-21625302D01*
X12114354Y-21625304D01*
X12171950Y-21738342D01*
X12261658Y-21828050D01*
X12374696Y-21885646D01*
X12500000Y-21905492D01*
X12625304Y-21885646D01*
X12738342Y-21828050D01*
X12828050Y-21738342D01*
X12885646Y-21625304D01*
X12905492Y-21500000D01*
X13114508Y-21500000D01*
X13134353Y-21625301D01*
X13134353Y-21625302D01*
X13134354Y-21625304D01*
X13191950Y-21738342D01*
X13281658Y-21828050D01*
X13394696Y-21885646D01*
X13520000Y-21905492D01*
X13645304Y-21885646D01*
X13758342Y-21828050D01*
X13848050Y-21738342D01*
X13905646Y-21625304D01*
X13925492Y-21500000D01*
X15044508Y-21500000D01*
X15064353Y-21625301D01*
X15064353Y-21625302D01*
X15064354Y-21625304D01*
X15121950Y-21738342D01*
X15211658Y-21828050D01*
X15324696Y-21885646D01*
X15450000Y-21905492D01*
X15575304Y-21885646D01*
X15688342Y-21828050D01*
X15778050Y-21738342D01*
X15835646Y-21625304D01*
X15855492Y-21500000D01*
X24094508Y-21500000D01*
X24114353Y-21625301D01*
X24114353Y-21625302D01*
X24114354Y-21625304D01*
X24171950Y-21738342D01*
X24261658Y-21828050D01*
X24374696Y-21885646D01*
X24500000Y-21905492D01*
X24625304Y-21885646D01*
X24738342Y-21828050D01*
X24828050Y-21738342D01*
X24885646Y-21625304D01*
X24905492Y-21500000D01*
X25094508Y-21500000D01*
X25114353Y-21625301D01*
X25114353Y-21625302D01*
X25114354Y-21625304D01*
X25171950Y-21738342D01*
X25261658Y-21828050D01*
X25374696Y-21885646D01*
X25500000Y-21905492D01*
X25625304Y-21885646D01*
X25738342Y-21828050D01*
X25828050Y-21738342D01*
X25885646Y-21625304D01*
X25905492Y-21500000D01*
X27094508Y-21500000D01*
X27114353Y-21625301D01*
X27114353Y-21625302D01*
X27114354Y-21625304D01*
X27171950Y-21738342D01*
X27261658Y-21828050D01*
X27374696Y-21885646D01*
X27500000Y-21905492D01*
X27625304Y-21885646D01*
X27738342Y-21828050D01*
X27828050Y-21738342D01*
X27885646Y-21625304D01*
X27905492Y-21500000D01*
X27885646Y-21374696D01*
X27828050Y-21261658D01*
X27738342Y-21171950D01*
X27625304Y-21114354D01*
X27625302Y-21114353D01*
X27625301Y-21114353D01*
X27500000Y-21094508D01*
X27374698Y-21114353D01*
X27261656Y-21171951D01*
X27171951Y-21261656D01*
X27114353Y-21374698D01*
X27094508Y-21500000D01*
X25905492Y-21500000D01*
X25885646Y-21374696D01*
X25828050Y-21261658D01*
X25738342Y-21171950D01*
X25625304Y-21114354D01*
X25625302Y-21114353D01*
X25625301Y-21114353D01*
X25500000Y-21094508D01*
X25374698Y-21114353D01*
X25261656Y-21171951D01*
X25171951Y-21261656D01*
X25114353Y-21374698D01*
X25094508Y-21500000D01*
X24905492Y-21500000D01*
X24885646Y-21374696D01*
X24828050Y-21261658D01*
X24738342Y-21171950D01*
X24625304Y-21114354D01*
X24625302Y-21114353D01*
X24625301Y-21114353D01*
X24500000Y-21094508D01*
X24374698Y-21114353D01*
X24261656Y-21171951D01*
X24171951Y-21261656D01*
X24114353Y-21374698D01*
X24094508Y-21500000D01*
X15855492Y-21500000D01*
X15835646Y-21374696D01*
X15778050Y-21261658D01*
X15688342Y-21171950D01*
X15575304Y-21114354D01*
X15575302Y-21114353D01*
X15575301Y-21114353D01*
X15450000Y-21094508D01*
X15324698Y-21114353D01*
X15211656Y-21171951D01*
X15121951Y-21261656D01*
X15064353Y-21374698D01*
X15044508Y-21500000D01*
X13925492Y-21500000D01*
X13905646Y-21374696D01*
X13848050Y-21261658D01*
X13758342Y-21171950D01*
X13645304Y-21114354D01*
X13645302Y-21114353D01*
X13645301Y-21114353D01*
X13520000Y-21094508D01*
X13394698Y-21114353D01*
X13281656Y-21171951D01*
X13191951Y-21261656D01*
X13134353Y-21374698D01*
X13114508Y-21500000D01*
X12905492Y-21500000D01*
X12885646Y-21374696D01*
X12828050Y-21261658D01*
X12738342Y-21171950D01*
X12625304Y-21114354D01*
X12625302Y-21114353D01*
X12625301Y-21114353D01*
X12500000Y-21094508D01*
X12374698Y-21114353D01*
X12261656Y-21171951D01*
X12171951Y-21261656D01*
X12114353Y-21374698D01*
X12094508Y-21500000D01*
X10785492Y-21500000D01*
X10765646Y-21374696D01*
X10708050Y-21261658D01*
X10618342Y-21171950D01*
X10505304Y-21114354D01*
X10505302Y-21114353D01*
X10505301Y-21114353D01*
X10380000Y-21094508D01*
X10254698Y-21114353D01*
X10141656Y-21171951D01*
X10051951Y-21261656D01*
X9994353Y-21374698D01*
X9974508Y-21500000D01*
X0Y-21500000D01*
X0Y-20500000D01*
X11074508Y-20500000D01*
X11094353Y-20625301D01*
X11094353Y-20625302D01*
X11094354Y-20625304D01*
X11151950Y-20738342D01*
X11241658Y-20828050D01*
X11354696Y-20885646D01*
X11480000Y-20905492D01*
X11605304Y-20885646D01*
X11718342Y-20828050D01*
X11808050Y-20738342D01*
X11865646Y-20625304D01*
X11885492Y-20500000D01*
X12094508Y-20500000D01*
X12114353Y-20625301D01*
X12114353Y-20625302D01*
X12114354Y-20625304D01*
X12171950Y-20738342D01*
X12261658Y-20828050D01*
X12374696Y-20885646D01*
X12500000Y-20905492D01*
X12625304Y-20885646D01*
X12738342Y-20828050D01*
X12828050Y-20738342D01*
X12885646Y-20625304D01*
X12905492Y-20500000D01*
X12902324Y-20480000D01*
X13094508Y-20480000D01*
X13114353Y-20605301D01*
X13114353Y-20605302D01*
X13114354Y-20605304D01*
X13171950Y-20718342D01*
X13261658Y-20808050D01*
X13374696Y-20865646D01*
X13500000Y-20885492D01*
X13625304Y-20865646D01*
X13738342Y-20808050D01*
X13828050Y-20718342D01*
X13885646Y-20605304D01*
X13902324Y-20500000D01*
X14094508Y-20500000D01*
X14114353Y-20625301D01*
X14114353Y-20625302D01*
X14114354Y-20625304D01*
X14171950Y-20738342D01*
X14261658Y-20828050D01*
X14374696Y-20885646D01*
X14500000Y-20905492D01*
X14625304Y-20885646D01*
X14738342Y-20828050D01*
X14828050Y-20738342D01*
X14885646Y-20625304D01*
X14905492Y-20500000D01*
X24094508Y-20500000D01*
X24114353Y-20625301D01*
X24114353Y-20625302D01*
X24114354Y-20625304D01*
X24171950Y-20738342D01*
X24261658Y-20828050D01*
X24374696Y-20885646D01*
X24500000Y-20905492D01*
X24625304Y-20885646D01*
X24738342Y-20828050D01*
X24828050Y-20738342D01*
X24885646Y-20625304D01*
X24905492Y-20500000D01*
X25094508Y-20500000D01*
X25114353Y-20625301D01*
X25114353Y-20625302D01*
X25114354Y-20625304D01*
X25171950Y-20738342D01*
X25261658Y-20828050D01*
X25374696Y-20885646D01*
X25500000Y-20905492D01*
X25625304Y-20885646D01*
X25738342Y-20828050D01*
X25828050Y-20738342D01*
X25885646Y-20625304D01*
X25905492Y-20500000D01*
X25885646Y-20374696D01*
X25828050Y-20261658D01*
X25738342Y-20171950D01*
X25625304Y-20114354D01*
X25625302Y-20114353D01*
X25625301Y-20114353D01*
X25500000Y-20094508D01*
X25374698Y-20114353D01*
X25261656Y-20171951D01*
X25171951Y-20261656D01*
X25114353Y-20374698D01*
X25094508Y-20500000D01*
X24905492Y-20500000D01*
X24885646Y-20374696D01*
X24828050Y-20261658D01*
X24738342Y-20171950D01*
X24625304Y-20114354D01*
X24625302Y-20114353D01*
X24625301Y-20114353D01*
X24500000Y-20094508D01*
X24374698Y-20114353D01*
X24261656Y-20171951D01*
X24171951Y-20261656D01*
X24114353Y-20374698D01*
X24094508Y-20500000D01*
X14905492Y-20500000D01*
X14885646Y-20374696D01*
X14828050Y-20261658D01*
X14738342Y-20171950D01*
X14625304Y-20114354D01*
X14625302Y-20114353D01*
X14625301Y-20114353D01*
X14500000Y-20094508D01*
X14374698Y-20114353D01*
X14261656Y-20171951D01*
X14171951Y-20261656D01*
X14114353Y-20374698D01*
X14094508Y-20500000D01*
X13902324Y-20500000D01*
X13905492Y-20480000D01*
X13885646Y-20354696D01*
X13828050Y-20241658D01*
X13738342Y-20151950D01*
X13625304Y-20094354D01*
X13625302Y-20094353D01*
X13625301Y-20094353D01*
X13500000Y-20074508D01*
X13374698Y-20094353D01*
X13261656Y-20151951D01*
X13171951Y-20241656D01*
X13114353Y-20354698D01*
X13094508Y-20480000D01*
X12902324Y-20480000D01*
X12885646Y-20374696D01*
X12828050Y-20261658D01*
X12738342Y-20171950D01*
X12625304Y-20114354D01*
X12625302Y-20114353D01*
X12625301Y-20114353D01*
X12500000Y-20094508D01*
X12374698Y-20114353D01*
X12261656Y-20171951D01*
X12171951Y-20261656D01*
X12114353Y-20374698D01*
X12094508Y-20500000D01*
X11885492Y-20500000D01*
X11865646Y-20374696D01*
X11808050Y-20261658D01*
X11718342Y-20171950D01*
X11605304Y-20114354D01*
X11605302Y-20114353D01*
X11605301Y-20114353D01*
X11480000Y-20094508D01*
X11354698Y-20114353D01*
X11241656Y-20171951D01*
X11151951Y-20261656D01*
X11094353Y-20374698D01*
X11074508Y-20500000D01*
X0Y-20500000D01*
X0Y-19500000D01*
X11069196Y-19500000D01*
X11090280Y-19633126D01*
X11151471Y-19753219D01*
X11151472Y-19753220D01*
X11246780Y-19848528D01*
X11366873Y-19909718D01*
X11366873Y-19909719D01*
X11385075Y-19912601D01*
X11500000Y-19930804D01*
X11633126Y-19909719D01*
X11753220Y-19848528D01*
X11848528Y-19753220D01*
X11909719Y-19633126D01*
X11930804Y-19500000D01*
X14094508Y-19500000D01*
X14114353Y-19625301D01*
X14114353Y-19625302D01*
X14114354Y-19625304D01*
X14171950Y-19738342D01*
X14261658Y-19828050D01*
X14374696Y-19885646D01*
X14500000Y-19905492D01*
X14625304Y-19885646D01*
X14738342Y-19828050D01*
X14828050Y-19738342D01*
X14885646Y-19625304D01*
X14905492Y-19500000D01*
X27094508Y-19500000D01*
X27114353Y-19625301D01*
X27114353Y-19625302D01*
X27114354Y-19625304D01*
X27171950Y-19738342D01*
X27261658Y-19828050D01*
X27374696Y-19885646D01*
X27500000Y-19905492D01*
X27625304Y-19885646D01*
X27738342Y-19828050D01*
X27828050Y-19738342D01*
X27885646Y-19625304D01*
X27905492Y-19500000D01*
X27885646Y-19374696D01*
X27828050Y-19261658D01*
X27738342Y-19171950D01*
X27625304Y-19114354D01*
X27625302Y-19114353D01*
X27625301Y-19114353D01*
X27500000Y-19094508D01*
X27374698Y-19114353D01*
X27261656Y-19171951D01*
X27171951Y-19261656D01*
X27114353Y-19374698D01*
X27094508Y-19500000D01*
X14905492Y-19500000D01*
X14885646Y-19374696D01*
X14828050Y-19261658D01*
X14738342Y-19171950D01*
X14625304Y-19114354D01*
X14625302Y-19114353D01*
X14625301Y-19114353D01*
X14500000Y-19094508D01*
X14374698Y-19114353D01*
X14261656Y-19171951D01*
X14171951Y-19261656D01*
X14114353Y-19374698D01*
X14094508Y-19500000D01*
X11930804Y-19500000D01*
X11909719Y-19366874D01*
X11909719Y-19366873D01*
X11848528Y-19246780D01*
X11753219Y-19151471D01*
X11633126Y-19090281D01*
X11633126Y-19090280D01*
X11533073Y-19074434D01*
X11524578Y-19073088D01*
X11504752Y-19060938D01*
X11475420Y-19073089D01*
X11366874Y-19090280D01*
X11366873Y-19090281D01*
X11246780Y-19151471D01*
X11151471Y-19246780D01*
X11090281Y-19366873D01*
X11090280Y-19366873D01*
X11069196Y-19500000D01*
X0Y-19500000D01*
X0Y-18500000D01*
X11069196Y-18500000D01*
X11090280Y-18633126D01*
X11151471Y-18753219D01*
X11151472Y-18753220D01*
X11246780Y-18848528D01*
X11366874Y-18909719D01*
X11475420Y-18926911D01*
X11495246Y-18939061D01*
X11524578Y-18926911D01*
X11633126Y-18909719D01*
X11753220Y-18848528D01*
X11848528Y-18753220D01*
X11909719Y-18633126D01*
X11930804Y-18500000D01*
X13114508Y-18500000D01*
X13134353Y-18625301D01*
X13134353Y-18625302D01*
X13134354Y-18625304D01*
X13191950Y-18738342D01*
X13281658Y-18828050D01*
X13394696Y-18885646D01*
X13520000Y-18905492D01*
X13645304Y-18885646D01*
X13758342Y-18828050D01*
X13848050Y-18738342D01*
X13905646Y-18625304D01*
X13925492Y-18500000D01*
X27094508Y-18500000D01*
X27114353Y-18625301D01*
X27114353Y-18625302D01*
X27114354Y-18625304D01*
X27171950Y-18738342D01*
X27261658Y-18828050D01*
X27374696Y-18885646D01*
X27500000Y-18905492D01*
X27625304Y-18885646D01*
X27738342Y-18828050D01*
X27828050Y-18738342D01*
X27885646Y-18625304D01*
X27905492Y-18500000D01*
X27885646Y-18374696D01*
X27828050Y-18261658D01*
X27738342Y-18171950D01*
X27625304Y-18114354D01*
X27625302Y-18114353D01*
X27625301Y-18114353D01*
X27500000Y-18094508D01*
X27374698Y-18114353D01*
X27261656Y-18171951D01*
X27171951Y-18261656D01*
X27114353Y-18374698D01*
X27094508Y-18500000D01*
X13925492Y-18500000D01*
X13905646Y-18374696D01*
X13848050Y-18261658D01*
X13758342Y-18171950D01*
X13645304Y-18114354D01*
X13645302Y-18114353D01*
X13645301Y-18114353D01*
X13520000Y-18094508D01*
X13394698Y-18114353D01*
X13281656Y-18171951D01*
X13191951Y-18261656D01*
X13134353Y-18374698D01*
X13114508Y-18500000D01*
X11930804Y-18500000D01*
X11909719Y-18366874D01*
X11909719Y-18366873D01*
X11848528Y-18246780D01*
X11753219Y-18151471D01*
X11633126Y-18090281D01*
X11633126Y-18090280D01*
X11500000Y-18069196D01*
X11366873Y-18090280D01*
X11366873Y-18090281D01*
X11246780Y-18151471D01*
X11151471Y-18246780D01*
X11090281Y-18366873D01*
X11090280Y-18366873D01*
X11069196Y-18500000D01*
X0Y-18500000D01*
X0Y-17600000D01*
X8569196Y-17600000D01*
X8590280Y-17733126D01*
X8638646Y-17828048D01*
X8651472Y-17853220D01*
X8746780Y-17948528D01*
X8866873Y-18009718D01*
X8866873Y-18009719D01*
X8885075Y-18012601D01*
X9000000Y-18030804D01*
X9133126Y-18009719D01*
X9253220Y-17948528D01*
X9348528Y-17853220D01*
X9409719Y-17733126D01*
X9430804Y-17600000D01*
X9414966Y-17500000D01*
X13114508Y-17500000D01*
X13134353Y-17625301D01*
X13134353Y-17625302D01*
X13134354Y-17625304D01*
X13191950Y-17738342D01*
X13281658Y-17828050D01*
X13394696Y-17885646D01*
X13520000Y-17905492D01*
X13645304Y-17885646D01*
X13758342Y-17828050D01*
X13848050Y-17738342D01*
X13905646Y-17625304D01*
X13925492Y-17500000D01*
X17669196Y-17500000D01*
X17690280Y-17633126D01*
X17751471Y-17753219D01*
X17751472Y-17753220D01*
X17846780Y-17848528D01*
X17966873Y-17909718D01*
X17966873Y-17909719D01*
X17985075Y-17912601D01*
X18100000Y-17930804D01*
X18233126Y-17909719D01*
X18353220Y-17848528D01*
X18448528Y-17753220D01*
X18509719Y-17633126D01*
X18530804Y-17500000D01*
X18509719Y-17366874D01*
X18509719Y-17366873D01*
X18448528Y-17246780D01*
X18353219Y-17151471D01*
X18233126Y-17090281D01*
X18233126Y-17090280D01*
X18100000Y-17069196D01*
X17966873Y-17090280D01*
X17966873Y-17090281D01*
X17846780Y-17151471D01*
X17751471Y-17246780D01*
X17690281Y-17366873D01*
X17690280Y-17366873D01*
X17669196Y-17500000D01*
X13925492Y-17500000D01*
X13905646Y-17374696D01*
X13848050Y-17261658D01*
X13758342Y-17171950D01*
X13645304Y-17114354D01*
X13645302Y-17114353D01*
X13645301Y-17114353D01*
X13520000Y-17094508D01*
X13394698Y-17114353D01*
X13281656Y-17171951D01*
X13191951Y-17261656D01*
X13134353Y-17374698D01*
X13114508Y-17500000D01*
X9414966Y-17500000D01*
X9409719Y-17466874D01*
X9409719Y-17466873D01*
X9348528Y-17346780D01*
X9253219Y-17251471D01*
X9133126Y-17190281D01*
X9133126Y-17190280D01*
X9000000Y-17169196D01*
X8866873Y-17190280D01*
X8866873Y-17190281D01*
X8746780Y-17251471D01*
X8651471Y-17346780D01*
X8590281Y-17466873D01*
X8590280Y-17466873D01*
X8569196Y-17600000D01*
X0Y-17600000D01*
X0Y-15500000D01*
X11114508Y-15500000D01*
X11134353Y-15625301D01*
X11134353Y-15625302D01*
X11134354Y-15625304D01*
X11191950Y-15738342D01*
X11281658Y-15828050D01*
X11394696Y-15885646D01*
X11520000Y-15905492D01*
X11645304Y-15885646D01*
X11758342Y-15828050D01*
X11848050Y-15738342D01*
X11905646Y-15625304D01*
X11925492Y-15500000D01*
X11905646Y-15374696D01*
X11848050Y-15261658D01*
X11758342Y-15171950D01*
X11645304Y-15114354D01*
X11645302Y-15114353D01*
X11645301Y-15114353D01*
X11520000Y-15094508D01*
X11394698Y-15114353D01*
X11281656Y-15171951D01*
X11191951Y-15261656D01*
X11134353Y-15374698D01*
X11114508Y-15500000D01*
X0Y-15500000D01*
X0Y-14500000D01*
X9969196Y-14500000D01*
X9990280Y-14633126D01*
X10048987Y-14748343D01*
X10051472Y-14753220D01*
X10146780Y-14848528D01*
X10266873Y-14909718D01*
X10266873Y-14909719D01*
X10285075Y-14912601D01*
X10400000Y-14930804D01*
X10533126Y-14909719D01*
X10653220Y-14848528D01*
X10748528Y-14753220D01*
X10809719Y-14633126D01*
X10829220Y-14510000D01*
X11094508Y-14510000D01*
X11114353Y-14635301D01*
X11114353Y-14635302D01*
X11114354Y-14635304D01*
X11171950Y-14748342D01*
X11261658Y-14838050D01*
X11374696Y-14895646D01*
X11500000Y-14915492D01*
X11625304Y-14895646D01*
X11738342Y-14838050D01*
X11828050Y-14748342D01*
X11885646Y-14635304D01*
X11905492Y-14510000D01*
X11903908Y-14500000D01*
X17094508Y-14500000D01*
X17114353Y-14625301D01*
X17114353Y-14625302D01*
X17114354Y-14625304D01*
X17171950Y-14738342D01*
X17261658Y-14828050D01*
X17374696Y-14885646D01*
X17500000Y-14905492D01*
X17625304Y-14885646D01*
X17738342Y-14828050D01*
X17828050Y-14738342D01*
X17885646Y-14625304D01*
X17905492Y-14500000D01*
X20094508Y-14500000D01*
X20114353Y-14625301D01*
X20114353Y-14625302D01*
X20114354Y-14625304D01*
X20171950Y-14738342D01*
X20261658Y-14828050D01*
X20374696Y-14885646D01*
X20500000Y-14905492D01*
X20625304Y-14885646D01*
X20738342Y-14828050D01*
X20828050Y-14738342D01*
X20885646Y-14625304D01*
X20905492Y-14500000D01*
X20885646Y-14374696D01*
X20828050Y-14261658D01*
X20738342Y-14171950D01*
X20625304Y-14114354D01*
X20625302Y-14114353D01*
X20625301Y-14114353D01*
X20500000Y-14094508D01*
X20374698Y-14114353D01*
X20261656Y-14171951D01*
X20171951Y-14261656D01*
X20114353Y-14374698D01*
X20094508Y-14500000D01*
X17905492Y-14500000D01*
X17885646Y-14374696D01*
X17828050Y-14261658D01*
X17738342Y-14171950D01*
X17625304Y-14114354D01*
X17625302Y-14114353D01*
X17625301Y-14114353D01*
X17500000Y-14094508D01*
X17374698Y-14114353D01*
X17261656Y-14171951D01*
X17171951Y-14261656D01*
X17114353Y-14374698D01*
X17094508Y-14500000D01*
X11903908Y-14500000D01*
X11885646Y-14384696D01*
X11828050Y-14271658D01*
X11738342Y-14181950D01*
X11625304Y-14124354D01*
X11625302Y-14124353D01*
X11625301Y-14124353D01*
X11500000Y-14104508D01*
X11374698Y-14124353D01*
X11261656Y-14181951D01*
X11171951Y-14271656D01*
X11114353Y-14384698D01*
X11094508Y-14510000D01*
X10829220Y-14510000D01*
X10830804Y-14500000D01*
X10809719Y-14366874D01*
X10809719Y-14366873D01*
X10748528Y-14246780D01*
X10653219Y-14151471D01*
X10533126Y-14090281D01*
X10533126Y-14090280D01*
X10400000Y-14069196D01*
X10266873Y-14090280D01*
X10266873Y-14090281D01*
X10146780Y-14151471D01*
X10051471Y-14246780D01*
X9990281Y-14366873D01*
X9990280Y-14366873D01*
X9969196Y-14500000D01*
X0Y-14500000D01*
X0Y-13500000D01*
X13094508Y-13500000D01*
X13114353Y-13625301D01*
X13114353Y-13625302D01*
X13114354Y-13625304D01*
X13171950Y-13738342D01*
X13261658Y-13828050D01*
X13374696Y-13885646D01*
X13500000Y-13905492D01*
X13625304Y-13885646D01*
X13738342Y-13828050D01*
X13828050Y-13738342D01*
X13885646Y-13625304D01*
X13905492Y-13500000D01*
X15094508Y-13500000D01*
X15114353Y-13625301D01*
X15114353Y-13625302D01*
X15114354Y-13625304D01*
X15171950Y-13738342D01*
X15261658Y-13828050D01*
X15374696Y-13885646D01*
X15500000Y-13905492D01*
X15625304Y-13885646D01*
X15738342Y-13828050D01*
X15828050Y-13738342D01*
X15885646Y-13625304D01*
X15905492Y-13500000D01*
X16094508Y-13500000D01*
X16114353Y-13625301D01*
X16114353Y-13625302D01*
X16114354Y-13625304D01*
X16171950Y-13738342D01*
X16261658Y-13828050D01*
X16374696Y-13885646D01*
X16500000Y-13905492D01*
X16625304Y-13885646D01*
X16738342Y-13828050D01*
X16828050Y-13738342D01*
X16885646Y-13625304D01*
X16905492Y-13500000D01*
X19094508Y-13500000D01*
X19114353Y-13625301D01*
X19114353Y-13625302D01*
X19114354Y-13625304D01*
X19171950Y-13738342D01*
X19261658Y-13828050D01*
X19374696Y-13885646D01*
X19500000Y-13905492D01*
X19625304Y-13885646D01*
X19738342Y-13828050D01*
X19828050Y-13738342D01*
X19885646Y-13625304D01*
X19905492Y-13500000D01*
X22094508Y-13500000D01*
X22114353Y-13625301D01*
X22114353Y-13625302D01*
X22114354Y-13625304D01*
X22171950Y-13738342D01*
X22261658Y-13828050D01*
X22374696Y-13885646D01*
X22500000Y-13905492D01*
X22625304Y-13885646D01*
X22738342Y-13828050D01*
X22828050Y-13738342D01*
X22885646Y-13625304D01*
X22905492Y-13500000D01*
X22885646Y-13374696D01*
X22828050Y-13261658D01*
X22738342Y-13171950D01*
X22625304Y-13114354D01*
X22625302Y-13114353D01*
X22625301Y-13114353D01*
X22500000Y-13094508D01*
X22374698Y-13114353D01*
X22261656Y-13171951D01*
X22171951Y-13261656D01*
X22114353Y-13374698D01*
X22094508Y-13500000D01*
X19905492Y-13500000D01*
X19885646Y-13374696D01*
X19828050Y-13261658D01*
X19738342Y-13171950D01*
X19625304Y-13114354D01*
X19625302Y-13114353D01*
X19625301Y-13114353D01*
X19500000Y-13094508D01*
X19374698Y-13114353D01*
X19261656Y-13171951D01*
X19171951Y-13261656D01*
X19114353Y-13374698D01*
X19094508Y-13500000D01*
X16905492Y-13500000D01*
X16885646Y-13374696D01*
X16828050Y-13261658D01*
X16738342Y-13171950D01*
X16625304Y-13114354D01*
X16625302Y-13114353D01*
X16625301Y-13114353D01*
X16500000Y-13094508D01*
X16374698Y-13114353D01*
X16261656Y-13171951D01*
X16171951Y-13261656D01*
X16114353Y-13374698D01*
X16094508Y-13500000D01*
X15905492Y-13500000D01*
X15885646Y-13374696D01*
X15828050Y-13261658D01*
X15738342Y-13171950D01*
X15625304Y-13114354D01*
X15625302Y-13114353D01*
X15625301Y-13114353D01*
X15500000Y-13094508D01*
X15374698Y-13114353D01*
X15261656Y-13171951D01*
X15171951Y-13261656D01*
X15114353Y-13374698D01*
X15094508Y-13500000D01*
X13905492Y-13500000D01*
X13885646Y-13374696D01*
X13828050Y-13261658D01*
X13738342Y-13171950D01*
X13625304Y-13114354D01*
X13625302Y-13114353D01*
X13625301Y-13114353D01*
X13500000Y-13094508D01*
X13374698Y-13114353D01*
X13261656Y-13171951D01*
X13171951Y-13261656D01*
X13114353Y-13374698D01*
X13094508Y-13500000D01*
X0Y-13500000D01*
X0Y-12500000D01*
X14094508Y-12500000D01*
X14114353Y-12625301D01*
X14114353Y-12625302D01*
X14114354Y-12625304D01*
X14171950Y-12738342D01*
X14261658Y-12828050D01*
X14374696Y-12885646D01*
X14500000Y-12905492D01*
X14625304Y-12885646D01*
X14738342Y-12828050D01*
X14828050Y-12738342D01*
X14885646Y-12625304D01*
X14905492Y-12500000D01*
X14902324Y-12480000D01*
X15094508Y-12480000D01*
X15114353Y-12605301D01*
X15114353Y-12605302D01*
X15114354Y-12605304D01*
X15171950Y-12718342D01*
X15261658Y-12808050D01*
X15374696Y-12865646D01*
X15500000Y-12885492D01*
X15625304Y-12865646D01*
X15738342Y-12808050D01*
X15828050Y-12718342D01*
X15885646Y-12605304D01*
X15905492Y-12480000D01*
X16069196Y-12480000D01*
X16090280Y-12613126D01*
X16151471Y-12733219D01*
X16151472Y-12733220D01*
X16246780Y-12828528D01*
X16366873Y-12889718D01*
X16366873Y-12889719D01*
X16385075Y-12892601D01*
X16500000Y-12910804D01*
X16633126Y-12889719D01*
X16753220Y-12828528D01*
X16848528Y-12733220D01*
X16909719Y-12613126D01*
X16924469Y-12520000D01*
X17094508Y-12520000D01*
X17114353Y-12645301D01*
X17114353Y-12645302D01*
X17114354Y-12645304D01*
X17171950Y-12758342D01*
X17261658Y-12848050D01*
X17374696Y-12905646D01*
X17500000Y-12925492D01*
X17625304Y-12905646D01*
X17738342Y-12848050D01*
X17828050Y-12758342D01*
X17885646Y-12645304D01*
X17905492Y-12520000D01*
X18094508Y-12520000D01*
X18114353Y-12645301D01*
X18114353Y-12645302D01*
X18114354Y-12645304D01*
X18171950Y-12758342D01*
X18261658Y-12848050D01*
X18374696Y-12905646D01*
X18500000Y-12925492D01*
X18625304Y-12905646D01*
X18738342Y-12848050D01*
X18828050Y-12758342D01*
X18885646Y-12645304D01*
X18905492Y-12520000D01*
X18902324Y-12500000D01*
X19094508Y-12500000D01*
X19114353Y-12625301D01*
X19114353Y-12625302D01*
X19114354Y-12625304D01*
X19171950Y-12738342D01*
X19261658Y-12828050D01*
X19374696Y-12885646D01*
X19500000Y-12905492D01*
X19625304Y-12885646D01*
X19738342Y-12828050D01*
X19828050Y-12738342D01*
X19885646Y-12625304D01*
X19905492Y-12500000D01*
X20094508Y-12500000D01*
X20114353Y-12625301D01*
X20114353Y-12625302D01*
X20114354Y-12625304D01*
X20171950Y-12738342D01*
X20261658Y-12828050D01*
X20374696Y-12885646D01*
X20500000Y-12905492D01*
X20625304Y-12885646D01*
X20738342Y-12828050D01*
X20828050Y-12738342D01*
X20885646Y-12625304D01*
X20902324Y-12520000D01*
X21094508Y-12520000D01*
X21114353Y-12645301D01*
X21114353Y-12645302D01*
X21114354Y-12645304D01*
X21171950Y-12758342D01*
X21261658Y-12848050D01*
X21374696Y-12905646D01*
X21500000Y-12925492D01*
X21625304Y-12905646D01*
X21738342Y-12848050D01*
X21828050Y-12758342D01*
X21885646Y-12645304D01*
X21905492Y-12520000D01*
X21902324Y-12500000D01*
X22094508Y-12500000D01*
X22114353Y-12625301D01*
X22114353Y-12625302D01*
X22114354Y-12625304D01*
X22171950Y-12738342D01*
X22261658Y-12828050D01*
X22374696Y-12885646D01*
X22500000Y-12905492D01*
X22625304Y-12885646D01*
X22738342Y-12828050D01*
X22828050Y-12738342D01*
X22885646Y-12625304D01*
X22902324Y-12520000D01*
X23094508Y-12520000D01*
X23114353Y-12645301D01*
X23114353Y-12645302D01*
X23114354Y-12645304D01*
X23171950Y-12758342D01*
X23261658Y-12848050D01*
X23374696Y-12905646D01*
X23500000Y-12925492D01*
X23625304Y-12905646D01*
X23738342Y-12848050D01*
X23828050Y-12758342D01*
X23885646Y-12645304D01*
X23905492Y-12520000D01*
X24094508Y-12520000D01*
X24114353Y-12645301D01*
X24114353Y-12645302D01*
X24114354Y-12645304D01*
X24171950Y-12758342D01*
X24261658Y-12848050D01*
X24374696Y-12905646D01*
X24500000Y-12925492D01*
X24625304Y-12905646D01*
X24738342Y-12848050D01*
X24828050Y-12758342D01*
X24885646Y-12645304D01*
X24905492Y-12520000D01*
X25094508Y-12520000D01*
X25114353Y-12645301D01*
X25114353Y-12645302D01*
X25114354Y-12645304D01*
X25171950Y-12758342D01*
X25261658Y-12848050D01*
X25374696Y-12905646D01*
X25500000Y-12925492D01*
X25625304Y-12905646D01*
X25738342Y-12848050D01*
X25828050Y-12758342D01*
X25885646Y-12645304D01*
X25905492Y-12520000D01*
X25885646Y-12394696D01*
X25828050Y-12281658D01*
X25738342Y-12191950D01*
X25625304Y-12134354D01*
X25625302Y-12134353D01*
X25625301Y-12134353D01*
X25500000Y-12114508D01*
X25374698Y-12134353D01*
X25261656Y-12191951D01*
X25171951Y-12281656D01*
X25114353Y-12394698D01*
X25094508Y-12520000D01*
X24905492Y-12520000D01*
X24885646Y-12394696D01*
X24828050Y-12281658D01*
X24738342Y-12191950D01*
X24625304Y-12134354D01*
X24625302Y-12134353D01*
X24625301Y-12134353D01*
X24500000Y-12114508D01*
X24374698Y-12134353D01*
X24261656Y-12191951D01*
X24171951Y-12281656D01*
X24114353Y-12394698D01*
X24094508Y-12520000D01*
X23905492Y-12520000D01*
X23885646Y-12394696D01*
X23828050Y-12281658D01*
X23738342Y-12191950D01*
X23625304Y-12134354D01*
X23625302Y-12134353D01*
X23625301Y-12134353D01*
X23500000Y-12114508D01*
X23374698Y-12134353D01*
X23261656Y-12191951D01*
X23171951Y-12281656D01*
X23114353Y-12394698D01*
X23094508Y-12520000D01*
X22902324Y-12520000D01*
X22905492Y-12500000D01*
X22885646Y-12374696D01*
X22828050Y-12261658D01*
X22738342Y-12171950D01*
X22625304Y-12114354D01*
X22625302Y-12114353D01*
X22625301Y-12114353D01*
X22500000Y-12094508D01*
X22374698Y-12114353D01*
X22261656Y-12171951D01*
X22171951Y-12261656D01*
X22114353Y-12374698D01*
X22094508Y-12500000D01*
X21902324Y-12500000D01*
X21885646Y-12394696D01*
X21828050Y-12281658D01*
X21738342Y-12191950D01*
X21625304Y-12134354D01*
X21625302Y-12134353D01*
X21625301Y-12134353D01*
X21500000Y-12114508D01*
X21374698Y-12134353D01*
X21261656Y-12191951D01*
X21171951Y-12281656D01*
X21114353Y-12394698D01*
X21094508Y-12520000D01*
X20902324Y-12520000D01*
X20905492Y-12500000D01*
X20885646Y-12374696D01*
X20828050Y-12261658D01*
X20738342Y-12171950D01*
X20625304Y-12114354D01*
X20625302Y-12114353D01*
X20625301Y-12114353D01*
X20500000Y-12094508D01*
X20374698Y-12114353D01*
X20261656Y-12171951D01*
X20171951Y-12261656D01*
X20114353Y-12374698D01*
X20094508Y-12500000D01*
X19905492Y-12500000D01*
X19885646Y-12374696D01*
X19828050Y-12261658D01*
X19738342Y-12171950D01*
X19625304Y-12114354D01*
X19625302Y-12114353D01*
X19625301Y-12114353D01*
X19500000Y-12094508D01*
X19374698Y-12114353D01*
X19261656Y-12171951D01*
X19171951Y-12261656D01*
X19114353Y-12374698D01*
X19094508Y-12500000D01*
X18902324Y-12500000D01*
X18885646Y-12394696D01*
X18828050Y-12281658D01*
X18738342Y-12191950D01*
X18625304Y-12134354D01*
X18625302Y-12134353D01*
X18625301Y-12134353D01*
X18500000Y-12114508D01*
X18374698Y-12134353D01*
X18261656Y-12191951D01*
X18171951Y-12281656D01*
X18114353Y-12394698D01*
X18094508Y-12520000D01*
X17905492Y-12520000D01*
X17885646Y-12394696D01*
X17828050Y-12281658D01*
X17738342Y-12191950D01*
X17625304Y-12134354D01*
X17625302Y-12134353D01*
X17625301Y-12134353D01*
X17500000Y-12114508D01*
X17374698Y-12134353D01*
X17261656Y-12191951D01*
X17171951Y-12281656D01*
X17114353Y-12394698D01*
X17094508Y-12520000D01*
X16924469Y-12520000D01*
X16930804Y-12480000D01*
X16909719Y-12346874D01*
X16909719Y-12346873D01*
X16848528Y-12226780D01*
X16753219Y-12131471D01*
X16633126Y-12070281D01*
X16633126Y-12070280D01*
X16500000Y-12049196D01*
X16366873Y-12070280D01*
X16366873Y-12070281D01*
X16246780Y-12131471D01*
X16151471Y-12226780D01*
X16090281Y-12346873D01*
X16090280Y-12346873D01*
X16069196Y-12480000D01*
X15905492Y-12480000D01*
X15885646Y-12354696D01*
X15828050Y-12241658D01*
X15738342Y-12151950D01*
X15625304Y-12094354D01*
X15625302Y-12094353D01*
X15625301Y-12094353D01*
X15500000Y-12074508D01*
X15374698Y-12094353D01*
X15261656Y-12151951D01*
X15171951Y-12241656D01*
X15114353Y-12354698D01*
X15094508Y-12480000D01*
X14902324Y-12480000D01*
X14885646Y-12374696D01*
X14828050Y-12261658D01*
X14738342Y-12171950D01*
X14625304Y-12114354D01*
X14625302Y-12114353D01*
X14625301Y-12114353D01*
X14500000Y-12094508D01*
X14374698Y-12114353D01*
X14261656Y-12171951D01*
X14171951Y-12261656D01*
X14114353Y-12374698D01*
X14094508Y-12500000D01*
X0Y-12500000D01*
X0Y-8550000D01*
X14244508Y-8550000D01*
X14264353Y-8675301D01*
X14264353Y-8675302D01*
X14264354Y-8675304D01*
X14321950Y-8788342D01*
X14321951Y-8788343D01*
X14356282Y-8822674D01*
X14377956Y-8875000D01*
X14356282Y-8927326D01*
X14321951Y-8961656D01*
X14264353Y-9074698D01*
X14244508Y-9200000D01*
X14264353Y-9325301D01*
X14264353Y-9325302D01*
X14264354Y-9325304D01*
X14321950Y-9438342D01*
X14411658Y-9528050D01*
X14524696Y-9585646D01*
X14650000Y-9605492D01*
X14775304Y-9585646D01*
X14888342Y-9528050D01*
X14947674Y-9468718D01*
X15000000Y-9447044D01*
X15052326Y-9468718D01*
X15111658Y-9528050D01*
X15224696Y-9585646D01*
X15350000Y-9605492D01*
X15475304Y-9585646D01*
X15588342Y-9528050D01*
X15678050Y-9438342D01*
X15735646Y-9325304D01*
X15755492Y-9200000D01*
X15735646Y-9074696D01*
X15678050Y-8961658D01*
X15643718Y-8927326D01*
X15622044Y-8875000D01*
X15643718Y-8822674D01*
X15678050Y-8788342D01*
X15735646Y-8675304D01*
X15747573Y-8600000D01*
X21394508Y-8600000D01*
X21414353Y-8725301D01*
X21414353Y-8725302D01*
X21414354Y-8725304D01*
X21471950Y-8838342D01*
X21471951Y-8838343D01*
X21481282Y-8847674D01*
X21502956Y-8900000D01*
X21481282Y-8952326D01*
X21471951Y-8961656D01*
X21414353Y-9074698D01*
X21394508Y-9200000D01*
X21414353Y-9325301D01*
X21414353Y-9325302D01*
X21414354Y-9325304D01*
X21471950Y-9438342D01*
X21561658Y-9528050D01*
X21674696Y-9585646D01*
X21800000Y-9605492D01*
X21925304Y-9585646D01*
X22038342Y-9528050D01*
X22097674Y-9468718D01*
X22150000Y-9447044D01*
X22202326Y-9468718D01*
X22261658Y-9528050D01*
X22374696Y-9585646D01*
X22500000Y-9605492D01*
X22625304Y-9585646D01*
X22738342Y-9528050D01*
X22796392Y-9470000D01*
X28594508Y-9470000D01*
X28614353Y-9595301D01*
X28614353Y-9595302D01*
X28614354Y-9595304D01*
X28671950Y-9708342D01*
X28761658Y-9798050D01*
X28874696Y-9855646D01*
X29000000Y-9875492D01*
X29125304Y-9855646D01*
X29238342Y-9798050D01*
X29328050Y-9708342D01*
X29385646Y-9595304D01*
X29405492Y-9470000D01*
X29385646Y-9344696D01*
X29328050Y-9231658D01*
X29238342Y-9141950D01*
X29125304Y-9084354D01*
X29125302Y-9084353D01*
X29125301Y-9084353D01*
X29000000Y-9064508D01*
X28874698Y-9084353D01*
X28761656Y-9141951D01*
X28671951Y-9231656D01*
X28614353Y-9344698D01*
X28594508Y-9470000D01*
X22796392Y-9470000D01*
X22828050Y-9438342D01*
X22885646Y-9325304D01*
X22905492Y-9200000D01*
X22885646Y-9074696D01*
X22828050Y-8961658D01*
X22818718Y-8952326D01*
X22797044Y-8900000D01*
X22818718Y-8847674D01*
X22828050Y-8838342D01*
X22885646Y-8725304D01*
X22905492Y-8600000D01*
X22885646Y-8474696D01*
X22828050Y-8361658D01*
X22738342Y-8271950D01*
X22625304Y-8214354D01*
X22625302Y-8214353D01*
X22625301Y-8214353D01*
X22500000Y-8194508D01*
X22374698Y-8214353D01*
X22261656Y-8271951D01*
X22202326Y-8331282D01*
X22150000Y-8352956D01*
X22097674Y-8331282D01*
X22038343Y-8271951D01*
X22038342Y-8271950D01*
X21925304Y-8214354D01*
X21925302Y-8214353D01*
X21925301Y-8214353D01*
X21800000Y-8194508D01*
X21674698Y-8214353D01*
X21561656Y-8271951D01*
X21471951Y-8361656D01*
X21414353Y-8474698D01*
X21394508Y-8600000D01*
X15747573Y-8600000D01*
X15755492Y-8550000D01*
X15735646Y-8424696D01*
X15678050Y-8311658D01*
X15588342Y-8221950D01*
X15475304Y-8164354D01*
X15475302Y-8164353D01*
X15475301Y-8164353D01*
X15350000Y-8144508D01*
X15224698Y-8164353D01*
X15111656Y-8221951D01*
X15052326Y-8281282D01*
X15000000Y-8302956D01*
X14947674Y-8281282D01*
X14888343Y-8221951D01*
X14888342Y-8221950D01*
X14775304Y-8164354D01*
X14775302Y-8164353D01*
X14775301Y-8164353D01*
X14650000Y-8144508D01*
X14524698Y-8164353D01*
X14411656Y-8221951D01*
X14321951Y-8311656D01*
X14264353Y-8424698D01*
X14244508Y-8550000D01*
X0Y-8550000D01*
X0Y-7850000D01*
X26594508Y-7850000D01*
X26614353Y-7975301D01*
X26614353Y-7975302D01*
X26614354Y-7975304D01*
X26640934Y-8027469D01*
X26673511Y-8091405D01*
X26677954Y-8147867D01*
X26673511Y-8158595D01*
X26671950Y-8161657D01*
X26671950Y-8161658D01*
X26645100Y-8214354D01*
X26614353Y-8274698D01*
X26594508Y-8400000D01*
X26614353Y-8525301D01*
X26614353Y-8525302D01*
X26614354Y-8525304D01*
X26671950Y-8638342D01*
X26761658Y-8728050D01*
X26874696Y-8785646D01*
X27000000Y-8805492D01*
X27125304Y-8785646D01*
X27238342Y-8728050D01*
X27328050Y-8638342D01*
X27346328Y-8602469D01*
X27389392Y-8565687D01*
X27445855Y-8570130D01*
X27478195Y-8602469D01*
X27496474Y-8638343D01*
X27521950Y-8688342D01*
X27611658Y-8778050D01*
X27724696Y-8835646D01*
X27850000Y-8855492D01*
X27975304Y-8835646D01*
X28088342Y-8778050D01*
X28178050Y-8688342D01*
X28235646Y-8575304D01*
X28255492Y-8450000D01*
X28235646Y-8324696D01*
X28178050Y-8211658D01*
X28168718Y-8202326D01*
X28147044Y-8150000D01*
X28168718Y-8097674D01*
X28178050Y-8088342D01*
X28235646Y-7975304D01*
X28255492Y-7850000D01*
X28235646Y-7724696D01*
X28178050Y-7611658D01*
X28088342Y-7521950D01*
X27975304Y-7464354D01*
X27975302Y-7464353D01*
X27975301Y-7464353D01*
X27850000Y-7444508D01*
X27724698Y-7464353D01*
X27611656Y-7521951D01*
X27521948Y-7611659D01*
X27490934Y-7672529D01*
X27447867Y-7709312D01*
X27391405Y-7704868D01*
X27359066Y-7672529D01*
X27328051Y-7611659D01*
X27238343Y-7521951D01*
X27238342Y-7521950D01*
X27125304Y-7464354D01*
X27125302Y-7464353D01*
X27125301Y-7464353D01*
X27000000Y-7444508D01*
X26874698Y-7464353D01*
X26761656Y-7521951D01*
X26671951Y-7611656D01*
X26614353Y-7724698D01*
X26594508Y-7850000D01*
X0Y-7850000D01*
X0Y-7137500D01*
X19619196Y-7137500D01*
X19640280Y-7270626D01*
X19701471Y-7390719D01*
X19701472Y-7390720D01*
X19796780Y-7486028D01*
X19916873Y-7547218D01*
X19916873Y-7547219D01*
X19935075Y-7550101D01*
X20050000Y-7568304D01*
X20183126Y-7547219D01*
X20303220Y-7486028D01*
X20398528Y-7390720D01*
X20459719Y-7270626D01*
X20480804Y-7137500D01*
X20459719Y-7004374D01*
X20459719Y-7004373D01*
X20398528Y-6884280D01*
X20303219Y-6788971D01*
X20183126Y-6727781D01*
X20183126Y-6727780D01*
X20050000Y-6706696D01*
X19916873Y-6727780D01*
X19916873Y-6727781D01*
X19796780Y-6788971D01*
X19701471Y-6884280D01*
X19640281Y-7004373D01*
X19640280Y-7004373D01*
X19619196Y-7137500D01*
X0Y-7137500D01*
X0Y-5900000D01*
X17769196Y-5900000D01*
X17790280Y-6033126D01*
X17832278Y-6115550D01*
X17851472Y-6153220D01*
X17946780Y-6248528D01*
X18066873Y-6309718D01*
X18066873Y-6309719D01*
X18085075Y-6312601D01*
X18200000Y-6330804D01*
X18333126Y-6309719D01*
X18453220Y-6248528D01*
X18548528Y-6153220D01*
X18609719Y-6033126D01*
X18630804Y-5900000D01*
X18609719Y-5766874D01*
X18609719Y-5766873D01*
X18548528Y-5646780D01*
X18453219Y-5551471D01*
X18333126Y-5490281D01*
X18333126Y-5490280D01*
X18200000Y-5469196D01*
X18066873Y-5490280D01*
X18066873Y-5490281D01*
X17946780Y-5551471D01*
X17851471Y-5646780D01*
X17790281Y-5766873D01*
X17790280Y-5766873D01*
X17769196Y-5900000D01*
X0Y-5900000D01*
X0Y-3361814D01*
X21674Y-3309488D01*
X74000Y-3287814D01*
X126326Y-3309488D01*
X143847Y-3337374D01*
X186197Y-3458405D01*
X308052Y-3711440D01*
X308054Y-3711444D01*
X308055Y-3711445D01*
X457477Y-3949248D01*
X632584Y-4168825D01*
X831175Y-4367416D01*
X1050752Y-4542523D01*
X1288555Y-4691945D01*
X1288558Y-4691946D01*
X1288559Y-4691947D01*
X1340321Y-4716874D01*
X1541592Y-4813801D01*
X1806682Y-4906560D01*
X1806687Y-4906561D01*
X1806690Y-4906562D01*
X2080486Y-4969054D01*
X2080487Y-4969054D01*
X2080491Y-4969055D01*
X2359575Y-5000500D01*
X2359579Y-5000500D01*
X2640421Y-5000500D01*
X2640425Y-5000500D01*
X2919509Y-4969055D01*
X3193318Y-4906560D01*
X3354957Y-4850000D01*
X6619196Y-4850000D01*
X6640280Y-4983126D01*
X6699831Y-5100000D01*
X6701472Y-5103220D01*
X6796780Y-5198528D01*
X6916873Y-5259718D01*
X6916873Y-5259719D01*
X6935075Y-5262601D01*
X7050000Y-5280804D01*
X7183126Y-5259719D01*
X7303220Y-5198528D01*
X7398528Y-5103220D01*
X7459719Y-4983126D01*
X7478824Y-4862500D01*
X12619196Y-4862500D01*
X12640280Y-4995626D01*
X12701471Y-5115719D01*
X12701472Y-5115720D01*
X12796780Y-5211028D01*
X12916873Y-5272218D01*
X12916873Y-5272219D01*
X12935075Y-5275101D01*
X13050000Y-5293304D01*
X13183126Y-5272219D01*
X13303220Y-5211028D01*
X13398528Y-5115720D01*
X13406538Y-5100000D01*
X28669196Y-5100000D01*
X28690280Y-5233126D01*
X28751471Y-5353219D01*
X28751472Y-5353220D01*
X28846780Y-5448528D01*
X28966873Y-5509718D01*
X28966873Y-5509719D01*
X28985075Y-5512601D01*
X29100000Y-5530804D01*
X29233126Y-5509719D01*
X29353220Y-5448528D01*
X29448528Y-5353220D01*
X29509719Y-5233126D01*
X29530804Y-5100000D01*
X29512293Y-4983126D01*
X29509719Y-4966873D01*
X29475645Y-4900000D01*
X30344508Y-4900000D01*
X30364353Y-5025301D01*
X30364353Y-5025302D01*
X30364354Y-5025304D01*
X30421950Y-5138342D01*
X30511658Y-5228050D01*
X30624696Y-5285646D01*
X30750000Y-5305492D01*
X30755586Y-5305492D01*
X30807912Y-5327166D01*
X30829586Y-5379492D01*
X30807912Y-5431818D01*
X30789184Y-5445424D01*
X30762353Y-5459095D01*
X30761656Y-5459451D01*
X30671951Y-5549156D01*
X30614353Y-5662198D01*
X30594508Y-5787500D01*
X30614353Y-5912801D01*
X30614353Y-5912802D01*
X30614354Y-5912804D01*
X30671950Y-6025842D01*
X30761658Y-6115550D01*
X30874696Y-6173146D01*
X31000000Y-6192992D01*
X31125304Y-6173146D01*
X31238342Y-6115550D01*
X31328050Y-6025842D01*
X31385646Y-5912804D01*
X31405492Y-5787500D01*
X31385646Y-5662196D01*
X31328050Y-5549158D01*
X31238342Y-5459450D01*
X31125304Y-5401854D01*
X31125302Y-5401853D01*
X31125301Y-5401853D01*
X31000000Y-5382008D01*
X30994414Y-5382008D01*
X30942088Y-5360334D01*
X30920414Y-5308008D01*
X30942088Y-5255682D01*
X30960815Y-5242075D01*
X30988342Y-5228050D01*
X31078050Y-5138342D01*
X31135646Y-5025304D01*
X31155492Y-4900000D01*
X31135646Y-4774696D01*
X31078050Y-4661658D01*
X30988342Y-4571950D01*
X30875304Y-4514354D01*
X30875302Y-4514353D01*
X30875301Y-4514353D01*
X30750000Y-4494508D01*
X30624698Y-4514353D01*
X30511656Y-4571951D01*
X30421951Y-4661656D01*
X30364353Y-4774698D01*
X30344508Y-4900000D01*
X29475645Y-4900000D01*
X29448528Y-4846780D01*
X29353219Y-4751471D01*
X29233126Y-4690281D01*
X29233126Y-4690280D01*
X29100000Y-4669196D01*
X28966873Y-4690280D01*
X28966873Y-4690281D01*
X28846780Y-4751471D01*
X28751471Y-4846780D01*
X28690281Y-4966873D01*
X28690280Y-4966873D01*
X28669196Y-5100000D01*
X13406538Y-5100000D01*
X13459719Y-4995626D01*
X13480804Y-4862500D01*
X13459719Y-4729374D01*
X13459719Y-4729373D01*
X13398528Y-4609280D01*
X13303219Y-4513971D01*
X13183126Y-4452781D01*
X13183126Y-4452780D01*
X13050000Y-4431696D01*
X12916873Y-4452780D01*
X12916873Y-4452781D01*
X12796780Y-4513971D01*
X12701471Y-4609280D01*
X12640281Y-4729373D01*
X12640280Y-4729373D01*
X12619196Y-4862500D01*
X7478824Y-4862500D01*
X7480804Y-4850000D01*
X7459719Y-4716874D01*
X7459719Y-4716873D01*
X7398528Y-4596780D01*
X7303219Y-4501471D01*
X7183126Y-4440281D01*
X7183126Y-4440280D01*
X7050000Y-4419196D01*
X6916873Y-4440280D01*
X6916873Y-4440281D01*
X6796780Y-4501471D01*
X6701471Y-4596780D01*
X6640281Y-4716873D01*
X6640280Y-4716873D01*
X6619196Y-4850000D01*
X3354957Y-4850000D01*
X3458408Y-4813801D01*
X3711445Y-4691945D01*
X3949248Y-4542523D01*
X4168825Y-4367416D01*
X4367416Y-4168825D01*
X4542523Y-3949248D01*
X4691945Y-3711445D01*
X4813801Y-3458408D01*
X4906560Y-3193318D01*
X4969055Y-2919509D01*
X5000500Y-2640425D01*
X5000500Y-2359575D01*
X4969055Y-2080491D01*
X4906560Y-1806682D01*
X4813801Y-1541592D01*
X4691945Y-1288555D01*
X4542523Y-1050752D01*
X4367416Y-831175D01*
X4168825Y-632584D01*
X3949248Y-457477D01*
X3711445Y-308055D01*
X3711444Y-308054D01*
X3711440Y-308052D01*
X3458407Y-186198D01*
X3337374Y-143847D01*
X3295143Y-106107D01*
X3291968Y-49559D01*
X3329708Y-7328D01*
X3361815Y0D01*
X35638185Y0D01*
X35690511Y-21674D01*
G37*
G04 #@! TD.AperFunction*
G04 #@! TD*
M02*
