G04 #@! TF.GenerationSoftware,KiCad,Pcbnew,8.0.4*
G04 #@! TF.CreationDate,2025-09-28T15:06:51-07:00*
G04 #@! TF.ProjectId,GMAX3412_breakout,474d4158-3334-4313-925f-627265616b6f,rev?*
G04 #@! TF.SameCoordinates,Original*
G04 #@! TF.FileFunction,Soldermask,Bot*
G04 #@! TF.FilePolarity,Negative*
%FSLAX46Y46*%
G04 Gerber Fmt 4.6, Leading zero omitted, Abs format (unit mm)*
G04 Created by KiCad (PCBNEW 8.0.4) date 2025-09-28 15:06:51*
%MOMM*%
%LPD*%
G01*
G04 APERTURE LIST*
%ADD10C,4.600000*%
%ADD11C,0.600000*%
%ADD12C,1.600000*%
G04 APERTURE END LIST*
D10*
G04 #@! TO.C,H4*
X36500000Y-2500000D03*
G04 #@! TD*
G04 #@! TO.C,H1*
X2500000Y-2500000D03*
G04 #@! TD*
G04 #@! TO.C,H3*
X36500000Y-36500000D03*
G04 #@! TD*
G04 #@! TO.C,H2*
X2500000Y-36500000D03*
G04 #@! TD*
D11*
G04 #@! TO.C,U1*
X13500000Y-26500000D03*
X14500000Y-26500000D03*
X15500000Y-26500000D03*
X16500000Y-26500000D03*
X17500000Y-26500000D03*
X18500000Y-26500000D03*
X19500000Y-26500000D03*
X20500000Y-26500000D03*
X21500000Y-26500000D03*
X22500000Y-26500000D03*
X23500000Y-26500000D03*
X24500000Y-26500000D03*
X25500000Y-26500000D03*
X13500000Y-25500000D03*
X14500000Y-25500000D03*
X15500000Y-25500000D03*
X16500000Y-25500000D03*
X17500000Y-25500000D03*
X18500000Y-25500000D03*
X19500000Y-25500000D03*
X20500000Y-25500000D03*
X21500000Y-25500000D03*
X22500000Y-25500000D03*
X23500000Y-25500000D03*
X24500000Y-25500000D03*
X25500000Y-25500000D03*
X11500000Y-24500000D03*
X12500000Y-24500000D03*
X13500000Y-24500000D03*
X14500000Y-24500000D03*
X15500000Y-24500000D03*
X16500000Y-24500000D03*
X17500000Y-24500000D03*
X18500000Y-24500000D03*
X19500000Y-24500000D03*
X20500000Y-24500000D03*
X21500000Y-24500000D03*
X22500000Y-24500000D03*
X23500000Y-24500000D03*
X24500000Y-24500000D03*
X25500000Y-24500000D03*
X26500000Y-24500000D03*
X27500000Y-24500000D03*
X11500000Y-23500000D03*
X12500000Y-23500000D03*
X13500000Y-23500000D03*
X14500000Y-23500000D03*
X15500000Y-23500000D03*
X16500000Y-23500000D03*
X17500000Y-23500000D03*
X18500000Y-23500000D03*
X19500000Y-23500000D03*
X20500000Y-23500000D03*
X21500000Y-23500000D03*
X22500000Y-23500000D03*
X23500000Y-23500000D03*
X24500000Y-23500000D03*
X25500000Y-23500000D03*
X26500000Y-23500000D03*
X27500000Y-23500000D03*
X11500000Y-22500000D03*
X12500000Y-22500000D03*
X13500000Y-22500000D03*
X14500000Y-22500000D03*
X24500000Y-22500000D03*
X25500000Y-22500000D03*
X26500000Y-22500000D03*
X27500000Y-22500000D03*
X11500000Y-21500000D03*
X12500000Y-21500000D03*
X13500000Y-21500000D03*
X14500000Y-21500000D03*
X24500000Y-21500000D03*
X25500000Y-21500000D03*
X26500000Y-21500000D03*
X27500000Y-21500000D03*
X11500000Y-20500000D03*
X12500000Y-20500000D03*
X13500000Y-20500000D03*
X14500000Y-20500000D03*
X24500000Y-20500000D03*
X25500000Y-20500000D03*
X26500000Y-20500000D03*
X27500000Y-20500000D03*
X11500000Y-19500000D03*
X12500000Y-19500000D03*
X13500000Y-19500000D03*
X14500000Y-19500000D03*
X24500000Y-19500000D03*
X25500000Y-19500000D03*
X26500000Y-19500000D03*
X27500000Y-19500000D03*
X11500000Y-18500000D03*
X12500000Y-18500000D03*
X13500000Y-18500000D03*
X14500000Y-18500000D03*
X24500000Y-18500000D03*
X25500000Y-18500000D03*
X26500000Y-18500000D03*
X27500000Y-18500000D03*
X11500000Y-17500000D03*
X12500000Y-17500000D03*
X13500000Y-17500000D03*
X14500000Y-17500000D03*
X24500000Y-17500000D03*
X25500000Y-17500000D03*
X26500000Y-17500000D03*
X27500000Y-17500000D03*
X11500000Y-16500000D03*
X12500000Y-16500000D03*
X13500000Y-16500000D03*
X14500000Y-16500000D03*
X24500000Y-16500000D03*
X25500000Y-16500000D03*
X26500000Y-16500000D03*
X27500000Y-16500000D03*
X11500000Y-15500000D03*
X12500000Y-15500000D03*
X13500000Y-15500000D03*
X14500000Y-15500000D03*
X15500000Y-15500000D03*
X16500000Y-15500000D03*
X17500000Y-15500000D03*
X18500000Y-15500000D03*
X19500000Y-15500000D03*
X20500000Y-15500000D03*
X21500000Y-15500000D03*
X22500000Y-15500000D03*
X23500000Y-15500000D03*
X24500000Y-15500000D03*
X25500000Y-15500000D03*
X26500000Y-15500000D03*
X27500000Y-15500000D03*
X11500000Y-14500000D03*
X12500000Y-14500000D03*
X13500000Y-14500000D03*
X14500000Y-14500000D03*
X15500000Y-14500000D03*
X16500000Y-14500000D03*
X17500000Y-14500000D03*
X18500000Y-14500000D03*
X19500000Y-14500000D03*
X20500000Y-14500000D03*
X21500000Y-14500000D03*
X22500000Y-14500000D03*
X23500000Y-14500000D03*
X24500000Y-14500000D03*
X25500000Y-14500000D03*
X26500000Y-14500000D03*
X27500000Y-14500000D03*
X13500000Y-13500000D03*
X14500000Y-13500000D03*
X15500000Y-13500000D03*
X16500000Y-13500000D03*
X17500000Y-13500000D03*
X18500000Y-13500000D03*
X19500000Y-13500000D03*
X20500000Y-13500000D03*
X21500000Y-13500000D03*
X22500000Y-13500000D03*
X23500000Y-13500000D03*
X24500000Y-13500000D03*
X25500000Y-13500000D03*
G36*
X11200000Y-26000000D02*
G01*
X11220058Y-25821983D01*
X11279225Y-25652893D01*
X11374535Y-25501208D01*
X11501208Y-25374535D01*
X11652893Y-25279225D01*
X11821983Y-25220058D01*
X12000000Y-25200000D01*
X12178017Y-25220058D01*
X12347107Y-25279225D01*
X12498792Y-25374535D01*
X12625465Y-25501208D01*
X12720775Y-25652893D01*
X12779942Y-25821983D01*
X12800000Y-26000000D01*
X12779942Y-26178017D01*
X12720775Y-26347107D01*
X12625465Y-26498792D01*
X12498792Y-26625465D01*
X12347107Y-26720775D01*
X12178017Y-26779942D01*
X12000000Y-26800000D01*
X11200000Y-26800000D01*
X11200000Y-26000000D01*
G37*
D12*
X27000000Y-26000000D03*
X27000000Y-13000000D03*
X12000000Y-13000000D03*
D11*
X13500000Y-12500000D03*
X14500000Y-12500000D03*
X15500000Y-12500000D03*
X16500000Y-12500000D03*
X17500000Y-12500000D03*
X18500000Y-12500000D03*
X19500000Y-12500000D03*
X20500000Y-12500000D03*
X21500000Y-12500000D03*
X22500000Y-12500000D03*
X23500000Y-12500000D03*
X24500000Y-12500000D03*
X25500000Y-12500000D03*
G04 #@! TD*
M02*
